STARTFONT 2.1
FONT -FontForge-mononoki-Book-R-Normal--64-610-75-75-M-360-ISO10646-1
SIZE 61 75 75
FONTBOUNDINGBOX 84 90 -24 -17
COMMENT "Generated by fontforge, http://fontforge.sourceforge.net"
STARTPROPERTIES 39
FOUNDRY "FontForge"
FAMILY_NAME "mononoki"
WEIGHT_NAME "Book"
SLANT "R"
SETWIDTH_NAME "Normal"
ADD_STYLE_NAME ""
PIXEL_SIZE 64
POINT_SIZE 610
RESOLUTION_X 75
RESOLUTION_Y 75
SPACING "M"
AVERAGE_WIDTH 360
CHARSET_REGISTRY "ISO10646"
CHARSET_ENCODING "1"
FONTNAME_REGISTRY ""
CHARSET_COLLECTIONS "ASCII ISOLatin1Encoding ISO8859-2 ISO8859-5 ISO8859-7 ISO8859-9 ISO10646-1"
FONT_NAME "mononoki-Regular"
FACE_NAME "mononoki Regular"
FONT_VERSION "1.006"
FONT_ASCENT 51
FONT_DESCENT 13
UNDERLINE_POSITION -8
UNDERLINE_THICKNESS 4
X_HEIGHT 30
CAP_HEIGHT 43
RAW_ASCENT 799
RAW_DESCENT 200
NORM_SPACE 36
RELATIVE_WEIGHT 40
RELATIVE_SETWIDTH 50
SUPERSCRIPT_X 0
SUPERSCRIPT_Y 22
SUPERSCRIPT_SIZE 38
SUBSCRIPT_X 0
SUBSCRIPT_Y 4
SUBSCRIPT_SIZE 38
FIGURE_WIDTH 36
AVG_LOWERCASE_WIDTH 360
AVG_UPPERCASE_WIDTH 360
ENDPROPERTIES
CHARS 932
STARTCHAR space
ENCODING 32
SWIDTH 561 0
DWIDTH 36 0
BBX 1 1 0 0
BITMAP
00
ENDCHAR
STARTCHAR exclam
ENCODING 33
SWIDTH 561 0
DWIDTH 36 0
BBX 6 45 15 -1
BITMAP
FC
FC
FC
FC
FC
FC
FC
FC
FC
FC
FC
FC
FC
FC
FC
FC
FC
FC
FC
FC
FC
FC
FC
FC
FC
FC
FC
FC
FC
FC
78
00
00
00
00
00
00
00
30
FC
FC
FC
FC
FC
30
ENDCHAR
STARTCHAR quotedbl
ENCODING 34
SWIDTH 561 0
DWIDTH 36 0
BBX 20 21 8 26
BITMAP
FC03F0
FC03F0
FC03F0
FC03F0
FC03F0
FC03F0
FC03F0
FC03F0
FC03F0
FC03F0
FC03F0
FC03F0
FC03F0
FC03F0
FC03F0
F801F0
F801F0
F801F0
F801F0
F801F0
7801E0
ENDCHAR
STARTCHAR numbersign
ENCODING 35
SWIDTH 561 0
DWIDTH 36 0
BBX 30 44 3 0
BITMAP
03E01F00
03E01F00
03E01F00
03E01F00
03E01F00
03E01F00
03E01F00
03E01F00
03E01F00
03E01F00
03E01F00
03E01F00
03E01F00
FFFFFFF8
FFFFFFFC
FFFFFFFC
FFFFFFFC
7FFFFFF8
03E01F00
03E01F00
03E01F00
03E01F00
03E01F00
03E01F00
03E01F00
03E01F00
03E01F00
FFFFFFF8
FFFFFFFC
FFFFFFFC
FFFFFFFC
7FFFFFF8
03E01F00
03E01F00
03E01F00
03E01F00
03E01F00
03E01F00
03E01F00
03E01F00
03E01F00
03E01F00
03E01F00
03E01F00
ENDCHAR
STARTCHAR dollar
ENCODING 36
SWIDTH 561 0
DWIDTH 36 0
BBX 28 62 4 -12
BITMAP
000F0000
001F8000
001F8000
001F8000
001F8000
001F8000
001F8000
001F8000
001F8000
001F8000
001F8000
001F8000
007FFF00
03FFFFC0
0FFFFFC0
1FFFFF80
3FFFFF80
7F800100
FE000000
FC000000
F8000000
F8000000
F8000000
F8000000
F8000000
FC000000
FE000000
7F800000
7FF80000
3FFFE000
0FFFFC00
03FFFF00
007FFF80
0001FFC0
00001FE0
000007E0
000003F0
000001F0
000001F0
000001F0
000001F0
000001F0
000003F0
000007F0
00001FE0
7E01FFE0
FFFFFFC0
FFFFFF80
FFFFFE00
FFFFF800
007F8000
001F8000
001F8000
001F8000
001F8000
001F8000
001F8000
001F8000
001F8000
001F8000
001F8000
001F8000
ENDCHAR
STARTCHAR percent
ENCODING 37
SWIDTH 561 0
DWIDTH 36 0
BBX 30 38 3 0
BITMAP
7FC00000
7FC00000
7FC00000
7FC00000
7FC00038
7FC0007C
7FC000FC
7FC001FC
7FC003F8
000007F0
00000FE0
00001FC0
00003F80
00007F00
0000FE00
0001FC00
0003F800
0007F000
000FE000
001FC000
003F8000
007F0000
00FE0000
01FC0000
03F80000
07F00000
0FE00000
1FC00000
3F800000
7F000FF8
FE000FF8
FC000FF8
F8000FF8
70000FF8
00000FF8
00000FF8
00000FF8
00000FF8
ENDCHAR
STARTCHAR ampersand
ENCODING 38
SWIDTH 561 0
DWIDTH 36 0
BBX 30 45 3 -1
BITMAP
007F0000
01FFC000
03FFF000
07FFF800
0FFFF800
1FC1FC00
1F80FC00
3F007E00
3F003E00
3F003E00
3F003E00
3F003E00
3F007E00
1F807C00
1F80FC00
0FC0FC00
0FE07800
07F03000
03F80000
01FC0000
01FE0000
03FF0000
07FF8000
0FFFC000
1FDFE000
3F8FE1F0
3F07F1F0
7E03F9F0
7C01FDF0
7C00FFF0
FC007FE0
FC003FE0
FC001FE0
FC001FC0
FC000FC0
FC001FE0
7C003FE0
7E007FF0
7F00FFF0
3FC7FDF8
1FFFF8F8
1FFFF0FC
07FFE07C
03FF807C
00100000
ENDCHAR
STARTCHAR quotesingle
ENCODING 39
SWIDTH 561 0
DWIDTH 36 0
BBX 6 21 15 26
BITMAP
FC
FC
FC
FC
FC
FC
FC
FC
FC
FC
FC
FC
FC
FC
FC
FC
FC
FC
F8
F8
78
ENDCHAR
STARTCHAR parenleft
ENCODING 40
SWIDTH 561 0
DWIDTH 36 0
BBX 26 60 5 -13
BITMAP
000007C0
00003FC0
0000FFC0
0003FFC0
0007FFC0
000FF800
003FC000
007F8000
00FE0000
00FC0000
01F80000
03F00000
07E00000
07C00000
0FC00000
0F800000
1F800000
1F000000
3F000000
3E000000
3E000000
7E000000
7C000000
7C000000
7C000000
7C000000
FC000000
FC000000
FC000000
FC000000
FC000000
FC000000
FC000000
FC000000
7C000000
7C000000
7C000000
7C000000
7E000000
3E000000
3E000000
3F000000
1F000000
1F800000
0F800000
0FC00000
07E00000
07E00000
03F00000
01F80000
00FC0000
007E0000
007F8000
001FE000
000FF800
0007FFC0
0003FFC0
0000FFC0
00003FC0
000007C0
ENDCHAR
STARTCHAR parenright
ENCODING 41
SWIDTH 561 0
DWIDTH 36 0
BBX 26 60 5 -13
BITMAP
F8000000
FF000000
FFC00000
FFF00000
FFF80000
07FC0000
00FF0000
007F8000
001FC000
000FC000
0007E000
0003F000
0001F800
0001F800
0000FC00
00007C00
00007E00
00003E00
00003F00
00001F00
00001F00
00001F80
00001F80
00000F80
00000F80
00000F80
00000F80
00000FC0
00000FC0
00000FC0
00000FC0
00000FC0
00000FC0
00000F80
00000F80
00000F80
00000F80
00001F80
00001F80
00001F00
00001F00
00003F00
00003E00
00007E00
00007C00
0000FC00
0001F800
0001F000
0003F000
0007E000
000FC000
001F8000
007F0000
01FE0000
07FC0000
FFF80000
FFE00000
FFC00000
FF000000
F0000000
ENDCHAR
STARTCHAR asterisk
ENCODING 42
SWIDTH 561 0
DWIDTH 36 0
BBX 30 29 3 2
BITMAP
00078000
000FC000
000FC000
000FC000
000FC000
000FC000
000FC000
000FC000
000FC000
780FC078
FF0FC3FC
FFCFCFFC
FFFFFFFC
FFFFFFFC
3FFFFFF0
07FFFF80
00FFF800
007FF800
00FFF800
00FCFC00
01FCFE00
03F87F00
03F03F00
07E03F80
0FE01FC0
1FC00FC0
1F8007E0
1F8007E0
07000380
ENDCHAR
STARTCHAR plus
ENCODING 43
SWIDTH 561 0
DWIDTH 36 0
BBX 30 31 3 0
BITMAP
00078000
000FC000
000FC000
000FC000
000FC000
000FC000
000FC000
000FC000
000FC000
000FC000
000FC000
000FC000
000FC000
FFFFFFF8
FFFFFFFC
FFFFFFFC
FFFFFFFC
7FFFFFF8
000FC000
000FC000
000FC000
000FC000
000FC000
000FC000
000FC000
000FC000
000FC000
000FC000
000FC000
000FC000
00078000
ENDCHAR
STARTCHAR comma
ENCODING 44
SWIDTH 561 0
DWIDTH 36 0
BBX 17 25 6 -16
BITMAP
00FF00
01FF80
01FF80
01FF80
01FF80
01FF80
01FF80
01FF80
00FF80
001F80
001F80
001F80
001F80
001F00
001F00
003F00
003F00
007F00
00FE00
03FE00
FFFC00
FFF800
FFF000
FFC000
FE0000
ENDCHAR
STARTCHAR hyphen
ENCODING 45
SWIDTH 561 0
DWIDTH 36 0
BBX 30 5 3 13
BITMAP
7FFFFFF8
FFFFFFFC
FFFFFFFC
FFFFFFFC
7FFFFFF8
ENDCHAR
STARTCHAR period
ENCODING 46
SWIDTH 561 0
DWIDTH 36 0
BBX 10 9 13 0
BITMAP
7F80
FFC0
FFC0
FFC0
FFC0
FFC0
FFC0
FFC0
7F80
ENDCHAR
STARTCHAR slash
ENCODING 47
SWIDTH 561 0
DWIDTH 36 0
BBX 31 56 2 -12
BITMAP
00000018
0000003E
0000003E
0000007E
0000007E
000000FC
000000FC
000001F8
000001F8
000003F0
000003F0
000007E0
000007E0
00000FC0
00000FC0
00001F80
00001F80
00003F00
00003F00
00007E00
00007E00
0000FC00
0000FC00
0001F800
0001F800
0003F000
0003F000
0007E000
0007E000
000FC000
000FC000
001F8000
001F8000
003F0000
003F0000
007E0000
007E0000
00FC0000
00FC0000
01F80000
01F80000
03F00000
03F00000
07E00000
07E00000
0FC00000
0FC00000
1F800000
1F800000
3F000000
3F000000
7E000000
7E000000
FC000000
7C000000
18000000
ENDCHAR
STARTCHAR zero
ENCODING 48
SWIDTH 561 0
DWIDTH 36 0
BBX 30 46 3 -1
BITMAP
00020000
003FF000
00FFFC00
01FFFE00
03FFFF00
07F8FF80
0FE01FC0
0FC00FC0
1F8007E0
1F8007E0
3F0003F0
3F0003F0
3E0003F0
7E0007F0
7E000FF8
7C001FF8
7C003FF8
7C007FF8
7C00FEF8
7C01FCF8
FC03F8F8
FC07F0F8
FC0FE0F8
FC1FC0FC
FC3F80F8
FC7F00F8
7CFE00F8
7DFC00F8
7FF800F8
7FF000F8
7FE000F8
7FC001F8
7F8001F0
3F0001F0
3F0003F0
3F0003F0
1F8007E0
1F8007E0
0FC00FC0
0FE01FC0
07FC7F80
03FFFF00
01FFFE00
00FFFC00
003FF000
00030000
ENDCHAR
STARTCHAR one
ENCODING 49
SWIDTH 561 0
DWIDTH 36 0
BBX 26 44 5 0
BITMAP
00038000
0007C000
000FC000
001FC000
003FC000
00FFC000
7FFFC000
FFFFC000
FFFFC000
FFFFC000
7FFFC000
000FC000
000FC000
000FC000
000FC000
000FC000
000FC000
000FC000
000FC000
000FC000
000FC000
000FC000
000FC000
000FC000
000FC000
000FC000
000FC000
000FC000
000FC000
000FC000
000FC000
000FC000
000FC000
000FC000
000FC000
000FC000
000FC000
000FC000
000FC000
7FFFFF80
FFFFFFC0
FFFFFFC0
FFFFFFC0
7FFFFF80
ENDCHAR
STARTCHAR two
ENCODING 50
SWIDTH 561 0
DWIDTH 36 0
BBX 27 45 5 0
BITMAP
00100000
0FFFC000
3FFFF000
7FFFFC00
7FFFFE00
3F83FF00
38007F80
00001F80
00001F80
00000FC0
00000FC0
000007C0
000007C0
000007C0
00000FC0
00000FC0
00000F80
00001F80
00001F80
00003F00
00007F00
0000FE00
0001FC00
0003F800
0007F000
001FE000
003FC000
007F8000
00FF0000
03FC0000
07F80000
0FF00000
0FE00000
1FC00000
3F800000
3F000000
7E000000
7C000000
7C000000
FC000000
FFFFFFE0
FFFFFFE0
FFFFFFE0
FFFFFFE0
7FFFFFE0
ENDCHAR
STARTCHAR three
ENCODING 51
SWIDTH 561 0
DWIDTH 36 0
BBX 25 46 6 -1
BITMAP
00400000
3FFF0000
7FFFE000
7FFFF000
3FFFF800
3E0FFC00
0000FE00
00007E00
00003F00
00003F00
00003F00
00001F00
00001F00
00001F00
00003F00
00003E00
00007E00
00007E00
0001FC00
0007F800
07FFF000
07FFC000
07FF8000
07FFE000
07FFF000
0003F800
0000FC00
00007E00
00003E00
00003F00
00001F00
00001F00
00001F80
00001F80
00001F80
00001F80
00001F00
00003F00
00007F00
0000FE00
7C0FFC00
7FFFFC00
7FFFF000
FFFFE000
7FFF0000
00C00000
ENDCHAR
STARTCHAR four
ENCODING 52
SWIDTH 561 0
DWIDTH 36 0
BBX 27 44 5 0
BITMAP
0003E000
0003F000
0007E000
0007E000
000FC000
000FC000
001F8000
001F8000
003F0000
003F0000
007E0000
007E0000
00FC0000
00FC0000
01F80000
01F80000
03F00000
03F00000
07E07C00
07E07C00
0FC07C00
0FC07C00
1F807C00
1F807C00
3F007C00
3F007C00
7E007C00
7E007C00
FC007C00
FC007C00
FFFFFFC0
FFFFFFE0
FFFFFFE0
FFFFFFE0
FFFFFFE0
00007C00
00007C00
00007C00
00007C00
00007C00
00007C00
00007C00
00007C00
00007C00
ENDCHAR
STARTCHAR five
ENCODING 53
SWIDTH 561 0
DWIDTH 36 0
BBX 24 45 7 -1
BITMAP
1FFFF8
3FFFFC
3FFFFC
3FFFF8
3FFFF8
3E0000
3E0000
3E0000
3E0000
3E0000
3E0000
3E0000
7C0000
7C0000
7C0000
7C0000
7C0000
7FFC00
7FFF80
7FFFE0
7FFFF0
1FFFF8
0003FC
0001FC
00007E
00007E
00003E
00003F
00003F
00003F
00003F
00003F
00003F
00003F
00003E
00007E
00007E
0000FE
0003FC
F81FF8
FFFFF0
FFFFE0
FFFFC0
FFFE00
01C000
ENDCHAR
STARTCHAR six
ENCODING 54
SWIDTH 561 0
DWIDTH 36 0
BBX 28 46 3 -1
BITMAP
00004000
000FFF00
003FFF00
00FFFF00
01FFFF00
03FF0E00
07F80000
0FE00000
0FC00000
1F800000
1F800000
3F000000
3F000000
3E000000
7E000000
7E000000
7C000000
7C000000
7C3FE000
7DFFF800
FFFFFE00
FFFFFF00
FFFFFF80
FF803FC0
FE000FC0
FC0007E0
FC0007E0
FC0003F0
FC0003F0
7C0003F0
7C0001F0
7C0001F0
7C0001F0
7E0003F0
7E0003F0
3E0003E0
3F0003E0
3F8007E0
1FC00FC0
1FE01FC0
0FF87F80
07FFFF00
03FFFE00
01FFFC00
007FF000
00030000
ENDCHAR
STARTCHAR seven
ENCODING 55
SWIDTH 561 0
DWIDTH 36 0
BBX 27 44 5 0
BITMAP
7FFFFFE0
FFFFFFE0
FFFFFFE0
FFFFFFE0
FFFFFFE0
FC0003E0
FC0003E0
FC0003E0
FC0007E0
FC0007E0
FC0007C0
FC000FC0
78000FC0
00001F80
00001F80
00003F00
00003E00
00007E00
00007C00
0000FC00
0000F800
0001F800
0001F000
0003F000
0003E000
0007E000
0007C000
000FC000
000F8000
001F8000
001F0000
001F0000
003F0000
003E0000
003E0000
007E0000
007E0000
007C0000
007C0000
007C0000
007C0000
007C0000
007C0000
007C0000
ENDCHAR
STARTCHAR eight
ENCODING 56
SWIDTH 561 0
DWIDTH 36 0
BBX 28 46 4 -1
BITMAP
00040000
00FFF000
03FFFC00
07FFFF00
0FFFFF80
1FF0FF80
3F801FC0
3F000FC0
7E0007E0
7E0007E0
7C0003E0
7C0003E0
7C0007E0
7E0007E0
7E0007C0
3F000FC0
3F801F80
1FC01F80
0FF03F00
0FF87E00
03FFFC00
01FFF800
007FE000
00FFF800
03FFFC00
07F1FF00
0FC07F80
1F801FC0
3F000FE0
7E0007E0
7C0003F0
F80001F0
F80001F0
F80001F0
F80001F0
F80001F0
F80001F0
FC0003F0
FE0007F0
7F000FE0
3FF0FFE0
1FFFFFC0
0FFFFF80
07FFFE00
00FFF800
00060000
ENDCHAR
STARTCHAR nine
ENCODING 57
SWIDTH 561 0
DWIDTH 36 0
BBX 28 46 5 -1
BITMAP
00040000
00FFE000
03FFF800
0FFFFC00
1FFFFE00
1FE1FF00
3F807F00
7F003F80
7E001F80
7C000FC0
FC000FC0
FC0007E0
F80007E0
F80007E0
F80003E0
F80003E0
F80003E0
FC0003E0
FC0003F0
7E0003F0
7E0003F0
3F0007F0
3FC03FF0
1FFFFFF0
0FFFFFF0
07FFFFE0
01FFFBE0
003F03E0
000003E0
000007E0
000007E0
000007C0
000007C0
00000FC0
00000F80
00001F80
00001F80
00003F00
00007E00
0001FE00
070FFC00
0FFFF800
0FFFF000
0FFFC000
0FFF0000
00200000
ENDCHAR
STARTCHAR colon
ENCODING 58
SWIDTH 561 0
DWIDTH 36 0
BBX 10 31 13 0
BITMAP
7F80
FFC0
FFC0
FFC0
FFC0
FFC0
FFC0
FFC0
7F80
0000
0000
0000
0000
0000
0000
0000
0000
0000
0000
0000
0000
0000
7F80
FFC0
FFC0
FFC0
FFC0
FFC0
FFC0
FFC0
7F80
ENDCHAR
STARTCHAR semicolon
ENCODING 59
SWIDTH 561 0
DWIDTH 36 0
BBX 17 47 6 -16
BITMAP
00FF00
01FF80
01FF80
01FF80
01FF80
01FF80
01FF80
01FF80
00FF00
000000
000000
000000
000000
000000
000000
000000
000000
000000
000000
000000
000000
000000
00FF00
01FF80
01FF80
01FF80
01FF80
01FF80
01FF80
01FF80
00FF80
001F80
001F80
001F80
001F80
001F00
001F00
003F00
003F00
007F00
00FE00
03FE00
FFFC00
FFF800
FFF000
FFC000
FE0000
ENDCHAR
STARTCHAR less
ENCODING 60
SWIDTH 561 0
DWIDTH 36 0
BBX 26 40 5 -4
BITMAP
00000380
00000780
00000FC0
00003FC0
00007F80
0000FF00
0003FE00
0007F800
000FF000
003FE000
007F8000
00FF0000
03FE0000
07FC0000
0FF00000
3FE00000
7FC00000
FF000000
FE000000
FC000000
F8000000
FE000000
FF000000
7F800000
3FE00000
0FF00000
07F80000
03FE0000
00FF0000
007F8000
003FE000
000FF000
0007F800
0003FE00
0000FF00
00007F80
00003FC0
00000FC0
00000780
00000380
ENDCHAR
STARTCHAR equal
ENCODING 61
SWIDTH 561 0
DWIDTH 36 0
BBX 30 19 3 6
BITMAP
FFFFFFF8
FFFFFFFC
FFFFFFFC
FFFFFFFC
7FFFFFF8
00000000
00000000
00000000
00000000
00000000
00000000
00000000
00000000
00000000
7FFFFFF8
FFFFFFFC
FFFFFFFC
FFFFFFFC
FFFFFFF8
ENDCHAR
STARTCHAR greater
ENCODING 62
SWIDTH 561 0
DWIDTH 36 0
BBX 26 40 5 -4
BITMAP
70000000
78000000
FC000000
FF000000
7F800000
3FC00000
1FF00000
07F80000
03FC0000
01FF0000
00FF8000
003FC000
001FF000
000FF800
0003FC00
0001FE00
0000FF80
00003F80
00001FC0
00000FC0
00000FC0
00001FC0
00003F80
00007F80
0001FE00
0003FC00
0007F800
001FF000
003FC000
007F8000
01FF0000
03FC0000
07F80000
1FF00000
3FC00000
7F800000
FF000000
FC000000
78000000
70000000
ENDCHAR
STARTCHAR question
ENCODING 63
SWIDTH 561 0
DWIDTH 36 0
BBX 27 44 4 0
BITMAP
FFC00000
FFFE0000
FFFFC000
FFFFF000
7FFFFC00
003FFE00
0001FF00
00007F80
00001FC0
00000FC0
000007E0
000003E0
000003E0
000003E0
000003E0
000007E0
00000FE0
00001FC0
0000FF80
03FFFF80
03FFFE00
03FFFC00
03FFF000
03FF0000
03E00000
03E00000
03E00000
03E00000
03E00000
03E00000
03E00000
00000000
00000000
00000000
00000000
00000000
00000000
00000000
03E00000
03E00000
03E00000
03E00000
03E00000
03E00000
ENDCHAR
STARTCHAR at
ENCODING 64
SWIDTH 561 0
DWIDTH 36 0
BBX 30 55 3 -10
BITMAP
00020000
00FFF800
03FFFF00
07FFFF80
0FFFFFC0
1FF87FE0
3FC00FF0
3F0003F0
7F0003F8
7E0001F8
7C0000F8
7C0000F8
FC0000FC
FC0000FC
FC0000FC
FC0000FC
FC0007FC
FC003FFC
FC007FFC
FC00FFFC
FC00FFFC
FC01FFFC
FC01FFFC
FC01FFFC
FC01FFFC
FC03FFFC
FC03FFFC
FC03FFFC
FC03FFFC
FC03FFFC
FC03FFFC
FC01FFFC
FC01FFFC
FC01FFFC
FC01FFFC
FC00FFFC
FC00FFFC
FC007FFC
FC003FFC
FC0007F8
FC000000
FC000000
FC000000
FC000000
7C000000
7E000000
7E000000
3F000000
3F800000
1FE01E00
1FFFFE00
0FFFFE00
07FFFF00
01FFFE00
003FF000
ENDCHAR
STARTCHAR A
ENCODING 65
SWIDTH 561 0
DWIDTH 36 0
BBX 34 45 1 0
BITMAP
0000800000
0007F80000
001FFE0000
003FFE0000
003FFF0000
007F3F0000
007E1F8000
007C0F8000
007C0F8000
00FC0F8000
00FC0FC000
00F807C000
00F807C000
01F807C000
01F807E000
01F003E000
01F003E000
03F003E000
03F003F000
03E001F000
03E001F000
07E001F000
07E001F800
07C000F800
07C000F800
0FC000F800
0FFFFFFC00
0FFFFFFC00
0FFFFFFC00
1FFFFFFC00
1FFFFFFE00
1F00003E00
1F00003E00
3F00003E00
3F00003F00
3E00001F00
3E00001F00
7E00001F00
7E00001F80
7C00000F80
7C00000F80
FC00000F80
FC00000FC0
F8000007C0
F8000007C0
ENDCHAR
STARTCHAR B
ENCODING 66
SWIDTH 561 0
DWIDTH 36 0
BBX 30 44 2 0
BITMAP
7FFFC000
FFFFF800
FFFFFE00
FFFFFF00
7FFFFF80
0FC03FC0
0FC00FC0
0FC007E0
0FC003E0
0FC003E0
0FC001F0
0FC001F0
0FC001E0
0FC001E0
0FC003E0
0FC003E0
0FC007C0
0FC00FC0
0FC07F80
0FFFFF00
0FFFFE00
0FFFFE00
0FFFFF80
0FFFFFC0
0FC01FE0
0FC007F0
0FC001F8
0FC000F8
0FC000FC
0FC0007C
0FC0007C
0FC0007C
0FC0007C
0FC0007C
0FC0007C
0FC000F8
0FC001F8
0FC003F0
0FC01FF0
0FFFFFE0
0FFFFFC0
0FFFFF00
0FFFFC00
07FFF000
ENDCHAR
STARTCHAR C
ENCODING 67
SWIDTH 561 0
DWIDTH 36 0
BBX 26 46 5 -1
BITMAP
00008000
003FFE00
00FFFF80
01FFFFC0
03FFFFC0
07FC3F80
0FE00380
1FC00000
1F800000
3F000000
3E000000
7E000000
7E000000
7C000000
7C000000
7C000000
FC000000
FC000000
FC000000
FC000000
FC000000
FC000000
FC000000
FC000000
FC000000
FC000000
FC000000
FC000000
FC000000
FC000000
7C000000
7C000000
7C000000
7E000000
7E000000
3F000000
3F000000
1F800000
1FC00000
0FE00380
07FC3F80
03FFFFC0
01FFFFC0
00FFFF80
003FFE00
00018000
ENDCHAR
STARTCHAR D
ENCODING 68
SWIDTH 561 0
DWIDTH 36 0
BBX 30 44 2 0
BITMAP
7FFE0000
FFFFE000
FFFFFC00
FFFFFF00
7FFFFF80
0FC0FFC0
0FC03FE0
0FC00FE0
0FC007F0
0FC003F0
0FC001F8
0FC001F8
0FC000F8
0FC000FC
0FC000FC
0FC0007C
0FC0007C
0FC0007C
0FC0007C
0FC0007C
0FC0007C
0FC0007C
0FC0007C
0FC0007C
0FC0007C
0FC0007C
0FC0007C
0FC0007C
0FC0007C
0FC000FC
0FC000FC
0FC000F8
0FC001F8
0FC001F8
0FC003F8
0FC007F0
0FC00FF0
0FC01FE0
0FC0FFC0
0FFFFF80
0FFFFF00
0FFFFC00
0FFFF000
07FF0000
ENDCHAR
STARTCHAR E
ENCODING 69
SWIDTH 561 0
DWIDTH 36 0
BBX 27 44 5 0
BITMAP
7FFFFFC0
FFFFFFC0
FFFFFFC0
FFFFFFC0
FFFFFF80
FC000000
FC000000
FC000000
FC000000
FC000000
FC000000
FC000000
FC000000
FC000000
FC000000
FC000000
FC000000
FC000000
FC000000
FFFFFF00
FFFFFF80
FFFFFF80
FFFFFF80
FFFFFF00
FC000000
FC000000
FC000000
FC000000
FC000000
FC000000
FC000000
FC000000
FC000000
FC000000
FC000000
FC000000
FC000000
FC000000
FC000000
FFFFFFE0
FFFFFFE0
FFFFFFE0
FFFFFFE0
7FFFFFE0
ENDCHAR
STARTCHAR F
ENCODING 70
SWIDTH 561 0
DWIDTH 36 0
BBX 27 44 5 0
BITMAP
7FFFFFE0
FFFFFFE0
FFFFFFE0
FFFFFFE0
FFFFFFE0
FC000000
FC000000
FC000000
FC000000
FC000000
FC000000
FC000000
FC000000
FC000000
FC000000
FC000000
FC000000
FC000000
FC000000
FC000000
FC000000
FFFFFFC0
FFFFFFC0
FFFFFFC0
FFFFFFC0
FFFFFF80
FC000000
FC000000
FC000000
FC000000
FC000000
FC000000
FC000000
FC000000
FC000000
FC000000
FC000000
FC000000
FC000000
FC000000
FC000000
FC000000
FC000000
78000000
ENDCHAR
STARTCHAR G
ENCODING 71
SWIDTH 561 0
DWIDTH 36 0
BBX 26 46 5 -1
BITMAP
00008000
003FFE00
00FFFF80
01FFFFC0
03FFFFC0
07FC3F80
0FE00380
1FC00000
1F800000
3F000000
3E000000
7E000000
7E000000
7C000000
7C000000
7C000000
FC000000
FC000000
FC000000
FC000000
FC01FFC0
FC01FFC0
FC01FFC0
FC01FFC0
FC01FFC0
FC0007C0
FC0007C0
FC0007C0
FC0007C0
FC0007C0
7C0007C0
7C0007C0
7C0007C0
7E0007C0
7E0007C0
3F0007C0
3F0007C0
1F8007C0
1FC007C0
0FE007C0
07FC3FC0
03FFFFC0
01FFFFC0
00FFFF80
003FFC00
00018000
ENDCHAR
STARTCHAR H
ENCODING 72
SWIDTH 561 0
DWIDTH 36 0
BBX 28 44 4 0
BITMAP
780001E0
FC0003F0
FC0003F0
FC0003F0
FC0003F0
FC0003F0
FC0003F0
FC0003F0
FC0003F0
FC0003F0
FC0003F0
FC0003F0
FC0003F0
FC0003F0
FC0003F0
FC0003F0
FC0003F0
FC0003F0
FFFFFFF0
FFFFFFF0
FFFFFFF0
FFFFFFF0
FFFFFFF0
FC0003F0
FC0003F0
FC0003F0
FC0003F0
FC0003F0
FC0003F0
FC0003F0
FC0003F0
FC0003F0
FC0003F0
FC0003F0
FC0003F0
FC0003F0
FC0003F0
FC0003F0
FC0003F0
FC0003F0
FC0003F0
FC0003F0
FC0003F0
780001E0
ENDCHAR
STARTCHAR I
ENCODING 73
SWIDTH 561 0
DWIDTH 36 0
BBX 26 44 5 0
BITMAP
7FFFFF80
7FFFFF80
7FFFFF80
7FFFFF80
7FFFFF00
003F0000
003F0000
003F0000
003F0000
003F0000
003F0000
003F0000
003F0000
003F0000
003F0000
003F0000
003F0000
003F0000
003F0000
003F0000
003F0000
003F0000
003F0000
003F0000
003F0000
003F0000
003F0000
003F0000
003F0000
003F0000
003F0000
003F0000
003F0000
003F0000
003F0000
003F0000
003F0000
003F0000
003F0000
7FFFFF80
FFFFFFC0
FFFFFFC0
FFFFFFC0
7FFFFF80
ENDCHAR
STARTCHAR J
ENCODING 74
SWIDTH 561 0
DWIDTH 36 0
BBX 26 45 5 -1
BITMAP
07FFFF80
07FFFFC0
07FFFFC0
07FFFFC0
07FFFFC0
00000FC0
00000FC0
00000FC0
00000FC0
00000FC0
00000FC0
00000FC0
00000FC0
00000FC0
00000FC0
00000FC0
00000FC0
00000FC0
00000FC0
00000FC0
00000FC0
00000FC0
00000FC0
00000FC0
00000FC0
00000FC0
00000FC0
00000FC0
00000FC0
00000FC0
00000F80
00000F80
00000F80
00001F80
00001F80
00003F00
00007F00
0000FE00
7001FE00
7F0FFC00
FFFFF800
FFFFF000
7FFFC000
1FFF0000
00600000
ENDCHAR
STARTCHAR K
ENCODING 75
SWIDTH 561 0
DWIDTH 36 0
BBX 27 44 5 0
BITMAP
78000FC0
FC001FC0
FC001FC0
FC003F80
FC007F00
FC007E00
FC00FE00
FC01FC00
FC03F800
FC03F000
FC07F000
FC0FE000
FC0FC000
FC1F8000
FC3F8000
FC7F0000
FC7E0000
FCFC0000
FDFC0000
FFF80000
FFF00000
FFE00000
FFF00000
FDF80000
FDFC0000
FCFC0000
FC7E0000
FC3F0000
FC3F8000
FC1F8000
FC0FC000
FC0FE000
FC07F000
FC03F000
FC01F800
FC01FC00
FC00FE00
FC007E00
FC003F00
FC003F80
FC001FC0
FC000FC0
FC000FE0
780007E0
ENDCHAR
STARTCHAR L
ENCODING 76
SWIDTH 561 0
DWIDTH 36 0
BBX 30 44 5 0
BITMAP
78000000
FC000000
FC000000
FC000000
FC000000
FC000000
FC000000
FC000000
FC000000
FC000000
FC000000
FC000000
FC000000
FC000000
FC000000
FC000000
FC000000
FC000000
FC000000
FC000000
FC000000
FC000000
FC000000
FC000000
FC000000
FC000000
FC000000
FC000000
FC000000
FC000000
FC000000
FC000000
FC000000
FC000000
FC000000
FC000000
FC000000
FC000000
FC000000
FFFFFFF8
FFFFFFFC
FFFFFFFC
FFFFFFFC
7FFFFFF8
ENDCHAR
STARTCHAR M
ENCODING 77
SWIDTH 561 0
DWIDTH 36 0
BBX 32 44 2 0
BITMAP
3C00003C
7E00007E
7F0000FE
7F0000FE
7F8001FE
7F8001FE
7FC003FE
7FC003FE
7FE007FE
7FE007FE
7FF00FFE
7DF00FBE
7DF81FBE
7CF81F3E
7CFC3F3E
7C7C3E3E
7C7E7E3E
7C3E7C3E
7C3FFC3E
7C1FF83E
7C1FF83E
7C0FF03E
7C0FF03E
FC07E03E
FC07E03F
FC00003F
FC00003F
FC00003F
FC00003F
FC00003F
FC00003F
FC00003F
FC00003F
FC00003F
FC00003F
FC00001F
F800001F
F800001F
F800001F
F800001F
F800001F
F800001F
F800001F
F800001F
ENDCHAR
STARTCHAR N
ENCODING 78
SWIDTH 561 0
DWIDTH 36 0
BBX 28 44 4 0
BITMAP
780001E0
FC0003F0
FE0003F0
FE0003F0
FF0003F0
FF0003F0
FF8003F0
FF8003F0
FFC003F0
FFC003F0
FFE003F0
FFE003F0
FFF003F0
FDF003F0
FDF803F0
FCF803F0
FCFC03F0
FC7C03F0
FC7E03F0
FC3E03F0
FC3F03F0
FC1F03F0
FC1F83F0
FC0F83F0
FC0FC3F0
FC07C3F0
FC03E3F0
FC03E3F0
FC01F3F0
FC01F3F0
FC00FBF0
FC00FBF0
FC007FF0
FC007FF0
FC003FF0
FC003FF0
FC001FF0
FC001FF0
FC000FF0
FC000FF0
FC0007F0
FC0007F0
FC0003F0
780001E0
ENDCHAR
STARTCHAR O
ENCODING 79
SWIDTH 561 0
DWIDTH 36 0
BBX 26 46 5 -1
BITMAP
00080000
00FFC000
03FFF000
07FFF800
0FFFFC00
1FE3FE00
3F80FE00
3F003F00
3F003F00
7E001F80
7E001F80
7C000F80
7C000F80
FC000FC0
FC000FC0
FC000FC0
FC000FC0
FC000FC0
FC000FC0
FC000FC0
FC000FC0
FC000FC0
FC000FC0
FC000FC0
FC000FC0
FC000FC0
FC000FC0
FC000FC0
FC000FC0
FC000FC0
FC000FC0
FC000FC0
FC000F80
7C000F80
7C000F80
7E001F80
7E001F80
3F003F00
3F003F00
3F807E00
1FF3FE00
0FFFFC00
07FFF800
03FFF000
00FFC000
000C0000
ENDCHAR
STARTCHAR P
ENCODING 80
SWIDTH 561 0
DWIDTH 36 0
BBX 27 44 5 0
BITMAP
7FFF0000
FFFFE000
FFFFF800
FFFFFC00
FFFFFE00
FC01FF00
FC003F80
FC001FC0
FC000FC0
FC0007E0
FC0007E0
FC0003E0
FC0003E0
FC0003E0
FC0003E0
FC0003E0
FC0003E0
FC0007E0
FC0007E0
FC000FC0
FC001FC0
FC007F80
FC01FF00
FFFFFE00
FFFFFC00
FFFFF000
FFFFC000
FFFC0000
FC000000
FC000000
FC000000
FC000000
FC000000
FC000000
FC000000
FC000000
FC000000
FC000000
FC000000
FC000000
FC000000
FC000000
FC000000
78000000
ENDCHAR
STARTCHAR Q
ENCODING 81
SWIDTH 561 0
DWIDTH 36 0
BBX 29 59 5 -14
BITMAP
00080000
00FFC000
03FFF000
07FFF800
0FFFFC00
1FF3FE00
3F80FE00
3F003F00
3F003F00
7E001F80
7E001F80
7C000F80
7C000F80
FC000F80
FC000FC0
FC000FC0
FC000FC0
FC000FC0
FC000FC0
FC000FC0
FC000FC0
FC000FC0
FC000FC0
FC000FC0
FC000FC0
FC000FC0
FC000FC0
FC000FC0
FC000FC0
FC000FC0
FC000FC0
FC000FC0
FC000F80
FC000F80
7C000F80
7C001F80
7E001F80
7E001F00
3F003F00
3F807F00
1FE1FE00
0FFFFC00
07FFF800
03FFF000
01FFE000
003F0000
003F0000
003F0000
003F0000
001F0000
001F0000
001F8000
001FC000
000FE070
0007FFF8
0007FFF8
0003FFF8
0000FFF8
00001F80
ENDCHAR
STARTCHAR R
ENCODING 82
SWIDTH 561 0
DWIDTH 36 0
BBX 30 44 5 0
BITMAP
7FFF8000
FFFFE000
FFFFF800
FFFFFC00
FFFFFE00
FC00FF00
FC003F80
FC001F80
FC000FC0
FC000FC0
FC0007C0
FC0007C0
FC0007C0
FC0007C0
FC0007C0
FC000FC0
FC000FC0
FC001F80
FC003F80
FC01FF00
FFFFFF00
FFFFFE00
FFFFF800
FFFFF000
FFFFF000
FC01F800
FC00F800
FC00FC00
FC007C00
FC007E00
FC003F00
FC003F00
FC001F80
FC001F80
FC000FC0
FC000FC0
FC0007E0
FC0007E0
FC0003F0
FC0003F0
FC0001F8
FC0001F8
FC0000FC
780000FC
ENDCHAR
STARTCHAR S
ENCODING 83
SWIDTH 561 0
DWIDTH 36 0
BBX 27 46 5 -1
BITMAP
00020000
007FFC00
03FFFF00
07FFFF00
1FFFFF00
3FF07F00
3F800600
7F000000
7E000000
FC000000
FC000000
FC000000
FC000000
FC000000
FC000000
7C000000
7E000000
7F000000
3FC00000
1FF00000
1FFF0000
0FFFE000
03FFF800
00FFFC00
003FFE00
0003FF00
00007F80
00001FC0
00000FC0
000007E0
000007E0
000003E0
000003E0
000003E0
000003E0
000007E0
000007C0
00000FC0
00001F80
30007F80
7F07FF00
7FFFFE00
FFFFFC00
7FFFF000
0FFF8000
00300000
ENDCHAR
STARTCHAR T
ENCODING 84
SWIDTH 561 0
DWIDTH 36 0
BBX 34 44 1 0
BITMAP
7FFFFFFF80
FFFFFFFFC0
FFFFFFFFC0
FFFFFFFFC0
7FFFFFFF80
0003F00000
0003F00000
0003F00000
0003F00000
0003F00000
0003F00000
0003F00000
0003F00000
0003F00000
0003F00000
0003F00000
0003F00000
0003F00000
0003F00000
0003F00000
0003F00000
0003F00000
0003F00000
0003F00000
0003F00000
0003F00000
0003F00000
0003F00000
0003F00000
0003F00000
0003F00000
0003F00000
0003F00000
0003F00000
0003F00000
0003F00000
0003F00000
0003F00000
0003F00000
0003F00000
0003F00000
0003F00000
0003F00000
0001E00000
ENDCHAR
STARTCHAR U
ENCODING 85
SWIDTH 561 0
DWIDTH 36 0
BBX 26 45 5 -1
BITMAP
78000780
FC000FC0
FC000FC0
FC000FC0
FC000FC0
FC000FC0
FC000FC0
FC000FC0
FC000FC0
FC000FC0
FC000FC0
FC000FC0
FC000FC0
FC000FC0
FC000FC0
FC000FC0
FC000FC0
FC000FC0
FC000FC0
FC000FC0
FC000FC0
FC000FC0
FC000FC0
FC000FC0
FC000FC0
FC000FC0
FC000FC0
FC000FC0
FC000FC0
FC000FC0
FC000FC0
FC000FC0
FC000FC0
FC000F80
7C000F80
7C000F80
7E001F80
7E001F80
3F003F00
3FE1FF00
1FFFFE00
0FFFFC00
07FFF800
01FFE000
000C0000
ENDCHAR
STARTCHAR V
ENCODING 86
SWIDTH 561 0
DWIDTH 36 0
BBX 34 45 1 -1
BITMAP
F8000007C0
F8000007C0
FC00000FC0
FC00000FC0
7C00000F80
7C00000F80
7E00001F80
7E00001F80
3E00001F00
3E00001F00
3F00003F00
3F00003F00
1F00003E00
1F00003E00
1F80007E00
1F80007E00
0F80007C00
0F80007C00
0FC000FC00
0FC000FC00
07C000F800
07C000F800
07E001F800
07E001F800
03E001F000
03E001F000
03F003F000
03F003F000
01F003E000
01F003E000
01F807E000
01F807E000
00F807C000
00F807C000
00FC0FC000
00FC0FC000
007C0F8000
007C0F8000
007E1F8000
007F3F0000
003FFF0000
003FFE0000
001FFE0000
0007F80000
0000C00000
ENDCHAR
STARTCHAR W
ENCODING 87
SWIDTH 561 0
DWIDTH 36 0
BBX 32 44 2 0
BITMAP
F800001F
F800001F
F800001F
F800001F
F800001F
F800001F
F800001F
F800001F
F800003F
FC00003F
FC00003F
FC00003F
FC00003F
FC00003F
FC00003F
FC00003F
FC00003F
FC00003F
FC00003F
FC03E03F
7C07E03F
7C0FF03E
7C0FF03E
7C1FF83E
7C1FF83E
7C3FF83E
7C3E7C3E
7C3E7C3E
7C7C3E3E
7C7C3E3E
7CF81F3E
7CF81F3E
7DF00FBE
7DF00FBE
7FE007FE
7FE007FE
7FC003FE
7FC003FE
7F8001FE
7F8001FE
7F0000FE
7F0000FE
7E00007E
3C00003C
ENDCHAR
STARTCHAR X
ENCODING 88
SWIDTH 561 0
DWIDTH 36 0
BBX 32 44 2 0
BITMAP
7800001E
7C00003E
7E00007E
3E00007C
3F0000FC
1F0000F8
1F0001F8
0F8001F0
0F8001F0
07C003F0
07C003E0
07E007E0
03E007C0
03F00FC0
01F00F80
01F81F80
00F81F00
00FC3F00
007C3E00
007E7E00
003FFC00
001FF800
001FF800
003FFC00
007E7E00
007C3E00
00FC3F00
00F81F00
01F81F80
01F00F80
03F00FC0
03E007C0
07E007E0
07C003E0
0FC003F0
0F8001F0
1F8001F8
1F0000F8
3F0000FC
3E00007C
7E00007E
7C00003E
FC00003F
F800001E
ENDCHAR
STARTCHAR Y
ENCODING 89
SWIDTH 561 0
DWIDTH 36 0
BBX 34 44 1 0
BITMAP
F800000780
FC00000FC0
7E00001F80
7E00001F80
3F00003F00
3F00003F00
1F80007E00
1F80007E00
0FC000FC00
0FC000FC00
07E001F800
07E001F800
03F003F000
03F003F000
01F807E000
01F807E000
00FC0FC000
00FC0FC000
007E1F8000
007E1F8000
003FFF0000
003FFF0000
001FFE0000
0007F80000
0003F00000
0003F00000
0003F00000
0003F00000
0003F00000
0003F00000
0003F00000
0003F00000
0003F00000
0003F00000
0003F00000
0003F00000
0003F00000
0003F00000
0003F00000
0003F00000
0003F00000
0003F00000
0003F00000
0001E00000
ENDCHAR
STARTCHAR Z
ENCODING 90
SWIDTH 561 0
DWIDTH 36 0
BBX 28 44 4 0
BITMAP
3FFFFFF0
3FFFFFF0
3FFFFFF0
3FFFFFF0
3FFFFFF0
000003F0
000003F0
000003E0
000003E0
000003E0
000007C0
00000FC0
00000F80
00001F80
00003F00
00007E00
0000FC00
0001F800
0003F000
0007E000
000FC000
001F8000
003F0000
007E0000
00FC0000
01F80000
03F00000
07E00000
0FC00000
1F800000
3F000000
3E000000
7E000000
7C000000
7C000000
7C000000
FC000000
F8000000
F8000000
FFFFFFE0
FFFFFFF0
FFFFFFF0
FFFFFFF0
FFFFFFF0
ENDCHAR
STARTCHAR bracketleft
ENCODING 91
SWIDTH 561 0
DWIDTH 36 0
BBX 22 58 9 -11
BITMAP
7FFFFC
FFFFFC
FFFFFC
FFFFFC
FFFFF8
FC0000
FC0000
FC0000
FC0000
FC0000
FC0000
FC0000
FC0000
FC0000
FC0000
FC0000
FC0000
FC0000
FC0000
FC0000
FC0000
FC0000
FC0000
FC0000
FC0000
FC0000
FC0000
FC0000
FC0000
FC0000
FC0000
FC0000
FC0000
FC0000
FC0000
FC0000
FC0000
FC0000
FC0000
FC0000
FC0000
FC0000
FC0000
FC0000
FC0000
FC0000
FC0000
FC0000
FC0000
FC0000
FC0000
FC0000
FC0000
FFFFF8
FFFFFC
FFFFFC
FFFFFC
7FFFFC
ENDCHAR
STARTCHAR backslash
ENCODING 92
SWIDTH 561 0
DWIDTH 36 0
BBX 31 56 3 -12
BITMAP
30000000
F8000000
F8000000
FC000000
FC000000
7E000000
7E000000
3F000000
3F000000
1F800000
1F800000
0FC00000
0FC00000
07E00000
07E00000
03F00000
03F00000
01F80000
01F80000
00FC0000
00FC0000
007E0000
007E0000
003F0000
003F0000
001F8000
001F8000
000FC000
000FC000
0007E000
0007E000
0003F000
0003F000
0001F800
0001F800
0000FC00
0000FC00
00007E00
00007E00
00003F00
00003F00
00001F80
00001F80
00000FC0
00000FC0
000007E0
000007E0
000003F0
000003F0
000001F8
000001F8
000000FC
000000FC
0000007E
0000007C
00000030
ENDCHAR
STARTCHAR bracketright
ENCODING 93
SWIDTH 561 0
DWIDTH 36 0
BBX 22 58 5 -11
BITMAP
FFFFF8
FFFFFC
FFFFFC
FFFFFC
FFFFFC
0000FC
0000FC
0000FC
0000FC
0000FC
0000FC
0000FC
0000FC
0000FC
0000FC
0000FC
0000FC
0000FC
0000FC
0000FC
0000FC
0000FC
0000FC
0000FC
0000FC
0000FC
0000FC
0000FC
0000FC
0000FC
0000FC
0000FC
0000FC
0000FC
0000FC
0000FC
0000FC
0000FC
0000FC
0000FC
0000FC
0000FC
0000FC
0000FC
0000FC
0000FC
0000FC
0000FC
0000FC
0000FC
0000FC
0000FC
0000FC
FFFFFC
FFFFFC
FFFFFC
FFFFFC
FFFFF8
ENDCHAR
STARTCHAR asciicircum
ENCODING 94
SWIDTH 561 0
DWIDTH 36 0
BBX 34 18 1 27
BITMAP
0001E00000
0003F00000
0007F80000
000FFC0000
001FFE0000
003F3F0000
00FE1F8000
01FC0FC000
03F807F000
07F003F800
0FE001FC00
1FC000FE00
3F80007F00
7F00003F80
FE00001FC0
FC00000FC0
7800000780
3000000300
ENDCHAR
STARTCHAR underscore
ENCODING 95
SWIDTH 561 0
DWIDTH 36 0
BBX 30 5 3 -5
BITMAP
7FFFFFF8
FFFFFFFC
FFFFFFFC
FFFFFFFC
FFFFFFF8
ENDCHAR
STARTCHAR grave
ENCODING 96
SWIDTH 561 0
DWIDTH 36 0
BBX 18 11 7 35
BITMAP
100000
3C0000
7F0000
7FC000
FFF000
FFFC00
3FFF00
07FFC0
00FFC0
001FC0
000380
ENDCHAR
STARTCHAR a
ENCODING 97
SWIDTH 561 0
DWIDTH 36 0
BBX 24 33 5 -1
BITMAP
000800
0FFFC0
1FFFF0
1FFFF8
1FFFFC
0F07FE
0000FE
00003F
00003F
00001F
00001F
00001F
00001F
00001F
007FFF
03FFFF
0FFFFF
3FFFFF
3FFFFF
7F801F
FE001F
FC001F
F8001F
F8001F
F8001F
FC001F
FE001F
7FE07F
3FFFFF
1FFFFF
0FFFFF
03FFFF
000C00
ENDCHAR
STARTCHAR b
ENCODING 98
SWIDTH 561 0
DWIDTH 36 0
BBX 26 48 5 -1
BITMAP
78000000
FC000000
FC000000
FC000000
FC000000
FC000000
FC000000
FC000000
FC000000
FC000000
FC000000
FC000000
FC000000
FC000000
FC000000
FC200000
FFFF8000
FFFFE000
FFFFF000
FFFFF800
FF0FFC00
FC01FE00
FC007F00
FC003F00
FC001F80
FC001F80
FC000F80
FC000F80
FC000F80
FC000FC0
FC000FC0
FC000FC0
FC000FC0
FC000FC0
FC000F80
FC000F80
FC000F80
FC001F80
FC001F80
FC003F00
FC007F00
FC00FE00
FF07FC00
FFFFF800
FFFFF000
7FFFE000
1FFF0000
00300000
ENDCHAR
STARTCHAR c
ENCODING 99
SWIDTH 561 0
DWIDTH 36 0
BBX 26 33 5 -1
BITMAP
00010000
007FFE00
01FFFF80
03FFFFC0
07FFFFC0
0FFC3F80
1FC00380
3F800000
3F000000
7E000000
7E000000
7C000000
7C000000
FC000000
FC000000
FC000000
FC000000
FC000000
FC000000
FC000000
7C000000
7C000000
7E000000
7E000000
3F000000
3F800000
1FC00380
0FF83F80
0FFFFFC0
03FFFFC0
01FFFF80
007FFC00
00018000
ENDCHAR
STARTCHAR d
ENCODING 100
SWIDTH 561 0
DWIDTH 36 0
BBX 26 48 5 -1
BITMAP
00000780
00000FC0
00000FC0
00000FC0
00000FC0
00000FC0
00000FC0
00000FC0
00000FC0
00000FC0
00000FC0
00000FC0
00000FC0
00000FC0
00000FC0
00010FC0
007FFFC0
01FFFFC0
03FFFFC0
07FFFFC0
0FFC3FC0
1FE00FC0
3F800FC0
3F000FC0
7E000FC0
7E000FC0
7C000FC0
7C000FC0
FC000FC0
FC000FC0
FC000FC0
FC000FC0
FC000FC0
FC000FC0
FC000FC0
7C000FC0
7C000FC0
7E000FC0
7E000FC0
3F000FC0
3F800FC0
1FC00FC0
0FF83FC0
0FFFFFC0
03FFFFC0
01FFFF80
007FFE00
00018000
ENDCHAR
STARTCHAR e
ENCODING 101
SWIDTH 561 0
DWIDTH 36 0
BBX 26 33 5 -1
BITMAP
00040000
00FFC000
01FFF000
07FFF800
0FFFFC00
1FF1FE00
1FC07F00
3F003F00
3E001F80
7E000F80
7C000F80
7C000F80
7FFFFFC0
FFFFFFC0
FFFFFFC0
FFFFFFC0
FFFFFF80
FC000000
FC000000
FC000000
7C000000
7C000000
7E000000
7E000000
3F000000
3F800000
1FE00380
0FFC3F80
0FFFFFC0
03FFFFC0
01FFFF80
007FFC00
00018000
ENDCHAR
STARTCHAR f
ENCODING 102
SWIDTH 561 0
DWIDTH 36 0
BBX 26 48 5 0
BITMAP
0000FC00
0007FF80
001FFFC0
003FFFC0
003FFFC0
007F0380
00FE0000
00FC0000
00F80000
00F80000
01F80000
01F80000
01F80000
01F80000
01F80000
01F80000
01F80000
FFFFFF00
FFFFFF00
FFFFFF00
FFFFFF00
FFFFFF00
01F80000
01F80000
01F80000
01F80000
01F80000
01F80000
01F80000
01F80000
01F80000
01F80000
01F80000
01F80000
01F80000
01F80000
01F80000
01F80000
01F80000
01F80000
01F80000
01F80000
01F80000
01F80000
01F80000
01F80000
01F80000
00F00000
ENDCHAR
STARTCHAR g
ENCODING 103
SWIDTH 561 0
DWIDTH 36 0
BBX 33 48 3 -16
BITMAP
0002000000
003FFFFC00
00FFFFFC00
03FFFFFC00
07FFFFFC00
0FF87FC000
0FE01FC000
1F800FE000
1F8007E000
1F0003E000
3F0003E000
3F0003F000
3F0003F000
1F0003E000
1F0003E000
1F8007E000
1FC00FE000
0FF03FC000
07FFFF8000
03FFFF0000
01FFFE0000
07FFFC0000
0FDFE00000
1F80000000
1F00000000
1F00000000
3F00000000
1FF0000000
1FFFFF8000
1FFFFFE000
07FFFFF800
0FFFFFFC00
1F03FFFE00
3E0000FF00
7C00003F00
7C00001F80
7800001F80
F800000F80
F800001F80
FC00001F80
FC00003F00
7F00007F00
7FC003FE00
3FFFFFFE00
1FFFFFF800
0FFFFFF000
03FFFFC000
003FFE0000
ENDCHAR
STARTCHAR h
ENCODING 104
SWIDTH 561 0
DWIDTH 36 0
BBX 26 47 5 0
BITMAP
78000000
FC000000
FC000000
FC000000
FC000000
FC000000
FC000000
FC000000
FC000000
FC000000
FC000000
FC000000
FC000000
FC000000
FC000000
FC080000
FFFFE000
FFFFF800
FFFFFE00
FFFFFF00
FF81FF00
FC003F80
FC001F80
FC001F80
FC000F80
FC000FC0
FC000FC0
FC000FC0
FC000FC0
FC000FC0
FC000FC0
FC000FC0
FC000FC0
FC000FC0
FC000FC0
FC000FC0
FC000FC0
FC000FC0
FC000FC0
FC000FC0
FC000FC0
FC000FC0
FC000FC0
FC000FC0
FC000FC0
FC000FC0
78000780
ENDCHAR
STARTCHAR i
ENCODING 105
SWIDTH 561 0
DWIDTH 36 0
BBX 26 47 5 0
BITMAP
007E0000
00FF0000
00FF0000
00FF0000
00FF0000
00FF0000
007E0000
00000000
00000000
00000000
00000000
00000000
00000000
00000000
00000000
00000000
1FFE0000
3FFF0000
3FFF0000
3FFF0000
1FFF0000
003F0000
003F0000
003F0000
003F0000
003F0000
003F0000
003F0000
003F0000
003F0000
003F0000
003F0000
003F0000
003F0000
003F0000
003F0000
003F0000
003F0000
003F0000
003F0000
003F0000
003F0000
7FFFFF80
FFFFFFC0
FFFFFFC0
FFFFFFC0
7FFFFF80
ENDCHAR
STARTCHAR j
ENCODING 106
SWIDTH 561 0
DWIDTH 36 0
BBX 26 57 5 -10
BITMAP
00001F80
00003FC0
00003FC0
00003FC0
00003FC0
00003FC0
00001F80
00000000
00000000
00000000
00000000
00000000
00000000
00000000
00000000
00000000
3FFFFF80
7FFFFFC0
7FFFFFC0
7FFFFFC0
3FFFFFC0
00000FC0
00000FC0
00000FC0
00000FC0
00000FC0
00000FC0
00000FC0
00000FC0
00000FC0
00000FC0
00000FC0
00000FC0
00000FC0
00000FC0
00000FC0
00000FC0
00000FC0
00000FC0
00000FC0
00000FC0
00000FC0
00000F80
00000F80
00000F80
00000F80
00001F80
00001F80
00003F00
00007F00
0000FE00
7803FE00
FFFFFC00
FFFFF800
FFFFE000
3FFFC000
07FE0000
ENDCHAR
STARTCHAR k
ENCODING 107
SWIDTH 561 0
DWIDTH 36 0
BBX 27 47 5 0
BITMAP
78000000
FC000000
FC000000
FC000000
FC000000
FC000000
FC000000
FC000000
FC000000
FC000000
FC000000
FC000000
FC000000
FC000000
FC000000
FC000000
FC001FC0
FC003FC0
FC007F80
FC00FF00
FC01FE00
FC03FC00
FC07F800
FC0FF000
FC1FE000
FC3FC000
FC7F8000
FCFF0000
FDFE0000
FFFC0000
FFF00000
FFF00000
FFFC0000
FCFE0000
FC7F0000
FC3F8000
FC1FC000
FC0FE000
FC07F000
FC03F800
FC01FC00
FC00FE00
FC007F00
FC003F80
FC001FC0
FC000FE0
780007E0
ENDCHAR
STARTCHAR l
ENCODING 108
SWIDTH 561 0
DWIDTH 36 0
BBX 26 48 5 -1
BITMAP
7FFC0000
7FFC0000
FFFC0000
FFFC0000
7FFC0000
007C0000
007C0000
007C0000
007C0000
007C0000
007C0000
007C0000
007C0000
007C0000
007C0000
007C0000
007C0000
007C0000
007C0000
007C0000
007C0000
007C0000
007C0000
007C0000
007C0000
007C0000
007C0000
007C0000
007C0000
007C0000
007C0000
007C0000
007C0000
007C0000
007C0000
007C0000
007C0000
007C0000
007C0000
007E0000
007E0000
007E0000
003F8380
003FFF80
001FFFC0
000FFFC0
0003FFC0
00001000
ENDCHAR
STARTCHAR m
ENCODING 109
SWIDTH 561 0
DWIDTH 36 0
BBX 30 32 3 0
BITMAP
00800400
7FFCFFC0
FFFFFFE0
FFFFFFF0
FFFFFFF8
FC7F87F8
FC1F81F8
FC0F80FC
FC0FC0FC
FC0FC0FC
FC0FC0FC
FC0FC0FC
FC0FC0FC
FC0FC0FC
FC0FC0FC
FC0FC0FC
FC0FC0FC
FC0FC0FC
FC0FC0FC
FC0FC0FC
FC0FC0FC
FC0FC0FC
FC0FC0FC
FC0FC0FC
FC0FC0FC
FC0FC0FC
FC0FC0FC
FC0FC0FC
FC0FC0FC
FC0FC0FC
F80FC0FC
F8078078
ENDCHAR
STARTCHAR n
ENCODING 110
SWIDTH 561 0
DWIDTH 36 0
BBX 26 32 5 0
BITMAP
00080000
7FFFE000
FFFFF800
FFFFFE00
FFFFFF00
FC01FF00
FC003F80
FC001F80
FC001F80
FC000F80
FC000FC0
FC000FC0
FC000FC0
FC000FC0
FC000FC0
FC000FC0
FC000FC0
FC000FC0
FC000FC0
FC000FC0
FC000FC0
FC000FC0
FC000FC0
FC000FC0
FC000FC0
FC000FC0
FC000FC0
FC000FC0
FC000FC0
FC000FC0
FC000FC0
78000780
ENDCHAR
STARTCHAR o
ENCODING 111
SWIDTH 561 0
DWIDTH 36 0
BBX 26 33 5 -1
BITMAP
00040000
00FFC000
03FFF000
07FFF800
0FFFFC00
1FE3FE00
1F807E00
3F003F00
3F003F00
7E001F80
7E001F80
7C000F80
7C000F80
FC000F80
FC000FC0
FC000FC0
FC000FC0
FC000FC0
FC000FC0
FC000F80
7C000F80
7C000F80
7E001F80
7E001F80
3F003F00
3F003F00
1F807E00
1FF3FE00
0FFFFC00
07FFF800
03FFF000
00FFC000
00040000
ENDCHAR
STARTCHAR p
ENCODING 112
SWIDTH 561 0
DWIDTH 36 0
BBX 26 48 5 -16
BITMAP
00200000
1FFF8000
7FFFE000
FFFFF000
FFFFF800
FF87FC00
FC00FE00
FC007F00
FC003F00
FC001F80
FC001F80
FC000F80
FC000F80
FC000F80
FC000FC0
FC000FC0
FC000FC0
FC000FC0
FC000FC0
FC000F80
FC000F80
FC000F80
FC001F80
FC001F80
FC003F00
FC007F00
FC01FE00
FE0FFC00
FFFFF800
FFFFF000
FFFFE000
FFFF0000
FC300000
FC000000
FC000000
FC000000
FC000000
FC000000
FC000000
FC000000
FC000000
FC000000
FC000000
FC000000
FC000000
FC000000
FC000000
78000000
ENDCHAR
STARTCHAR q
ENCODING 113
SWIDTH 561 0
DWIDTH 36 0
BBX 26 48 5 -16
BITMAP
00010000
007FFC00
01FFFF80
03FFFFC0
07FFFFC0
0FFC7FC0
1FC00FC0
3F800FC0
3F000FC0
7E000FC0
7E000FC0
7C000FC0
7C000FC0
FC000FC0
FC000FC0
FC000FC0
FC000FC0
FC000FC0
FC000FC0
FC000FC0
7C000FC0
7C000FC0
7E000FC0
7E000FC0
3F000FC0
3F800FC0
1FE00FC0
0FFC1FC0
0FFFFFC0
03FFFFC0
01FFFFC0
007FFFC0
00010FC0
00000FC0
00000FC0
00000FC0
00000FC0
00000FC0
00000FC0
00000FC0
00000FC0
00000FC0
00000FC0
00000FC0
00000FC0
00000FC0
00000FC0
00000780
ENDCHAR
STARTCHAR r
ENCODING 114
SWIDTH 561 0
DWIDTH 36 0
BBX 26 32 5 0
BITMAP
00080000
7FFFF000
FFFFFC00
FFFFFE00
FFFFFF00
FC01FF80
FC003F80
FC001F80
FC000FC0
FC000FC0
FC000FC0
FC000780
FC000000
FC000000
FC000000
FC000000
FC000000
FC000000
FC000000
FC000000
FC000000
FC000000
FC000000
FC000000
FC000000
FC000000
FC000000
FC000000
FC000000
FC000000
FC000000
78000000
ENDCHAR
STARTCHAR s
ENCODING 115
SWIDTH 561 0
DWIDTH 36 0
BBX 23 33 6 -1
BITMAP
000800
03FFF8
0FFFF8
1FFFF8
3FFFF8
7FE0F0
7F0000
7E0000
7C0000
7C0000
7C0000
7E0000
7F0000
3FF000
1FFF80
0FFFE0
03FFF0
00FFF8
0003FC
0000FE
00007E
00003E
00003E
00003E
00003E
00007E
0000FE
7C07FC
7FFFF8
7FFFF0
FFFFE0
7FFF80
006000
ENDCHAR
STARTCHAR t
ENCODING 116
SWIDTH 561 0
DWIDTH 36 0
BBX 26 43 5 -1
BITMAP
00C00000
01F00000
01F00000
01F00000
01F00000
01F00000
01F00000
01F00000
01F00000
01F00000
01F00000
7FFFFE00
FFFFFF00
FFFFFF00
FFFFFF00
7FFFFE00
01F00000
01F00000
01F00000
01F00000
01F00000
01F00000
01F00000
01F00000
01F00000
01F00000
01F00000
01F00000
01F00000
01F00000
01F00000
01F00000
01F00000
01F00000
01F80000
01F80000
00FC0000
00FF0F80
007FFF80
003FFFC0
001FFFC0
0007FF00
00006000
ENDCHAR
STARTCHAR u
ENCODING 117
SWIDTH 561 0
DWIDTH 36 0
BBX 26 32 5 -1
BITMAP
78000780
FC000FC0
FC000FC0
FC000FC0
FC000FC0
FC000FC0
FC000FC0
FC000FC0
FC000FC0
FC000FC0
FC000FC0
FC000FC0
FC000FC0
FC000FC0
FC000FC0
FC000FC0
FC000FC0
FC000FC0
FC000FC0
FC000FC0
FC000FC0
FC000FC0
7C000FC0
7C000FC0
7E000FC0
7F000FC0
3FE00FC0
3FFFFFC0
1FFFFFC0
07FFFFC0
01FFFF80
00070000
ENDCHAR
STARTCHAR v
ENCODING 118
SWIDTH 561 0
DWIDTH 36 0
BBX 28 32 4 -1
BITMAP
F80001F0
FC0003F0
FC0003F0
7C0003E0
7C0003E0
7E0007E0
7E0007E0
3E0007C0
3E0007C0
3F000FC0
3F000FC0
1F000F80
1F000F80
1F801F80
1F801F80
0F801F00
0F801F00
0FC03F00
0FC03F00
07C03E00
07C03E00
07E07E00
07E07E00
03E07C00
03E07C00
03F0FC00
03F9F800
01FFF800
01FFF000
00FFF000
003FC000
00060000
ENDCHAR
STARTCHAR w
ENCODING 119
SWIDTH 561 0
DWIDTH 36 0
BBX 32 31 2 0
BITMAP
F800001F
F800001F
F800001F
F800001F
F800001F
F800001F
FC03C03F
FC07E03F
FC07E03F
FC0FF03F
FC0FF03F
FC1FF83F
FC1FF83F
FC3E7C3F
7C3E7C3E
7C7C3E3E
7C7C3E3E
7CF81F3E
7CF81F3E
7DF00FBE
7DF00FBE
7FE007FE
7FE007FE
7FC003FE
7FC003FE
7F8001FE
7F8001FE
7F0000FE
7F0000FE
7E00007E
3C00003C
ENDCHAR
STARTCHAR x
ENCODING 120
SWIDTH 561 0
DWIDTH 36 0
BBX 26 31 5 0
BITMAP
7C000F80
7C000F80
7E001F80
3E001F00
3F003F00
1F003E00
1F807E00
0F807C00
0FC0FC00
07C0F800
07E1F800
03E1F000
03F3F000
01FFE000
00FFC000
00FFC000
01FFE000
03F3F000
03E1F000
07E1F800
07C0F800
0FC0FC00
0F807C00
1F807E00
1F003E00
3F003F00
3E001F00
7E001F80
7C000F80
FC000FC0
F8000780
ENDCHAR
STARTCHAR y
ENCODING 121
SWIDTH 561 0
DWIDTH 36 0
BBX 30 47 2 -16
BITMAP
3E00007C
3F0000FC
3F0000FC
1F0000F8
1F0000F8
1F8001F8
1F8001F8
0F8001F0
0F8001F0
0FC003F0
0FC003F0
07C003E0
07C003E0
07E007E0
07E007E0
03E007C0
03E007C0
03F00FC0
03F00FC0
01F00F80
01F00F80
01F81F80
01F81F80
00F81F00
00F83F00
00FC3F00
00FE3F00
007FFE00
007FFE00
003FFE00
000FFE00
0000FC00
00007C00
0000FC00
0000F800
0000F800
0001F800
0001F000
0003F000
0003F000
0007E000
F01FC000
FFFFC000
FFFF8000
FFFF0000
FFFC0000
0FF00000
ENDCHAR
STARTCHAR z
ENCODING 122
SWIDTH 561 0
DWIDTH 36 0
BBX 26 31 5 0
BITMAP
3FFFFF80
3FFFFFC0
3FFFFFC0
3FFFFFC0
3FFFFFC0
00000F80
00001F80
00003F80
00007F00
0000FE00
0003FC00
0007F800
000FF000
001FE000
003F8000
007F0000
00FE0000
01FC0000
03F80000
07F00000
0FE00000
1FC00000
3F800000
7F000000
7E000000
FC000000
FFFFFF80
FFFFFFC0
FFFFFFC0
FFFFFFC0
7FFFFF80
ENDCHAR
STARTCHAR braceleft
ENCODING 123
SWIDTH 561 0
DWIDTH 36 0
BBX 28 58 4 -11
BITMAP
00007FF0
0001FFF0
0003FFF0
0007FFF0
000FFFF0
000FE000
000F8000
001F8000
001F8000
001F8000
001F8000
001F8000
001F8000
001F8000
001F8000
001F8000
001F8000
001F8000
001F8000
001F8000
001F8000
001F8000
001F8000
001F8000
001F0000
003F0000
007F0000
FFFE0000
FFFC0000
FFF80000
FFFC0000
FFFE0000
007F0000
001F0000
001F0000
001F8000
001F8000
001F8000
001F8000
001F8000
001F8000
001F8000
001F8000
001F8000
001F8000
001F8000
001F8000
001F8000
001F8000
001F8000
001F8000
000F8000
000FC000
000FFFF0
0007FFF0
0003FFF0
0001FFF0
00007FF0
ENDCHAR
STARTCHAR bar
ENCODING 124
SWIDTH 561 0
DWIDTH 36 0
BBX 6 58 15 -11
BITMAP
78
FC
FC
FC
FC
FC
FC
FC
FC
FC
FC
FC
FC
FC
FC
FC
FC
FC
FC
FC
FC
FC
FC
FC
FC
FC
FC
FC
FC
FC
FC
FC
FC
FC
FC
FC
FC
FC
FC
FC
FC
FC
FC
FC
FC
FC
FC
FC
FC
FC
FC
FC
FC
FC
FC
FC
FC
78
ENDCHAR
STARTCHAR braceright
ENCODING 125
SWIDTH 561 0
DWIDTH 36 0
BBX 28 58 4 -11
BITMAP
FFE00000
FFF80000
FFFC0000
FFFE0000
FFFF0000
007F0000
003F0000
001F0000
001F8000
001F8000
001F8000
001F8000
001F8000
001F8000
001F8000
001F8000
001F8000
001F8000
001F8000
001F8000
001F8000
001F8000
001F8000
001F8000
000F8000
000FC000
000FE000
0007FFF0
0003FFF0
0001FFF0
0003FFF0
0007FFF0
000FC000
000F8000
001F8000
001F8000
001F8000
001F8000
001F8000
001F8000
001F8000
001F8000
001F8000
001F8000
001F8000
001F8000
001F8000
001F8000
001F8000
001F8000
001F0000
003F0000
007F0000
FFFF0000
FFFE0000
FFFC0000
FFF80000
FFE00000
ENDCHAR
STARTCHAR asciitilde
ENCODING 126
SWIDTH 561 0
DWIDTH 36 0
BBX 32 14 2 9
BITMAP
03C00000
1FF80000
3FFC0000
3FFF000C
7FFF801F
7E3FC01F
7C0FE01F
F807F03E
F803FC3E
F801FFFE
7000FFFC
00007FFC
00001FF8
000007E0
ENDCHAR
STARTCHAR uni00A0
ENCODING 160
SWIDTH 561 0
DWIDTH 36 0
BBX 1 1 0 0
BITMAP
00
ENDCHAR
STARTCHAR exclamdown
ENCODING 161
SWIDTH 561 0
DWIDTH 36 0
BBX 6 45 15 -13
BITMAP
30
FC
FC
FC
FC
FC
30
00
00
00
00
00
00
00
78
FC
FC
FC
FC
FC
FC
FC
FC
FC
FC
FC
FC
FC
FC
FC
FC
FC
FC
FC
FC
FC
FC
FC
FC
FC
FC
FC
FC
FC
FC
ENDCHAR
STARTCHAR cent
ENCODING 162
SWIDTH 561 0
DWIDTH 36 0
BBX 26 54 5 -11
BITMAP
00060000
001F0000
001F0000
001F0000
001F0000
001F0000
001F0000
001F0000
001F0000
001F0000
001F0000
001F0000
007FFE00
01FFFF80
03FFFFC0
07FFFFC0
0FFC3F80
1FC00380
3F800000
3F000000
7E000000
7E000000
7C000000
7C000000
FC000000
FC000000
FC000000
FC000000
FC000000
FC000000
FC000000
7C000000
7C000000
7E000000
7E000000
3F000000
3F800000
1FC00380
0FF83F80
0FFFFFC0
03FFFFC0
01FFFF80
007FFE00
001FC000
001F0000
001F0000
001F0000
001F0000
001F0000
001F0000
001F0000
001F0000
001F0000
001F0000
ENDCHAR
STARTCHAR sterling
ENCODING 163
SWIDTH 561 0
DWIDTH 36 0
BBX 26 45 5 0
BITMAP
00010000
003FF800
007FFC00
00FFFE00
01FFFF00
03FC7F00
03F01F80
03F01F80
07E00F80
07E00FC0
07E00FC0
07E00FC0
07E00780
07E00000
07E00000
07E00000
07E00000
07E00000
07E00000
07E00000
07E00000
7FFFFE00
FFFFFE00
FFFFFE00
FFFFFE00
7FFFFE00
07E00000
07E00000
07E00000
07E00000
07E00000
07E00000
07E00000
07E00000
07E00000
07E00000
07E00000
07E00000
07E00000
07E00000
7FFFFF80
FFFFFFC0
FFFFFFC0
FFFFFFC0
7FFFFF80
ENDCHAR
STARTCHAR currency
ENCODING 164
SWIDTH 561 0
DWIDTH 36 0
BBX 32 31 2 0
BITMAP
3000000C
7C00003E
FE07E07F
FF3FFCFE
3FFFFFFC
1FFFFFF8
0FFFFFF0
07F81FE0
07E00FE0
07C003E0
0FC003F0
0F8001F0
0F8001F0
0F0001F0
0F0000F0
0F0000F0
0F0000F0
0F8001F0
0F8001F0
0FC003F0
07C003E0
07E00FE0
07F81FE0
0FFFFFF0
1FFFFFF8
3FFFFFFC
7F3FFCFE
FE07E07F
FC00003F
7800001E
3000000C
ENDCHAR
STARTCHAR yen
ENCODING 165
SWIDTH 561 0
DWIDTH 36 0
BBX 34 44 1 0
BITMAP
F800000780
FC00000FC0
7C00001F80
7E00001F80
3E00003F00
3F00003F00
1F00007E00
1F80007E00
0F80007C00
0FC000FC00
07C000F800
07E001F800
03E001F000
03F003F000
01F003E000
01F807E000
00F807C000
00FC0FC000
0FFC0FFC00
0FFE1FFC00
0FFFFFFC00
0FFFFFFC00
0FFFFFFC00
0000000000
0000000000
0000000000
0FFFFFFC00
0FFFFFFC00
0FFFFFFC00
0FFFFFFC00
0FFFFFFC00
0003F00000
0003F00000
0003F00000
0003F00000
0003F00000
0003F00000
0003F00000
0003F00000
0003F00000
0003F00000
0003F00000
0003F00000
0001E00000
ENDCHAR
STARTCHAR brokenbar
ENCODING 166
SWIDTH 561 0
DWIDTH 36 0
BBX 6 58 15 -11
BITMAP
78
FC
FC
FC
FC
FC
FC
FC
FC
FC
FC
FC
FC
FC
FC
FC
FC
FC
FC
FC
FC
FC
78
00
00
00
00
00
00
00
00
00
00
00
00
78
FC
FC
FC
FC
FC
FC
FC
FC
FC
FC
FC
FC
FC
FC
FC
FC
FC
FC
FC
FC
FC
78
ENDCHAR
STARTCHAR section
ENCODING 167
SWIDTH 561 0
DWIDTH 36 0
BBX 22 49 7 -4
BITMAP
001000
07FFF0
1FFFF0
3FFFF0
7FFFF0
7F81E0
FC0000
F80000
F80000
F80000
F80000
FC0000
FC0000
FE0000
7F8000
3FF000
1FFE00
0FFF80
0FFFE0
3FFFF0
7E1FF8
7C07FC
F801FC
F800FC
F8007C
F8007C
FC007C
FE00FC
7F81F8
7FF7F0
3FFFE0
0FFF80
03FFC0
007FE0
000FF0
0003F8
0001FC
0000FC
00007C
00007C
00007C
00007C
0000FC
0003FC
7FFFF8
FFFFF0
FFFFE0
FFFFC0
3FFE00
ENDCHAR
STARTCHAR dieresis
ENCODING 168
SWIDTH 561 0
DWIDTH 36 0
BBX 18 6 9 38
BITMAP
F807C0
F807C0
F807C0
F807C0
F807C0
F807C0
ENDCHAR
STARTCHAR copyright
ENCODING 169
SWIDTH 561 0
DWIDTH 36 0
BBX 32 33 2 7
BITMAP
000FF000
007FFE00
01FFFF80
03FFFFC0
07F81FE0
0FC003F0
1F8001F8
3E07E07C
3C1FF83C
7C3FFC3E
787FFC1E
F8FC381F
F0F0000F
F1E0000F
F1E0000F
F1E0000F
F1E0000F
F1E0000F
F1E0000F
F1E0000F
F1F0000F
F8FC381F
787FFC1E
7C3FFC3E
3C1FF83C
3E07E07C
1F8001F8
0FC003F0
07F81FE0
03FFFFC0
01FFFF80
007FFE00
000FF000
ENDCHAR
STARTCHAR ordfeminine
ENCODING 170
SWIDTH 561 0
DWIDTH 36 0
BBX 23 26 6 22
BITMAP
001000
1FFFC0
1FFFF0
1FFFF8
1FFFFC
1F87FE
00007E
00007E
00003E
00003E
00003E
01FFFE
0FFFFE
3FFFFE
7FFFFE
7FFFFE
FE003E
FC003E
F8003E
FC003E
FE003E
7FFFFE
7FFFFE
1FFFFE
0FFFFE
01FFF8
ENDCHAR
STARTCHAR guillemotleft
ENCODING 171
SWIDTH 561 0
DWIDTH 36 0
BBX 32 31 2 0
BITMAP
0006000C
000F001E
001F803F
003F807F
007F00FE
00FE01FC
01FC03F8
03F807F0
07F00FE0
0FE01FC0
1FC03F80
3F807F00
7F00FE00
FE01FC00
FC01F800
F801F000
FC01F800
FE01FC00
7F00FE00
3F807F00
1FC03F80
0FE01FC0
07F00FE0
03F807F0
01FC03F8
00FE01FC
007F00FE
003F807F
001F803F
000F801E
0006000C
ENDCHAR
STARTCHAR logicalnot
ENCODING 172
SWIDTH 561 0
DWIDTH 36 0
BBX 26 18 5 8
BITMAP
7FFFFF80
FFFFFFC0
FFFFFFC0
FFFFFFC0
7FFFFFC0
00000FC0
00000FC0
00000FC0
00000FC0
00000FC0
00000FC0
00000FC0
00000FC0
00000FC0
00000FC0
00000FC0
00000FC0
00000FC0
ENDCHAR
STARTCHAR registered
ENCODING 174
SWIDTH 561 0
DWIDTH 36 0
BBX 32 33 2 7
BITMAP
000FF000
007FFE00
01FFFF80
03FFFFC0
07F81FE0
0FC003F0
1F8001F8
3E00007C
3C00003C
7C3FF83E
787FFC1E
F87FFE1F
F07FFF0F
F0780F0F
F0780F0F
F07FFF0F
F07FFE0F
F07FFC0F
F07FF80F
F079F00F
F078F80F
F8787C1F
78783E1E
7C781E3E
3C300E3C
3E00007C
1F8001F8
0FC003F0
07F81FE0
03FFFFC0
01FFFF80
007FFE00
000FF000
ENDCHAR
STARTCHAR macron
ENCODING 175
SWIDTH 561 0
DWIDTH 36 0
BBX 18 5 9 39
BITMAP
FFFFC0
FFFFC0
FFFFC0
FFFFC0
FFFFC0
ENDCHAR
STARTCHAR degree
ENCODING 176
SWIDTH 561 0
DWIDTH 36 0
BBX 22 23 7 22
BITMAP
00FC00
03FF80
0FFFC0
1FFFE0
3FFFF0
7F87F8
7E01F8
FC00FC
FC00FC
F8007C
F8007C
F8007C
F8007C
F8007C
F800FC
FC00FC
7E01F8
7F03F8
3FFFF0
1FFFE0
0FFFC0
07FF80
00FE00
ENDCHAR
STARTCHAR plusminus
ENCODING 177
SWIDTH 561 0
DWIDTH 36 0
BBX 30 40 3 -9
BITMAP
00078000
000FC000
000FC000
000FC000
000FC000
000FC000
000FC000
000FC000
000FC000
000FC000
000FC000
000FC000
000FC000
FFFFFFF8
FFFFFFFC
FFFFFFFC
FFFFFFFC
7FFFFFF8
000FC000
000FC000
000FC000
000FC000
000FC000
000FC000
000FC000
000FC000
000FC000
000FC000
000FC000
000FC000
00078000
00000000
00000000
00000000
00000000
7FFFFFF8
FFFFFFFC
FFFFFFFC
FFFFFFFC
7FFFFFF8
ENDCHAR
STARTCHAR uni00B2
ENCODING 178
SWIDTH 561 0
DWIDTH 36 0
BBX 23 26 7 22
BITMAP
001000
3FFFE0
7FFFF8
7FFFFC
7FFFFE
7F03FE
00007E
00003E
00003E
00007E
0001FE
00FFFC
07FFF8
1FFFF0
3FFFC0
7FFE00
FF0000
FC0000
F80000
F80000
F80000
FFFFFC
FFFFFE
FFFFFE
FFFFFE
FFFFFC
ENDCHAR
STARTCHAR uni00B3
ENCODING 179
SWIDTH 561 0
DWIDTH 36 0
BBX 22 27 7 21
BITMAP
002000
7FFFC0
7FFFF0
7FFFF8
7FFFF8
7F07FC
0000FC
00007C
00007C
0000FC
0001FC
07FFF8
07FFF0
07FFC0
07FFF0
07FFF8
0001FC
0000FC
00007C
00007C
00007C
6001FC
FFFFFC
FFFFF8
FFFFF0
FFFFC0
07FE00
ENDCHAR
STARTCHAR acute
ENCODING 180
SWIDTH 561 0
DWIDTH 36 0
BBX 18 11 11 35
BITMAP
000200
000F00
003F80
00FF80
03FF80
0FFFC0
3FFF00
FFF800
FFC000
FE0000
700000
ENDCHAR
STARTCHAR uni00B5
ENCODING 181
SWIDTH 561 0
DWIDTH 36 0
BBX 26 47 5 -16
BITMAP
78000780
FC000FC0
FC000FC0
FC000FC0
FC000FC0
FC000FC0
FC000FC0
FC000FC0
FC000FC0
FC000FC0
FC000FC0
FC000FC0
FC000FC0
FC000FC0
FC000FC0
FC000FC0
FC000FC0
FC000FC0
FC000FC0
FC000FC0
FC000FC0
FC000FC0
FC000FC0
FC000FC0
FE000FC0
FF000FC0
FFE00FC0
FFFFFFC0
FFFFFFC0
FFFFFFC0
FDFFFF80
FC070000
FC000000
FC000000
FC000000
FC000000
FC000000
FC000000
FC000000
FC000000
FC000000
FC000000
FC000000
FC000000
FC000000
FC000000
78000000
ENDCHAR
STARTCHAR paragraph
ENCODING 182
SWIDTH 561 0
DWIDTH 36 0
BBX 29 50 4 -6
BITMAP
01FF80F0
07FF81F8
1FFF81F8
3FFF81F8
3FFF81F8
7FFF81F8
7FFF81F8
FFFF81F8
FFFF81F8
FFFF81F8
FFFF81F8
FFFF81F8
FFFF81F8
FFFF81F8
FFFF81F8
FFFF81F8
FFFF81F8
7FFF81F8
7FFF81F8
3FFF81F8
3FFF81F8
1FFF81F8
07FF81F8
01FF81F8
000F81F8
000F81F8
000F81F8
000F81F8
000F81F8
000F81F8
000F81F8
000F81F8
000F81F8
000F81F8
000F81F8
000F81F8
000F81F8
000F81F8
000F81F8
000F81F8
000F81F8
000F81F8
000F81F8
000F81F8
000F81F8
000F81F8
000F81F8
000F81F8
000F81F0
000F81F0
ENDCHAR
STARTCHAR periodcentered
ENCODING 183
SWIDTH 561 0
DWIDTH 36 0
BBX 6 6 15 13
BITMAP
78
FC
FC
FC
FC
78
ENDCHAR
STARTCHAR cedilla
ENCODING 184
SWIDTH 561 0
DWIDTH 36 0
BBX 18 16 11 -15
BITMAP
078000
0F8000
0F0000
1F0000
1FFC00
0FFF00
07FF80
03FFC0
001FC0
000FC0
001FC0
003F80
7FFF00
FFFE00
FFF800
3FE000
ENDCHAR
STARTCHAR uni00B9
ENCODING 185
SWIDTH 561 0
DWIDTH 36 0
BBX 14 26 7 22
BITMAP
0010
007C
007C
00FC
01FC
07FC
7FFC
FFFC
FFFC
FFFC
7FFC
00FC
00FC
00FC
00FC
00FC
00FC
00FC
00FC
00FC
00FC
00FC
00FC
00FC
00FC
0078
ENDCHAR
STARTCHAR ordmasculine
ENCODING 186
SWIDTH 561 0
DWIDTH 36 0
BBX 24 27 6 21
BITMAP
001000
03FFC0
0FFFF0
1FFFF8
3FFFFC
3FC3FC
7E007E
7C003E
7C003E
FC003F
FC003F
F8003F
F8001F
F8001F
F8001F
F8001F
FC003F
FC003F
FC003E
7C003E
7E007E
7F00FE
3FFFFC
1FFFF8
1FFFF0
07FFE0
00FF00
ENDCHAR
STARTCHAR guillemotright
ENCODING 187
SWIDTH 561 0
DWIDTH 36 0
BBX 32 31 2 0
BITMAP
30006000
7801F000
FC01F800
FE01FC00
7F00FE00
3F807F00
1FC03F80
0FE01FC0
07F00FE0
03F807F0
01FC03F8
00FE01FC
007F00FE
003F807F
001F803F
000F801F
001F803F
003F807F
007F00FE
00FE01FC
01FC03F8
03F807F0
07F00FE0
0FE01FC0
1FC03F80
3F807F00
7F00FE00
FE01FC00
FC01F800
7801F000
30006000
ENDCHAR
STARTCHAR onequarter
ENCODING 188
SWIDTH 561 0
DWIDTH 36 0
BBX 30 63 3 -16
BITMAP
00038000
0007C000
000FC000
001FC000
007FC000
07FFC000
0FFFC000
0FFFC000
0FFFC000
07FFC000
000FC000
000FC000
000FC000
000FC000
000FC000
000FC000
000FC000
000FC000
000FC000
000FC000
000FC000
000FC000
000FC000
000FC000
000FC000
00078000
00000000
00000000
00000000
7FFFFFF8
FFFFFFFC
FFFFFFFC
FFFFFFFC
FFFFFFF8
00000000
00000000
00000000
00000000
07C00000
0FC00000
0FC00000
0FC00000
0FC00000
0FC00000
0FC0F800
0FC0F800
0FC0F800
0FC0F800
0FC0F800
0FC0F800
0FC0F800
0FC0F800
0FFFFFF0
0FFFFFF0
0FFFFFF0
0FFFFFF0
07FFFFE0
0000F800
0000F800
0000F800
0000F800
0000F800
0000F800
ENDCHAR
STARTCHAR onehalf
ENCODING 189
SWIDTH 561 0
DWIDTH 36 0
BBX 30 63 3 -16
BITMAP
00038000
0007C000
000FC000
001FC000
007FC000
07FFC000
0FFFC000
0FFFC000
0FFFC000
07FFC000
000FC000
000FC000
000FC000
000FC000
000FC000
000FC000
000FC000
000FC000
000FC000
000FC000
000FC000
000FC000
000FC000
000FC000
000FC000
00078000
00000000
00000000
00000000
7FFFFFF8
FFFFFFFC
FFFFFFFC
FFFFFFFC
FFFFFFF8
00000000
00000000
00000000
001FF000
07FFFE00
07FFFF80
07FFFFC0
07FFFFE0
03000FE0
000003E0
000003E0
000003E0
000007E0
00007FE0
001FFFC0
00FFFF80
01FFFF00
03FFFC00
07FFC000
0FF00000
0FC00000
0F800000
0F800000
0F800000
0FFFFFC0
0FFFFFE0
0FFFFFE0
0FFFFFE0
0FFFFFC0
ENDCHAR
STARTCHAR threequarters
ENCODING 190
SWIDTH 561 0
DWIDTH 36 0
BBX 30 63 3 -16
BITMAP
00FFF000
07FFFE00
07FFFF00
07FFFF80
07FFFFC0
02000FC0
000007C0
000007C0
000007C0
00001FC0
007FFF80
007FFF00
007FFC00
007FFE00
007FFF80
00001F80
00000FC0
000007C0
000007C0
000007C0
04000FC0
0FFFFFC0
0FFFFF80
0FFFFF00
0FFFFE00
00FFF000
00000000
00000000
00000000
7FFFFFF8
FFFFFFFC
FFFFFFFC
FFFFFFFC
FFFFFFF8
00000000
00000000
00000000
00000000
07C00000
0FC00000
0FC00000
0FC00000
0FC00000
0FC00000
0FC0F800
0FC0F800
0FC0F800
0FC0F800
0FC0F800
0FC0F800
0FC0F800
0FC0F800
0FFFFFF0
0FFFFFF0
0FFFFFF0
0FFFFFF0
07FFFFE0
0000F800
0000F800
0000F800
0000F800
0000F800
0000F800
ENDCHAR
STARTCHAR questiondown
ENCODING 191
SWIDTH 561 0
DWIDTH 36 0
BBX 27 44 5 -13
BITMAP
00007800
0000FC00
0000FC00
0000FC00
0000FC00
00007800
00000000
00000000
00000000
00000000
00000000
00000000
00000000
0000F800
0000FC00
0000FC00
0000FC00
0000FC00
0000FC00
0000FC00
000FFC00
00FFFC00
07FFFC00
0FFFFC00
1FFFF800
3FE00000
7F800000
7E000000
FC000000
FC000000
FC000000
FC000000
FC000000
7C000000
7E000000
3F800000
3FC00000
1FF80000
0FFFC000
03FFFFE0
00FFFFE0
003FFFE0
0007FFE0
00001FE0
ENDCHAR
STARTCHAR Agrave
ENCODING 192
SWIDTH 561 0
DWIDTH 36 0
BBX 34 59 1 0
BITMAP
0040000000
00F0000000
01FC000000
01FF000000
03FFC00000
03FFF00000
00FFFC0000
001FFF0000
0003FF0000
00007F0000
00000E0000
0000000000
0000000000
0000000000
0000800000
0007F80000
001FFE0000
003FFE0000
003FFF0000
007F3F0000
007E1F8000
007C0F8000
007C0F8000
00FC0F8000
00FC0FC000
00F807C000
00F807C000
01F807C000
01F807E000
01F003E000
01F003E000
03F003E000
03F003F000
03E001F000
03E001F000
07E001F000
07E001F800
07C000F800
07C000F800
0FC000F800
0FFFFFFC00
0FFFFFFC00
0FFFFFFC00
1FFFFFFC00
1FFFFFFE00
1F00003E00
1F00003E00
3F00003E00
3F00003F00
3E00001F00
3E00001F00
7E00001F00
7E00001F80
7C00000F80
7C00000F80
FC00000F80
FC00000FC0
F8000007C0
F8000007C0
ENDCHAR
STARTCHAR Aacute
ENCODING 193
SWIDTH 561 0
DWIDTH 36 0
BBX 34 59 1 0
BITMAP
0000008000
000003C000
00000FE000
00003FE000
0000FFE000
0003FFF000
000FFFC000
003FFE0000
003FF00000
003F800000
001C000000
0000000000
0000000000
0000000000
0000800000
0007F80000
001FFE0000
003FFE0000
003FFF0000
007F3F0000
007E1F8000
007C0F8000
007C0F8000
00FC0F8000
00FC0FC000
00F807C000
00F807C000
01F807C000
01F807E000
01F003E000
01F003E000
03F003E000
03F003F000
03E001F000
03E001F000
07E001F000
07E001F800
07C000F800
07C000F800
0FC000F800
0FFFFFFC00
0FFFFFFC00
0FFFFFFC00
1FFFFFFC00
1FFFFFFE00
1F00003E00
1F00003E00
3F00003E00
3F00003F00
3E00001F00
3E00001F00
7E00001F00
7E00001F80
7C00000F80
7C00000F80
FC00000F80
FC00000FC0
F8000007C0
F8000007C0
ENDCHAR
STARTCHAR Acircumflex
ENCODING 194
SWIDTH 561 0
DWIDTH 36 0
BBX 34 57 1 0
BITMAP
0001E00000
0007F80000
000FFC0000
003FFF0000
007FFF8000
01FF3FE000
03FC0FF000
03F807F000
03F003F000
01C000E000
0000000000
0000000000
0000800000
0007F80000
001FFE0000
003FFE0000
003FFF0000
007F3F0000
007E1F8000
007C0F8000
007C0F8000
00FC0F8000
00FC0FC000
00F807C000
00F807C000
01F807C000
01F807E000
01F003E000
01F003E000
03F003E000
03F003F000
03E001F000
03E001F000
07E001F000
07E001F800
07C000F800
07C000F800
0FC000F800
0FFFFFFC00
0FFFFFFC00
0FFFFFFC00
1FFFFFFC00
1FFFFFFE00
1F00003E00
1F00003E00
3F00003E00
3F00003F00
3E00001F00
3E00001F00
7E00001F00
7E00001F80
7C00000F80
7C00000F80
FC00000F80
FC00000FC0
F8000007C0
F8000007C0
ENDCHAR
STARTCHAR Atilde
ENCODING 195
SWIDTH 561 0
DWIDTH 36 0
BBX 34 57 1 0
BITMAP
003C000000
00FF000000
01FFC07000
03FFF0F800
07FFFFF800
07C3FFF000
0380FFE000
00007FC000
00001F0000
0000000000
0000000000
0000000000
0000800000
0007F80000
001FFE0000
003FFE0000
003FFF0000
007F3F0000
007E1F8000
007C0F8000
007C0F8000
00FC0F8000
00FC0FC000
00F807C000
00F807C000
01F807C000
01F807E000
01F003E000
01F003E000
03F003E000
03F003F000
03E001F000
03E001F000
07E001F000
07E001F800
07C000F800
07C000F800
0FC000F800
0FFFFFFC00
0FFFFFFC00
0FFFFFFC00
1FFFFFFC00
1FFFFFFE00
1F00003E00
1F00003E00
3F00003E00
3F00003F00
3E00001F00
3E00001F00
7E00001F00
7E00001F80
7C00000F80
7C00000F80
FC00000F80
FC00000FC0
F8000007C0
F8000007C0
ENDCHAR
STARTCHAR Adieresis
ENCODING 196
SWIDTH 561 0
DWIDTH 36 0
BBX 34 57 1 0
BITMAP
00F807C000
00F807C000
00F807C000
00F807C000
00F807C000
00F807C000
0000000000
0000000000
0000000000
0000000000
0000000000
0000000000
0000800000
0007F80000
001FFE0000
003FFE0000
003FFF0000
007F3F0000
007E1F8000
007C0F8000
007C0F8000
00FC0F8000
00FC0FC000
00F807C000
00F807C000
01F807C000
01F807E000
01F003E000
01F003E000
03F003E000
03F003F000
03E001F000
03E001F000
07E001F000
07E001F800
07C000F800
07C000F800
0FC000F800
0FFFFFFC00
0FFFFFFC00
0FFFFFFC00
1FFFFFFC00
1FFFFFFE00
1F00003E00
1F00003E00
3F00003E00
3F00003F00
3E00001F00
3E00001F00
7E00001F00
7E00001F80
7C00000F80
7C00000F80
FC00000F80
FC00000FC0
F8000007C0
F8000007C0
ENDCHAR
STARTCHAR Aring
ENCODING 197
SWIDTH 561 0
DWIDTH 36 0
BBX 34 58 1 0
BITMAP
0003F00000
000FFC0000
001FFE0000
001FFE0000
003F3F0000
003E1F0000
003E1F0000
003F3F0000
001FFE0000
001FFE0000
000FFC0000
0003F00000
0000000000
0000800000
0007F80000
001FFE0000
003FFE0000
003FFF0000
007F3F0000
007E1F8000
007C0F8000
007C0F8000
00FC0F8000
00FC0FC000
00F807C000
00F807C000
01F807C000
01F807E000
01F003E000
01F003E000
03F003E000
03F003F000
03E001F000
03E001F000
07E001F000
07E001F800
07C000F800
07C000F800
0FC000F800
0FFFFFFC00
0FFFFFFC00
0FFFFFFC00
1FFFFFFC00
1FFFFFFE00
1F00003E00
1F00003E00
3F00003E00
3F00003F00
3E00001F00
3E00001F00
7E00001F00
7E00001F80
7C00000F80
7C00000F80
FC00000F80
FC00000FC0
F8000007C0
F8000007C0
ENDCHAR
STARTCHAR AE
ENCODING 198
SWIDTH 561 0
DWIDTH 36 0
BBX 31 44 1 0
BITMAP
0007FFFC
001FFFFE
003FFFFE
003FFFFE
007F7FFC
007E7C00
007C7C00
007C7C00
00FC7C00
00FC7C00
00F87C00
00F87C00
01F87C00
01F87C00
01F07C00
01F07C00
03F07C00
03F07C00
03E07C00
03E07FFC
07E07FFC
07E07FFC
07C07FFC
07C07FFC
0FC07C00
0FC07C00
0F807C00
0F807C00
1FFFFC00
1FFFFC00
1FFFFC00
1FFFFC00
3FFFFC00
3F007C00
3E007C00
3E007C00
7E007C00
7E007C00
7C007C00
7C007FFE
FC007FFE
FC007FFE
F8007FFE
F8007FFE
ENDCHAR
STARTCHAR Ccedilla
ENCODING 199
SWIDTH 561 0
DWIDTH 36 0
BBX 27 61 5 -16
BITMAP
00008000
001FFE00
00FFFF80
01FFFFC0
03FFFFC0
07FC3F80
0FE00380
1FC00000
1F800000
3F000000
3E000000
3E000000
7E000000
7C000000
7C000000
7C000000
FC000000
FC000000
FC000000
FC000000
FC000000
FC000000
FC000000
FC000000
FC000000
FC000000
FC000000
FC000000
FC000000
FC000000
7C000000
7C000000
7C000000
7E000000
7E000000
3F000000
3F000000
1F800000
1FC00000
0FE00380
07FC3F80
03FFFFC0
01FFFFC0
00FFFF80
003FFE00
0007E000
00078000
000F8000
000F0000
000FFE00
0007FF80
0007FFC0
0003FFE0
00000FE0
000007E0
00000FE0
00001FC0
003FFF80
007FFF00
007FFC00
001FF000
ENDCHAR
STARTCHAR Egrave
ENCODING 200
SWIDTH 561 0
DWIDTH 36 0
BBX 27 59 5 0
BITMAP
04000000
0F000000
1FC00000
1FF00000
3FFC0000
3FFF0000
0FFFC000
01FFF000
003FF000
0007F000
0000E000
00000000
00000000
00000000
00000000
7FFFFFC0
FFFFFFC0
FFFFFFC0
FFFFFFC0
FFFFFF80
FC000000
FC000000
FC000000
FC000000
FC000000
FC000000
FC000000
FC000000
FC000000
FC000000
FC000000
FC000000
FC000000
FC000000
FFFFFF00
FFFFFF80
FFFFFF80
FFFFFF80
FFFFFF00
FC000000
FC000000
FC000000
FC000000
FC000000
FC000000
FC000000
FC000000
FC000000
FC000000
FC000000
FC000000
FC000000
FC000000
FC000000
FFFFFFE0
FFFFFFE0
FFFFFFE0
FFFFFFE0
7FFFFFE0
ENDCHAR
STARTCHAR Eacute
ENCODING 201
SWIDTH 561 0
DWIDTH 36 0
BBX 27 59 5 0
BITMAP
00000800
00003C00
0000FE00
0003FE00
000FFE00
003FFF00
00FFFC00
03FFE000
03FF0000
03F80000
01C00000
00000000
00000000
00000000
00000000
7FFFFFC0
FFFFFFC0
FFFFFFC0
FFFFFFC0
FFFFFF80
FC000000
FC000000
FC000000
FC000000
FC000000
FC000000
FC000000
FC000000
FC000000
FC000000
FC000000
FC000000
FC000000
FC000000
FFFFFF00
FFFFFF80
FFFFFF80
FFFFFF80
FFFFFF00
FC000000
FC000000
FC000000
FC000000
FC000000
FC000000
FC000000
FC000000
FC000000
FC000000
FC000000
FC000000
FC000000
FC000000
FC000000
FFFFFFE0
FFFFFFE0
FFFFFFE0
FFFFFFE0
7FFFFFE0
ENDCHAR
STARTCHAR Ecircumflex
ENCODING 202
SWIDTH 561 0
DWIDTH 36 0
BBX 27 57 5 0
BITMAP
001E0000
007F8000
00FFC000
03FFF000
07FFF800
1FF3FE00
3FC0FF00
3F807F00
3F003F00
1C000E00
00000000
00000000
00000000
7FFFFFC0
FFFFFFC0
FFFFFFC0
FFFFFFC0
FFFFFF80
FC000000
FC000000
FC000000
FC000000
FC000000
FC000000
FC000000
FC000000
FC000000
FC000000
FC000000
FC000000
FC000000
FC000000
FFFFFF00
FFFFFF80
FFFFFF80
FFFFFF80
FFFFFF00
FC000000
FC000000
FC000000
FC000000
FC000000
FC000000
FC000000
FC000000
FC000000
FC000000
FC000000
FC000000
FC000000
FC000000
FC000000
FFFFFFE0
FFFFFFE0
FFFFFFE0
FFFFFFE0
7FFFFFE0
ENDCHAR
STARTCHAR Edieresis
ENCODING 203
SWIDTH 561 0
DWIDTH 36 0
BBX 27 57 5 0
BITMAP
0F807C00
0F807C00
0F807C00
0F807C00
0F807C00
0F807C00
00000000
00000000
00000000
00000000
00000000
00000000
00000000
7FFFFFC0
FFFFFFC0
FFFFFFC0
FFFFFFC0
FFFFFF80
FC000000
FC000000
FC000000
FC000000
FC000000
FC000000
FC000000
FC000000
FC000000
FC000000
FC000000
FC000000
FC000000
FC000000
FFFFFF00
FFFFFF80
FFFFFF80
FFFFFF80
FFFFFF00
FC000000
FC000000
FC000000
FC000000
FC000000
FC000000
FC000000
FC000000
FC000000
FC000000
FC000000
FC000000
FC000000
FC000000
FC000000
FFFFFFE0
FFFFFFE0
FFFFFFE0
FFFFFFE0
7FFFFFE0
ENDCHAR
STARTCHAR Igrave
ENCODING 204
SWIDTH 561 0
DWIDTH 36 0
BBX 26 59 5 0
BITMAP
04000000
0F000000
1FC00000
1FF00000
3FFC0000
3FFF0000
0FFFC000
01FFF000
003FF000
0007F000
0000E000
00000000
00000000
00000000
00000000
7FFFFF80
7FFFFF80
7FFFFF80
7FFFFF80
7FFFFF00
003F0000
003F0000
003F0000
003F0000
003F0000
003F0000
003F0000
003F0000
003F0000
003F0000
003F0000
003F0000
003F0000
003F0000
003F0000
003F0000
003F0000
003F0000
003F0000
003F0000
003F0000
003F0000
003F0000
003F0000
003F0000
003F0000
003F0000
003F0000
003F0000
003F0000
003F0000
003F0000
003F0000
003F0000
7FFFFF80
FFFFFFC0
FFFFFFC0
FFFFFFC0
7FFFFF80
ENDCHAR
STARTCHAR Iacute
ENCODING 205
SWIDTH 561 0
DWIDTH 36 0
BBX 26 59 5 0
BITMAP
00000800
00003C00
0000FE00
0003FE00
000FFE00
003FFF00
00FFFC00
03FFE000
03FF0000
03F80000
01C00000
00000000
00000000
00000000
00000000
7FFFFF80
7FFFFF80
7FFFFF80
7FFFFF80
7FFFFF00
003F0000
003F0000
003F0000
003F0000
003F0000
003F0000
003F0000
003F0000
003F0000
003F0000
003F0000
003F0000
003F0000
003F0000
003F0000
003F0000
003F0000
003F0000
003F0000
003F0000
003F0000
003F0000
003F0000
003F0000
003F0000
003F0000
003F0000
003F0000
003F0000
003F0000
003F0000
003F0000
003F0000
003F0000
7FFFFF80
FFFFFFC0
FFFFFFC0
FFFFFFC0
7FFFFF80
ENDCHAR
STARTCHAR Icircumflex
ENCODING 206
SWIDTH 561 0
DWIDTH 36 0
BBX 26 57 5 0
BITMAP
001E0000
007F8000
00FFC000
03FFF000
07FFF800
1FF3FE00
3FC0FF00
3F807F00
3F003F00
1C000E00
00000000
00000000
00000000
7FFFFF80
7FFFFF80
7FFFFF80
7FFFFF80
7FFFFF00
003F0000
003F0000
003F0000
003F0000
003F0000
003F0000
003F0000
003F0000
003F0000
003F0000
003F0000
003F0000
003F0000
003F0000
003F0000
003F0000
003F0000
003F0000
003F0000
003F0000
003F0000
003F0000
003F0000
003F0000
003F0000
003F0000
003F0000
003F0000
003F0000
003F0000
003F0000
003F0000
003F0000
003F0000
7FFFFF80
FFFFFFC0
FFFFFFC0
FFFFFFC0
7FFFFF80
ENDCHAR
STARTCHAR Idieresis
ENCODING 207
SWIDTH 561 0
DWIDTH 36 0
BBX 26 57 5 0
BITMAP
0F807C00
0F807C00
0F807C00
0F807C00
0F807C00
0F807C00
00000000
00000000
00000000
00000000
00000000
00000000
00000000
7FFFFF80
7FFFFF80
7FFFFF80
7FFFFF80
7FFFFF00
003F0000
003F0000
003F0000
003F0000
003F0000
003F0000
003F0000
003F0000
003F0000
003F0000
003F0000
003F0000
003F0000
003F0000
003F0000
003F0000
003F0000
003F0000
003F0000
003F0000
003F0000
003F0000
003F0000
003F0000
003F0000
003F0000
003F0000
003F0000
003F0000
003F0000
003F0000
003F0000
003F0000
003F0000
7FFFFF80
FFFFFFC0
FFFFFFC0
FFFFFFC0
7FFFFF80
ENDCHAR
STARTCHAR Eth
ENCODING 208
SWIDTH 561 0
DWIDTH 36 0
BBX 30 44 2 0
BITMAP
7FFE0000
FFFFE000
FFFFFC00
FFFFFF00
7FFFFF80
0FC0FFC0
0FC03FE0
0FC00FE0
0FC007F0
0FC003F0
0FC001F8
0FC001F8
0FC000F8
0FC000FC
0FC000FC
0FC0007C
0FC0007C
0FC0007C
0FC0007C
0FC0007C
7FFF807C
7FFFC07C
7FFFC07C
7FFFC07C
7FFF807C
0FC0007C
0FC0007C
0FC0007C
0FC0007C
0FC000FC
0FC000FC
0FC000F8
0FC001F8
0FC001F8
0FC003F8
0FC007F0
0FC00FF0
0FC01FE0
0FC0FFC0
0FFFFF80
0FFFFF00
0FFFFC00
0FFFF000
07FF0000
ENDCHAR
STARTCHAR Ntilde
ENCODING 209
SWIDTH 561 0
DWIDTH 36 0
BBX 28 57 4 0
BITMAP
01E00000
07F80000
0FFE0380
1FFF87C0
3FFFFFC0
3E1FFF80
1C07FF00
0003FE00
0000F800
00000000
00000000
00000000
00000000
780001E0
FC0003F0
FE0003F0
FE0003F0
FF0003F0
FF0003F0
FF8003F0
FF8003F0
FFC003F0
FFC003F0
FFE003F0
FFE003F0
FFF003F0
FDF003F0
FDF803F0
FCF803F0
FCFC03F0
FC7C03F0
FC7E03F0
FC3E03F0
FC3F03F0
FC1F03F0
FC1F83F0
FC0F83F0
FC0FC3F0
FC07C3F0
FC03E3F0
FC03E3F0
FC01F3F0
FC01F3F0
FC00FBF0
FC00FBF0
FC007FF0
FC007FF0
FC003FF0
FC003FF0
FC001FF0
FC001FF0
FC000FF0
FC000FF0
FC0007F0
FC0007F0
FC0003F0
780001E0
ENDCHAR
STARTCHAR Ograve
ENCODING 210
SWIDTH 561 0
DWIDTH 36 0
BBX 26 60 5 -1
BITMAP
04000000
0F000000
1FC00000
1FF00000
3FFC0000
3FFF0000
0FFFC000
01FFF000
003FF000
0007F000
0000E000
00000000
00000000
00000000
00080000
00FFC000
03FFF000
07FFF800
0FFFFC00
1FE3FE00
3F80FE00
3F003F00
3F003F00
7E001F80
7E001F80
7C000F80
7C000F80
FC000FC0
FC000FC0
FC000FC0
FC000FC0
FC000FC0
FC000FC0
FC000FC0
FC000FC0
FC000FC0
FC000FC0
FC000FC0
FC000FC0
FC000FC0
FC000FC0
FC000FC0
FC000FC0
FC000FC0
FC000FC0
FC000FC0
FC000F80
7C000F80
7C000F80
7E001F80
7E001F80
3F003F00
3F003F00
3F807E00
1FF3FE00
0FFFFC00
07FFF800
03FFF000
00FFC000
000C0000
ENDCHAR
STARTCHAR Oacute
ENCODING 211
SWIDTH 561 0
DWIDTH 36 0
BBX 26 60 5 -1
BITMAP
00000800
00003C00
0000FE00
0003FE00
000FFE00
003FFF00
00FFFC00
03FFE000
03FF0000
03F80000
01C00000
00000000
00000000
00000000
00080000
00FFC000
03FFF000
07FFF800
0FFFFC00
1FE3FE00
3F80FE00
3F003F00
3F003F00
7E001F80
7E001F80
7C000F80
7C000F80
FC000FC0
FC000FC0
FC000FC0
FC000FC0
FC000FC0
FC000FC0
FC000FC0
FC000FC0
FC000FC0
FC000FC0
FC000FC0
FC000FC0
FC000FC0
FC000FC0
FC000FC0
FC000FC0
FC000FC0
FC000FC0
FC000FC0
FC000F80
7C000F80
7C000F80
7E001F80
7E001F80
3F003F00
3F003F00
3F807E00
1FF3FE00
0FFFFC00
07FFF800
03FFF000
00FFC000
000C0000
ENDCHAR
STARTCHAR Ocircumflex
ENCODING 212
SWIDTH 561 0
DWIDTH 36 0
BBX 26 58 5 -1
BITMAP
001E0000
007F8000
00FFC000
03FFF000
07FFF800
1FF3FE00
3FC0FF00
3F807F00
3F003F00
1C000E00
00000000
00000000
00080000
00FFC000
03FFF000
07FFF800
0FFFFC00
1FE3FE00
3F80FE00
3F003F00
3F003F00
7E001F80
7E001F80
7C000F80
7C000F80
FC000FC0
FC000FC0
FC000FC0
FC000FC0
FC000FC0
FC000FC0
FC000FC0
FC000FC0
FC000FC0
FC000FC0
FC000FC0
FC000FC0
FC000FC0
FC000FC0
FC000FC0
FC000FC0
FC000FC0
FC000FC0
FC000FC0
FC000F80
7C000F80
7C000F80
7E001F80
7E001F80
3F003F00
3F003F00
3F807E00
1FF3FE00
0FFFFC00
07FFF800
03FFF000
00FFC000
000C0000
ENDCHAR
STARTCHAR Otilde
ENCODING 213
SWIDTH 561 0
DWIDTH 36 0
BBX 26 58 5 -1
BITMAP
03C00000
0FF00000
1FFC0700
3FFF0F80
7FFFFF80
7C3FFF00
380FFE00
0007FC00
0001F000
00000000
00000000
00000000
00080000
00FFC000
03FFF000
07FFF800
0FFFFC00
1FE3FE00
3F80FE00
3F003F00
3F003F00
7E001F80
7E001F80
7C000F80
7C000F80
FC000FC0
FC000FC0
FC000FC0
FC000FC0
FC000FC0
FC000FC0
FC000FC0
FC000FC0
FC000FC0
FC000FC0
FC000FC0
FC000FC0
FC000FC0
FC000FC0
FC000FC0
FC000FC0
FC000FC0
FC000FC0
FC000FC0
FC000F80
7C000F80
7C000F80
7E001F80
7E001F80
3F003F00
3F003F00
3F807E00
1FF3FE00
0FFFFC00
07FFF800
03FFF000
00FFC000
000C0000
ENDCHAR
STARTCHAR Odieresis
ENCODING 214
SWIDTH 561 0
DWIDTH 36 0
BBX 26 58 5 -1
BITMAP
0F807C00
0F807C00
0F807C00
0F807C00
0F807C00
0F807C00
00000000
00000000
00000000
00000000
00000000
00000000
00080000
00FFC000
03FFF000
07FFF800
0FFFFC00
1FE3FE00
3F80FE00
3F003F00
3F003F00
7E001F80
7E001F80
7C000F80
7C000F80
FC000FC0
FC000FC0
FC000FC0
FC000FC0
FC000FC0
FC000FC0
FC000FC0
FC000FC0
FC000FC0
FC000FC0
FC000FC0
FC000FC0
FC000FC0
FC000FC0
FC000FC0
FC000FC0
FC000FC0
FC000FC0
FC000FC0
FC000F80
7C000F80
7C000F80
7E001F80
7E001F80
3F003F00
3F003F00
3F807E00
1FF3FE00
0FFFFC00
07FFF800
03FFF000
00FFC000
000C0000
ENDCHAR
STARTCHAR multiply
ENCODING 215
SWIDTH 561 0
DWIDTH 36 0
BBX 28 33 4 -1
BITMAP
08000100
3C000380
7E0007E0
7E0007E0
3F000FC0
1F801F80
1FC03F80
0FE07F00
07E07E00
03F0FC00
01F9F800
01FFF800
00FFF000
007FE000
003FC000
003F8000
003FC000
007FC000
007FE000
00FFF000
01F9F800
03F9FC00
07F0FE00
07E07E00
0FC03F00
1F801F80
3F801FC0
7F000FE0
7E0007E0
FC0003F0
F80001F0
780001E0
10000080
ENDCHAR
STARTCHAR Oslash
ENCODING 216
SWIDTH 561 0
DWIDTH 36 0
BBX 31 56 2 -6
BITMAP
00000010
0000003C
0000003E
0000007E
0000007E
000100FC
001FF8FC
007FFEF8
00FFFFF8
01FFFFF8
03FE7FF0
07F01FF0
07E00FE0
07E007E0
0FC00FF0
0FC00FF0
0F801FF0
0F801FF0
1F803FF0
1F803FF8
1F807FF8
1F807DF8
1F80FDF8
1F80F9F8
1F81F9F8
1F81F1F8
1F83F1F8
1F83E1F8
1F87E1F8
1F87C1F8
1F8FC1F8
1F8F81F8
1F9F81F8
1F9F01F8
1FBF01F8
1FBE01F8
1FFE01F8
1FFC01F8
0FFC01F0
0FF801F0
0FF803F0
0FF003F0
07F007E0
07E007E0
07F00FC0
0FFE7FC0
0FFFFF80
1FFFFF00
1FFFFE00
3F1FF800
3F018000
7E000000
7E000000
7C000000
FC000000
38000000
ENDCHAR
STARTCHAR Ugrave
ENCODING 217
SWIDTH 561 0
DWIDTH 36 0
BBX 26 60 5 -1
BITMAP
04000000
0F000000
1FC00000
1FF00000
3FFC0000
3FFF0000
0FFFC000
01FFF000
003FF000
0007F000
0000E000
00000000
00000000
00000000
00000000
78000780
FC000FC0
FC000FC0
FC000FC0
FC000FC0
FC000FC0
FC000FC0
FC000FC0
FC000FC0
FC000FC0
FC000FC0
FC000FC0
FC000FC0
FC000FC0
FC000FC0
FC000FC0
FC000FC0
FC000FC0
FC000FC0
FC000FC0
FC000FC0
FC000FC0
FC000FC0
FC000FC0
FC000FC0
FC000FC0
FC000FC0
FC000FC0
FC000FC0
FC000FC0
FC000FC0
FC000FC0
FC000FC0
FC000F80
7C000F80
7C000F80
7E001F80
7E001F80
3F003F00
3FE1FF00
1FFFFE00
0FFFFC00
07FFF800
01FFE000
000C0000
ENDCHAR
STARTCHAR Uacute
ENCODING 218
SWIDTH 561 0
DWIDTH 36 0
BBX 26 60 5 -1
BITMAP
00000800
00003C00
0000FE00
0003FE00
000FFE00
003FFF00
00FFFC00
03FFE000
03FF0000
03F80000
01C00000
00000000
00000000
00000000
00000000
78000780
FC000FC0
FC000FC0
FC000FC0
FC000FC0
FC000FC0
FC000FC0
FC000FC0
FC000FC0
FC000FC0
FC000FC0
FC000FC0
FC000FC0
FC000FC0
FC000FC0
FC000FC0
FC000FC0
FC000FC0
FC000FC0
FC000FC0
FC000FC0
FC000FC0
FC000FC0
FC000FC0
FC000FC0
FC000FC0
FC000FC0
FC000FC0
FC000FC0
FC000FC0
FC000FC0
FC000FC0
FC000FC0
FC000F80
7C000F80
7C000F80
7E001F80
7E001F80
3F003F00
3FE1FF00
1FFFFE00
0FFFFC00
07FFF800
01FFE000
000C0000
ENDCHAR
STARTCHAR Ucircumflex
ENCODING 219
SWIDTH 561 0
DWIDTH 36 0
BBX 26 58 5 -1
BITMAP
001E0000
007F8000
00FFC000
03FFF000
07FFF800
1FF3FE00
3FC0FF00
3F807F00
3F003F00
1C000E00
00000000
00000000
00000000
78000780
FC000FC0
FC000FC0
FC000FC0
FC000FC0
FC000FC0
FC000FC0
FC000FC0
FC000FC0
FC000FC0
FC000FC0
FC000FC0
FC000FC0
FC000FC0
FC000FC0
FC000FC0
FC000FC0
FC000FC0
FC000FC0
FC000FC0
FC000FC0
FC000FC0
FC000FC0
FC000FC0
FC000FC0
FC000FC0
FC000FC0
FC000FC0
FC000FC0
FC000FC0
FC000FC0
FC000FC0
FC000FC0
FC000F80
7C000F80
7C000F80
7E001F80
7E001F80
3F003F00
3FE1FF00
1FFFFE00
0FFFFC00
07FFF800
01FFE000
000C0000
ENDCHAR
STARTCHAR Udieresis
ENCODING 220
SWIDTH 561 0
DWIDTH 36 0
BBX 26 58 5 -1
BITMAP
0F807C00
0F807C00
0F807C00
0F807C00
0F807C00
0F807C00
00000000
00000000
00000000
00000000
00000000
00000000
00000000
78000780
FC000FC0
FC000FC0
FC000FC0
FC000FC0
FC000FC0
FC000FC0
FC000FC0
FC000FC0
FC000FC0
FC000FC0
FC000FC0
FC000FC0
FC000FC0
FC000FC0
FC000FC0
FC000FC0
FC000FC0
FC000FC0
FC000FC0
FC000FC0
FC000FC0
FC000FC0
FC000FC0
FC000FC0
FC000FC0
FC000FC0
FC000FC0
FC000FC0
FC000FC0
FC000FC0
FC000FC0
FC000FC0
FC000F80
7C000F80
7C000F80
7E001F80
7E001F80
3F003F00
3FE1FF00
1FFFFE00
0FFFFC00
07FFF800
01FFE000
000C0000
ENDCHAR
STARTCHAR Yacute
ENCODING 221
SWIDTH 561 0
DWIDTH 36 0
BBX 34 59 1 0
BITMAP
0000008000
000003C000
00000FE000
00003FE000
0000FFE000
0003FFF000
000FFFC000
003FFE0000
003FF00000
003F800000
001C000000
0000000000
0000000000
0000000000
0000000000
F800000780
FC00000FC0
7E00001F80
7E00001F80
3F00003F00
3F00003F00
1F80007E00
1F80007E00
0FC000FC00
0FC000FC00
07E001F800
07E001F800
03F003F000
03F003F000
01F807E000
01F807E000
00FC0FC000
00FC0FC000
007E1F8000
007E1F8000
003FFF0000
003FFF0000
001FFE0000
0007F80000
0003F00000
0003F00000
0003F00000
0003F00000
0003F00000
0003F00000
0003F00000
0003F00000
0003F00000
0003F00000
0003F00000
0003F00000
0003F00000
0003F00000
0003F00000
0003F00000
0003F00000
0003F00000
0003F00000
0001E00000
ENDCHAR
STARTCHAR Thorn
ENCODING 222
SWIDTH 561 0
DWIDTH 36 0
BBX 26 44 5 0
BITMAP
78000000
FC000000
FC000000
FC000000
FFFF0000
FFFFE000
FFFFF800
FFFFFC00
FFFFFE00
FC00FF00
FC003F00
FC003F00
FC001F80
FC000F80
FC000F80
FC000F80
FC000F80
FC000FC0
FC000FC0
FC000FC0
FC000FC0
FC000FC0
FC000FC0
FC000F80
FC000F80
FC000F80
FC001F80
FC001F80
FC003F00
FC007F00
FC00FF00
FFFFFE00
FFFFFC00
FFFFF800
FFFFE000
FFFF8000
FC000000
FC000000
FC000000
FC000000
FC000000
FC000000
FC000000
78000000
ENDCHAR
STARTCHAR germandbls
ENCODING 223
SWIDTH 561 0
DWIDTH 36 0
BBX 26 47 6 0
BITMAP
00FF8000
03FFE000
0FFFF800
1FFFFC00
3FFFFC00
3F80FE00
7F003E00
7E003E00
7C001F00
7C001F00
FC003E00
FC003E00
FC007E00
FC007E00
FC00FC00
FC01FC00
FC03F800
FC03F000
FC07E000
FC07E000
FC07C000
FC07E000
FC07F000
FC03F800
FC03FC00
FC01FE00
FC007F00
FC003F80
FC001F80
FC000FC0
FC000FC0
FC0007C0
FC0007C0
FC0007C0
FC0007C0
FC0007C0
FC0007C0
FC000FC0
FC000FC0
FC001F80
FC003F80
FC00FF00
FC1FFF00
FC1FFE00
FC1FF800
FC1FF000
781F8000
ENDCHAR
STARTCHAR agrave
ENCODING 224
SWIDTH 561 0
DWIDTH 36 0
BBX 24 50 5 -1
BITMAP
040000
0F0000
1FC000
1FF000
3FFC00
3FFF00
0FFFC0
01FFF0
003FF0
0007F0
0000E0
000000
000000
000000
000000
000000
000000
000800
0FFFC0
1FFFF0
1FFFF8
1FFFFC
0F07FE
0000FE
00003F
00003F
00001F
00001F
00001F
00001F
00001F
007FFF
03FFFF
0FFFFF
3FFFFF
3FFFFF
7F801F
FE001F
FC001F
F8001F
F8001F
F8001F
FC001F
FE001F
7FE07F
3FFFFF
1FFFFF
0FFFFF
03FFFF
000C00
ENDCHAR
STARTCHAR aacute
ENCODING 225
SWIDTH 561 0
DWIDTH 36 0
BBX 24 50 5 -1
BITMAP
000008
00003C
0000FE
0003FE
000FFE
003FFF
00FFFC
03FFE0
03FF00
03F800
01C000
000000
000000
000000
000000
000000
000000
000800
0FFFC0
1FFFF0
1FFFF8
1FFFFC
0F07FE
0000FE
00003F
00003F
00001F
00001F
00001F
00001F
00001F
007FFF
03FFFF
0FFFFF
3FFFFF
3FFFFF
7F801F
FE001F
FC001F
F8001F
F8001F
F8001F
FC001F
FE001F
7FE07F
3FFFFF
1FFFFF
0FFFFF
03FFFF
000C00
ENDCHAR
STARTCHAR acircumflex
ENCODING 226
SWIDTH 561 0
DWIDTH 36 0
BBX 24 48 5 -1
BITMAP
001E00
007F80
00FFC0
03FFF0
07FFF8
1FF3FE
3FC0FF
3F807F
3F003F
1C000E
000000
000000
000000
000000
000000
000800
0FFFC0
1FFFF0
1FFFF8
1FFFFC
0F07FE
0000FE
00003F
00003F
00001F
00001F
00001F
00001F
00001F
007FFF
03FFFF
0FFFFF
3FFFFF
3FFFFF
7F801F
FE001F
FC001F
F8001F
F8001F
F8001F
FC001F
FE001F
7FE07F
3FFFFF
1FFFFF
0FFFFF
03FFFF
000C00
ENDCHAR
STARTCHAR atilde
ENCODING 227
SWIDTH 561 0
DWIDTH 36 0
BBX 25 48 5 -1
BITMAP
03C00000
0FF00000
1FFC0700
3FFF0F80
7FFFFF80
7C3FFF00
380FFE00
0007FC00
0001F000
00000000
00000000
00000000
00000000
00000000
00000000
00080000
0FFFC000
1FFFF000
1FFFF800
1FFFFC00
0F07FE00
0000FE00
00003F00
00003F00
00001F00
00001F00
00001F00
00001F00
00001F00
007FFF00
03FFFF00
0FFFFF00
3FFFFF00
3FFFFF00
7F801F00
FE001F00
FC001F00
F8001F00
F8001F00
F8001F00
FC001F00
FE001F00
7FE07F00
3FFFFF00
1FFFFF00
0FFFFF00
03FFFF00
000C0000
ENDCHAR
STARTCHAR adieresis
ENCODING 228
SWIDTH 561 0
DWIDTH 36 0
BBX 24 48 5 -1
BITMAP
0F807C
0F807C
0F807C
0F807C
0F807C
0F807C
000000
000000
000000
000000
000000
000000
000000
000000
000000
000800
0FFFC0
1FFFF0
1FFFF8
1FFFFC
0F07FE
0000FE
00003F
00003F
00001F
00001F
00001F
00001F
00001F
007FFF
03FFFF
0FFFFF
3FFFFF
3FFFFF
7F801F
FE001F
FC001F
F8001F
F8001F
F8001F
FC001F
FE001F
7FE07F
3FFFFF
1FFFFF
0FFFFF
03FFFF
000C00
ENDCHAR
STARTCHAR aring
ENCODING 229
SWIDTH 561 0
DWIDTH 36 0
BBX 24 49 5 -1
BITMAP
003F00
00FFC0
01FFE0
01FFE0
03F3F0
03E1F0
03E1F0
03F3F0
01FFE0
01FFE0
00FFC0
003F00
000000
000000
000000
000000
000800
0FFFC0
1FFFF0
1FFFF8
1FFFFC
0F07FE
0000FE
00003F
00003F
00001F
00001F
00001F
00001F
00001F
007FFF
03FFFF
0FFFFF
3FFFFF
3FFFFF
7F801F
FE001F
FC001F
F8001F
F8001F
F8001F
FC001F
FE001F
7FE07F
3FFFFF
1FFFFF
0FFFFF
03FFFF
000C00
ENDCHAR
STARTCHAR ae
ENCODING 230
SWIDTH 561 0
DWIDTH 36 0
BBX 33 33 1 -1
BITMAP
0010010000
0FFF0FF000
1FFFBFFC00
1FFFFFFC00
0FFFFFFE00
0F0FFC7F00
0003F83F00
0003F01F00
0003F01F80
0003F01F80
0003F00F80
0003F00F80
0003FFFF80
0003FFFF80
007FFFFF80
03FFFFFF80
0FFFFFFF80
1FFFF00000
3FFFF00000
7F83F00000
7E03F00000
FC03F00000
FC03F00000
F803F00000
FC03F00000
FC03F00000
FE03F80700
7FC3FE3F00
7FFFFFFF00
3FFFFFFF80
1FFFFFFF00
07FF1FF800
0060018000
ENDCHAR
STARTCHAR ccedilla
ENCODING 231
SWIDTH 561 0
DWIDTH 36 0
BBX 26 48 5 -16
BITMAP
00010000
007FFE00
01FFFF80
03FFFFC0
07FFFFC0
0FFC3F80
1FC00380
3F800000
3F000000
7E000000
7E000000
7C000000
7C000000
FC000000
FC000000
FC000000
FC000000
FC000000
FC000000
FC000000
7C000000
7C000000
7E000000
7E000000
3F000000
3F800000
1FC00380
0FF83F80
07FFFFC0
03FFFFC0
01FFFF80
007FFC00
001F8000
003E0000
003C0000
007C0000
007FF800
003FFE00
001FFF00
000FFF00
00003F00
00003F00
00003F00
0000FE00
01FFFE00
01FFFC00
01FFF000
00FF8000
ENDCHAR
STARTCHAR egrave
ENCODING 232
SWIDTH 561 0
DWIDTH 36 0
BBX 26 50 5 -1
BITMAP
04000000
0F000000
1FC00000
1FF00000
3FFC0000
3FFF0000
0FFFC000
01FFF000
003FF000
0007F000
0000E000
00000000
00000000
00000000
00000000
00000000
00000000
00040000
00FFC000
01FFF000
07FFF800
0FFFFC00
1FF1FE00
1FC07F00
3F003F00
3E001F80
7E000F80
7C000F80
7C000F80
7FFFFFC0
FFFFFFC0
FFFFFFC0
FFFFFFC0
FFFFFF80
FC000000
FC000000
FC000000
7C000000
7C000000
7E000000
7E000000
3F000000
3F800000
1FE00380
0FFC3F80
0FFFFFC0
03FFFFC0
01FFFF80
007FFC00
00018000
ENDCHAR
STARTCHAR eacute
ENCODING 233
SWIDTH 561 0
DWIDTH 36 0
BBX 26 50 5 -1
BITMAP
00000800
00003C00
0000FE00
0003FE00
000FFE00
003FFF00
00FFFC00
03FFE000
03FF0000
03F80000
01C00000
00000000
00000000
00000000
00000000
00000000
00000000
00040000
00FFC000
01FFF000
07FFF800
0FFFFC00
1FF1FE00
1FC07F00
3F003F00
3E001F80
7E000F80
7C000F80
7C000F80
7FFFFFC0
FFFFFFC0
FFFFFFC0
FFFFFFC0
FFFFFF80
FC000000
FC000000
FC000000
7C000000
7C000000
7E000000
7E000000
3F000000
3F800000
1FE00380
0FFC3F80
0FFFFFC0
03FFFFC0
01FFFF80
007FFC00
00018000
ENDCHAR
STARTCHAR ecircumflex
ENCODING 234
SWIDTH 561 0
DWIDTH 36 0
BBX 26 48 5 -1
BITMAP
001E0000
007F8000
00FFC000
03FFF000
07FFF800
1FF3FE00
3FC0FF00
3F807F00
3F003F00
1C000E00
00000000
00000000
00000000
00000000
00000000
00040000
00FFC000
01FFF000
07FFF800
0FFFFC00
1FF1FE00
1FC07F00
3F003F00
3E001F80
7E000F80
7C000F80
7C000F80
7FFFFFC0
FFFFFFC0
FFFFFFC0
FFFFFFC0
FFFFFF80
FC000000
FC000000
FC000000
7C000000
7C000000
7E000000
7E000000
3F000000
3F800000
1FE00380
0FFC3F80
0FFFFFC0
03FFFFC0
01FFFF80
007FFC00
00018000
ENDCHAR
STARTCHAR edieresis
ENCODING 235
SWIDTH 561 0
DWIDTH 36 0
BBX 26 48 5 -1
BITMAP
0F807C00
0F807C00
0F807C00
0F807C00
0F807C00
0F807C00
00000000
00000000
00000000
00000000
00000000
00000000
00000000
00000000
00000000
00040000
00FFC000
01FFF000
07FFF800
0FFFFC00
1FF1FE00
1FC07F00
3F003F00
3E001F80
7E000F80
7C000F80
7C000F80
7FFFFFC0
FFFFFFC0
FFFFFFC0
FFFFFFC0
FFFFFF80
FC000000
FC000000
FC000000
7C000000
7C000000
7E000000
7E000000
3F000000
3F800000
1FE00380
0FFC3F80
0FFFFFC0
03FFFFC0
01FFFF80
007FFC00
00018000
ENDCHAR
STARTCHAR igrave
ENCODING 236
SWIDTH 561 0
DWIDTH 36 0
BBX 26 49 5 0
BITMAP
04000000
0F000000
1FC00000
1FF00000
3FFC0000
3FFF0000
0FFFC000
01FFF000
003FF000
0007F000
0000E000
00000000
00000000
00000000
00000000
00000000
00000000
00000000
1FFE0000
3FFF0000
3FFF0000
3FFF0000
1FFF0000
003F0000
003F0000
003F0000
003F0000
003F0000
003F0000
003F0000
003F0000
003F0000
003F0000
003F0000
003F0000
003F0000
003F0000
003F0000
003F0000
003F0000
003F0000
003F0000
003F0000
003F0000
7FFFFF80
FFFFFFC0
FFFFFFC0
FFFFFFC0
7FFFFF80
ENDCHAR
STARTCHAR iacute
ENCODING 237
SWIDTH 561 0
DWIDTH 36 0
BBX 26 49 5 0
BITMAP
00000800
00003C00
0000FE00
0003FE00
000FFE00
003FFF00
00FFFC00
03FFE000
03FF0000
03F80000
01C00000
00000000
00000000
00000000
00000000
00000000
00000000
00000000
1FFE0000
3FFF0000
3FFF0000
3FFF0000
1FFF0000
003F0000
003F0000
003F0000
003F0000
003F0000
003F0000
003F0000
003F0000
003F0000
003F0000
003F0000
003F0000
003F0000
003F0000
003F0000
003F0000
003F0000
003F0000
003F0000
003F0000
003F0000
7FFFFF80
FFFFFFC0
FFFFFFC0
FFFFFFC0
7FFFFF80
ENDCHAR
STARTCHAR icircumflex
ENCODING 238
SWIDTH 561 0
DWIDTH 36 0
BBX 26 47 5 0
BITMAP
001E0000
007F8000
00FFC000
03FFF000
07FFF800
1FF3FE00
3FC0FF00
3F807F00
3F003F00
1C000E00
00000000
00000000
00000000
00000000
00000000
00000000
1FFE0000
3FFF0000
3FFF0000
3FFF0000
1FFF0000
003F0000
003F0000
003F0000
003F0000
003F0000
003F0000
003F0000
003F0000
003F0000
003F0000
003F0000
003F0000
003F0000
003F0000
003F0000
003F0000
003F0000
003F0000
003F0000
003F0000
003F0000
7FFFFF80
FFFFFFC0
FFFFFFC0
FFFFFFC0
7FFFFF80
ENDCHAR
STARTCHAR idieresis
ENCODING 239
SWIDTH 561 0
DWIDTH 36 0
BBX 26 47 5 0
BITMAP
0F807C00
0F807C00
0F807C00
0F807C00
0F807C00
0F807C00
00000000
00000000
00000000
00000000
00000000
00000000
00000000
00000000
00000000
00000000
1FFE0000
3FFF0000
3FFF0000
3FFF0000
1FFF0000
003F0000
003F0000
003F0000
003F0000
003F0000
003F0000
003F0000
003F0000
003F0000
003F0000
003F0000
003F0000
003F0000
003F0000
003F0000
003F0000
003F0000
003F0000
003F0000
003F0000
003F0000
7FFFFF80
FFFFFFC0
FFFFFFC0
FFFFFFC0
7FFFFF80
ENDCHAR
STARTCHAR eth
ENCODING 240
SWIDTH 561 0
DWIDTH 36 0
BBX 29 46 5 -1
BITMAP
001C0000
003F8000
003FC000
003FF000
003FF820
0007FCF0
0000FFF8
00007FF8
0000FFF8
0007FFE0
001FFF80
001FFF80
001FEFC0
000F0FC0
000807C0
000007C0
000007E0
000007E0
007F83E0
01FFF3E0
07FFFBE0
0FFFFFE0
1FFFFFE0
3FC03FF0
3F000FF0
7E0007F0
7E0003F0
FC0003F0
FC0003F0
F80003F0
F80003E0
F80003E0
F80003E0
F80007E0
FC0007E0
FC0007C0
7C000FC0
7E001FC0
7F003F80
3F807F80
1FE1FF00
1FFFFE00
07FFFC00
03FFF800
00FFE000
00040000
ENDCHAR
STARTCHAR ntilde
ENCODING 241
SWIDTH 561 0
DWIDTH 36 0
BBX 26 47 5 0
BITMAP
03C00000
0FF00000
1FFC0700
3FFF0F80
7FFFFF80
7C3FFF00
380FFE00
0007FC00
0001F000
00000000
00000000
00000000
00000000
00000000
00000000
00080000
7FFFE000
FFFFF800
FFFFFE00
FFFFFF00
FC01FF00
FC003F80
FC001F80
FC001F80
FC000F80
FC000FC0
FC000FC0
FC000FC0
FC000FC0
FC000FC0
FC000FC0
FC000FC0
FC000FC0
FC000FC0
FC000FC0
FC000FC0
FC000FC0
FC000FC0
FC000FC0
FC000FC0
FC000FC0
FC000FC0
FC000FC0
FC000FC0
FC000FC0
FC000FC0
78000780
ENDCHAR
STARTCHAR ograve
ENCODING 242
SWIDTH 561 0
DWIDTH 36 0
BBX 26 50 5 -1
BITMAP
04000000
0F000000
1FC00000
1FF00000
3FFC0000
3FFF0000
0FFFC000
01FFF000
003FF000
0007F000
0000E000
00000000
00000000
00000000
00000000
00000000
00000000
00040000
00FFC000
03FFF000
07FFF800
0FFFFC00
1FE3FE00
1F807E00
3F003F00
3F003F00
7E001F80
7E001F80
7C000F80
7C000F80
FC000F80
FC000FC0
FC000FC0
FC000FC0
FC000FC0
FC000FC0
FC000F80
7C000F80
7C000F80
7E001F80
7E001F80
3F003F00
3F003F00
1F807E00
1FF3FE00
0FFFFC00
07FFF800
03FFF000
00FFC000
00040000
ENDCHAR
STARTCHAR oacute
ENCODING 243
SWIDTH 561 0
DWIDTH 36 0
BBX 26 50 5 -1
BITMAP
00000800
00003C00
0000FE00
0003FE00
000FFE00
003FFF00
00FFFC00
03FFE000
03FF0000
03F80000
01C00000
00000000
00000000
00000000
00000000
00000000
00000000
00040000
00FFC000
03FFF000
07FFF800
0FFFFC00
1FE3FE00
1F807E00
3F003F00
3F003F00
7E001F80
7E001F80
7C000F80
7C000F80
FC000F80
FC000FC0
FC000FC0
FC000FC0
FC000FC0
FC000FC0
FC000F80
7C000F80
7C000F80
7E001F80
7E001F80
3F003F00
3F003F00
1F807E00
1FF3FE00
0FFFFC00
07FFF800
03FFF000
00FFC000
00040000
ENDCHAR
STARTCHAR ocircumflex
ENCODING 244
SWIDTH 561 0
DWIDTH 36 0
BBX 26 48 5 -1
BITMAP
001E0000
007F8000
00FFC000
03FFF000
07FFF800
1FF3FE00
3FC0FF00
3F807F00
3F003F00
1C000E00
00000000
00000000
00000000
00000000
00000000
00040000
00FFC000
03FFF000
07FFF800
0FFFFC00
1FE3FE00
1F807E00
3F003F00
3F003F00
7E001F80
7E001F80
7C000F80
7C000F80
FC000F80
FC000FC0
FC000FC0
FC000FC0
FC000FC0
FC000FC0
FC000F80
7C000F80
7C000F80
7E001F80
7E001F80
3F003F00
3F003F00
1F807E00
1FF3FE00
0FFFFC00
07FFF800
03FFF000
00FFC000
00040000
ENDCHAR
STARTCHAR otilde
ENCODING 245
SWIDTH 561 0
DWIDTH 36 0
BBX 26 48 5 -1
BITMAP
03C00000
0FF00000
1FFC0700
3FFF0F80
7FFFFF80
7C3FFF00
380FFE00
0007FC00
0001F000
00000000
00000000
00000000
00000000
00000000
00000000
00040000
00FFC000
03FFF000
07FFF800
0FFFFC00
1FE3FE00
1F807E00
3F003F00
3F003F00
7E001F80
7E001F80
7C000F80
7C000F80
FC000F80
FC000FC0
FC000FC0
FC000FC0
FC000FC0
FC000FC0
FC000F80
7C000F80
7C000F80
7E001F80
7E001F80
3F003F00
3F003F00
1F807E00
1FF3FE00
0FFFFC00
07FFF800
03FFF000
00FFC000
00040000
ENDCHAR
STARTCHAR odieresis
ENCODING 246
SWIDTH 561 0
DWIDTH 36 0
BBX 26 48 5 -1
BITMAP
0F807C00
0F807C00
0F807C00
0F807C00
0F807C00
0F807C00
00000000
00000000
00000000
00000000
00000000
00000000
00000000
00000000
00000000
00040000
00FFC000
03FFF000
07FFF800
0FFFFC00
1FE3FE00
1F807E00
3F003F00
3F003F00
7E001F80
7E001F80
7C000F80
7C000F80
FC000F80
FC000FC0
FC000FC0
FC000FC0
FC000FC0
FC000FC0
FC000F80
7C000F80
7C000F80
7E001F80
7E001F80
3F003F00
3F003F00
1F807E00
1FF3FE00
0FFFFC00
07FFF800
03FFF000
00FFC000
00040000
ENDCHAR
STARTCHAR divide
ENCODING 247
SWIDTH 561 0
DWIDTH 36 0
BBX 26 33 5 -1
BITMAP
000C0000
003F0000
003F0000
003F0000
003F0000
003F0000
000C0000
00000000
00000000
00000000
00000000
00000000
00000000
00000000
7FFFFF80
FFFFFFC0
FFFFFFC0
FFFFFFC0
7FFFFF80
00000000
00000000
00000000
00000000
00000000
00000000
00000000
000C0000
003F0000
003F0000
003F0000
003F0000
003F0000
000C0000
ENDCHAR
STARTCHAR oslash
ENCODING 248
SWIDTH 561 0
DWIDTH 36 0
BBX 26 42 5 -5
BITMAP
00000800
00001E00
00001F00
00001F00
00003F00
00043F00
00FFFE00
03FFFE00
07FFFC00
0FFFFC00
1FE3FE00
1F81FE00
3F01FF00
3F03FF00
7E03FF80
7E07FF80
7C0FCF80
7C0FCF80
FC1F8F80
FC1F8FC0
FC3F0FC0
FC3F0FC0
FC7E0FC0
FC7E0FC0
FCFC0F80
7CFC0F80
7DF80F80
7FF81F80
7FF01F80
3FF03F00
3FE03F00
1FE07E00
1FF3FE00
0FFFFC00
1FFFF800
1FFFF000
3FFFC000
3F040000
3E000000
7E000000
7E000000
3C000000
ENDCHAR
STARTCHAR ugrave
ENCODING 249
SWIDTH 561 0
DWIDTH 36 0
BBX 26 50 5 -1
BITMAP
04000000
0F000000
1FC00000
1FF00000
3FFC0000
3FFF0000
0FFFC000
01FFF000
003FF000
0007F000
0000E000
00000000
00000000
00000000
00000000
00000000
00000000
00000000
78000780
FC000FC0
FC000FC0
FC000FC0
FC000FC0
FC000FC0
FC000FC0
FC000FC0
FC000FC0
FC000FC0
FC000FC0
FC000FC0
FC000FC0
FC000FC0
FC000FC0
FC000FC0
FC000FC0
FC000FC0
FC000FC0
FC000FC0
FC000FC0
FC000FC0
7C000FC0
7C000FC0
7E000FC0
7F000FC0
3FE00FC0
3FFFFFC0
1FFFFFC0
07FFFFC0
01FFFF80
00070000
ENDCHAR
STARTCHAR uacute
ENCODING 250
SWIDTH 561 0
DWIDTH 36 0
BBX 26 50 5 -1
BITMAP
00000800
00003C00
0000FE00
0003FE00
000FFE00
003FFF00
00FFFC00
03FFE000
03FF0000
03F80000
01C00000
00000000
00000000
00000000
00000000
00000000
00000000
00000000
78000780
FC000FC0
FC000FC0
FC000FC0
FC000FC0
FC000FC0
FC000FC0
FC000FC0
FC000FC0
FC000FC0
FC000FC0
FC000FC0
FC000FC0
FC000FC0
FC000FC0
FC000FC0
FC000FC0
FC000FC0
FC000FC0
FC000FC0
FC000FC0
FC000FC0
7C000FC0
7C000FC0
7E000FC0
7F000FC0
3FE00FC0
3FFFFFC0
1FFFFFC0
07FFFFC0
01FFFF80
00070000
ENDCHAR
STARTCHAR ucircumflex
ENCODING 251
SWIDTH 561 0
DWIDTH 36 0
BBX 26 48 5 -1
BITMAP
001E0000
007F8000
00FFC000
03FFF000
07FFF800
1FF3FE00
3FC0FF00
3F807F00
3F003F00
1C000E00
00000000
00000000
00000000
00000000
00000000
00000000
78000780
FC000FC0
FC000FC0
FC000FC0
FC000FC0
FC000FC0
FC000FC0
FC000FC0
FC000FC0
FC000FC0
FC000FC0
FC000FC0
FC000FC0
FC000FC0
FC000FC0
FC000FC0
FC000FC0
FC000FC0
FC000FC0
FC000FC0
FC000FC0
FC000FC0
7C000FC0
7C000FC0
7E000FC0
7F000FC0
3FE00FC0
3FFFFFC0
1FFFFFC0
07FFFFC0
01FFFF80
00070000
ENDCHAR
STARTCHAR udieresis
ENCODING 252
SWIDTH 561 0
DWIDTH 36 0
BBX 26 48 5 -1
BITMAP
0F807C00
0F807C00
0F807C00
0F807C00
0F807C00
0F807C00
00000000
00000000
00000000
00000000
00000000
00000000
00000000
00000000
00000000
00000000
78000780
FC000FC0
FC000FC0
FC000FC0
FC000FC0
FC000FC0
FC000FC0
FC000FC0
FC000FC0
FC000FC0
FC000FC0
FC000FC0
FC000FC0
FC000FC0
FC000FC0
FC000FC0
FC000FC0
FC000FC0
FC000FC0
FC000FC0
FC000FC0
FC000FC0
7C000FC0
7C000FC0
7E000FC0
7F000FC0
3FE00FC0
3FFFFFC0
1FFFFFC0
07FFFFC0
01FFFF80
00070000
ENDCHAR
STARTCHAR yacute
ENCODING 253
SWIDTH 561 0
DWIDTH 36 0
BBX 30 65 2 -16
BITMAP
00000100
00000780
00001FC0
00007FC0
0001FFC0
0007FFE0
001FFF80
007FFC00
007FE000
007F0000
00380000
00000000
00000000
00000000
00000000
00000000
00000000
00000000
3E00007C
3F0000FC
3F0000FC
1F0000F8
1F0000F8
1F8001F8
1F8001F8
0F8001F0
0F8001F0
0FC003F0
0FC003F0
07C003E0
07C003E0
07E007E0
07E007E0
03E007C0
03E007C0
03F00FC0
03F00FC0
01F00F80
01F00F80
01F81F80
01F81F80
00F81F00
00F83F00
00FC3F00
00FE3F00
007FFE00
007FFE00
003FFE00
000FFE00
0000FC00
00007C00
0000FC00
0000F800
0000F800
0001F800
0001F000
0003F000
0003F000
0007E000
F01FC000
FFFFC000
FFFF8000
FFFF0000
FFFC0000
0FF00000
ENDCHAR
STARTCHAR thorn
ENCODING 254
SWIDTH 561 0
DWIDTH 36 0
BBX 26 56 5 -12
BITMAP
78000000
FC000000
FC000000
FC000000
FC000000
FC000000
FC000000
FC000000
FC000000
FC000000
FC000000
FC000000
FC100000
FFFFC000
FFFFF000
FFFFFC00
FFFFFE00
FC03FE00
FC007F00
FC003F00
FC001F80
FC001F80
FC000F80
FC000F80
FC000F80
FC000FC0
FC000FC0
FC000FC0
FC000FC0
FC000FC0
FC000FC0
FC000FC0
FC000F80
FC000F80
FC000F80
FC001F80
FC001F80
FC003F00
FC007F00
FE03FE00
FFFFFE00
FFFFFC00
FFFFF000
FFFFC000
FC300000
FC000000
FC000000
FC000000
FC000000
FC000000
FC000000
FC000000
FC000000
FC000000
FC000000
FC000000
ENDCHAR
STARTCHAR ydieresis
ENCODING 255
SWIDTH 561 0
DWIDTH 36 0
BBX 30 63 2 -16
BITMAP
01F00F80
01F00F80
01F00F80
01F00F80
01F00F80
01F00F80
00000000
00000000
00000000
00000000
00000000
00000000
00000000
00000000
00000000
00000000
3E00007C
3F0000FC
3F0000FC
1F0000F8
1F0000F8
1F8001F8
1F8001F8
0F8001F0
0F8001F0
0FC003F0
0FC003F0
07C003E0
07C003E0
07E007E0
07E007E0
03E007C0
03E007C0
03F00FC0
03F00FC0
01F00F80
01F00F80
01F81F80
01F81F80
00F81F00
00F83F00
00FC3F00
00FE3F00
007FFE00
007FFE00
003FFE00
000FFE00
0000FC00
00007C00
0000FC00
0000F800
0000F800
0001F800
0001F000
0003F000
0003F000
0007E000
F01FC000
FFFFC000
FFFF8000
FFFF0000
FFFC0000
0FF00000
ENDCHAR
STARTCHAR Amacron
ENCODING 256
SWIDTH 561 0
DWIDTH 36 0
BBX 34 57 1 0
BITMAP
00FFFFC000
00FFFFC000
00FFFFC000
00FFFFC000
00FFFFC000
0000000000
0000000000
0000000000
0000000000
0000000000
0000000000
0000000000
0000800000
0007F80000
001FFE0000
003FFE0000
003FFF0000
007F3F0000
007E1F8000
007C0F8000
007C0F8000
00FC0F8000
00FC0FC000
00F807C000
00F807C000
01F807C000
01F807E000
01F003E000
01F003E000
03F003E000
03F003F000
03E001F000
03E001F000
07E001F000
07E001F800
07C000F800
07C000F800
0FC000F800
0FFFFFFC00
0FFFFFFC00
0FFFFFFC00
1FFFFFFC00
1FFFFFFE00
1F00003E00
1F00003E00
3F00003E00
3F00003F00
3E00001F00
3E00001F00
7E00001F00
7E00001F80
7C00000F80
7C00000F80
FC00000F80
FC00000FC0
F8000007C0
F8000007C0
ENDCHAR
STARTCHAR amacron
ENCODING 257
SWIDTH 561 0
DWIDTH 36 0
BBX 24 48 5 -1
BITMAP
0FFFFC
0FFFFC
0FFFFC
0FFFFC
0FFFFC
000000
000000
000000
000000
000000
000000
000000
000000
000000
000000
000800
0FFFC0
1FFFF0
1FFFF8
1FFFFC
0F07FE
0000FE
00003F
00003F
00001F
00001F
00001F
00001F
00001F
007FFF
03FFFF
0FFFFF
3FFFFF
3FFFFF
7F801F
FE001F
FC001F
F8001F
F8001F
F8001F
FC001F
FE001F
7FE07F
3FFFFF
1FFFFF
0FFFFF
03FFFF
000C00
ENDCHAR
STARTCHAR Abreve
ENCODING 258
SWIDTH 561 0
DWIDTH 36 0
BBX 34 58 1 0
BITMAP
03C000F000
07E001F000
03E001F000
03F003F000
03F007E000
01FC0FE000
00FFFFC000
007FFF8000
003FFE0000
0007F80000
0000000000
0000000000
0000000000
0000800000
0007F80000
001FFE0000
003FFE0000
003FFF0000
007F3F0000
007E1F8000
007C0F8000
007C0F8000
00FC0F8000
00FC0FC000
00F807C000
00F807C000
01F807C000
01F807E000
01F003E000
01F003E000
03F003E000
03F003F000
03E001F000
03E001F000
07E001F000
07E001F800
07C000F800
07C000F800
0FC000F800
0FFFFFFC00
0FFFFFFC00
0FFFFFFC00
1FFFFFFC00
1FFFFFFE00
1F00003E00
1F00003E00
3F00003E00
3F00003F00
3E00001F00
3E00001F00
7E00001F00
7E00001F80
7C00000F80
7C00000F80
FC00000F80
FC00000FC0
F8000007C0
F8000007C0
ENDCHAR
STARTCHAR abreve
ENCODING 259
SWIDTH 561 0
DWIDTH 36 0
BBX 24 49 5 -1
BITMAP
3C000F
7E001F
3E001F
3F003F
3F007E
1FC0FE
0FFFFC
07FFF8
03FFE0
007F80
000000
000000
000000
000000
000000
000000
000800
0FFFC0
1FFFF0
1FFFF8
1FFFFC
0F07FE
0000FE
00003F
00003F
00001F
00001F
00001F
00001F
00001F
007FFF
03FFFF
0FFFFF
3FFFFF
3FFFFF
7F801F
FE001F
FC001F
F8001F
F8001F
F8001F
FC001F
FE001F
7FE07F
3FFFFF
1FFFFF
0FFFFF
03FFFF
000C00
ENDCHAR
STARTCHAR Aogonek
ENCODING 260
SWIDTH 561 0
DWIDTH 36 0
BBX 34 58 1 -13
BITMAP
0000800000
0007F80000
001FFE0000
003FFE0000
003FFF0000
007F3F0000
007E1F8000
007C0F8000
007C0F8000
00FC0F8000
00FC0FC000
00F807C000
00F807C000
01F807C000
01F807E000
01F003E000
01F003E000
03F003E000
03F003F000
03E001F000
03E001F000
07E001F000
07E001F800
07C000F800
07C000F800
0FC000F800
0FFFFFFC00
0FFFFFFC00
0FFFFFFC00
1FFFFFFC00
1FFFFFFE00
1F00003E00
1F00003E00
3F00003E00
3F00003F00
3E00001F00
3E00001F00
7E00001F00
7E00001F80
7C00000F80
7C00000F80
FC00000F80
FC00000FC0
F800003FC0
F800007FC0
0000007800
000000F800
000000F800
000000F800
000000F800
000000F800
000000F800
000000FC00
000000FC00
0000007E00
0000007E00
0000003E00
0000001C00
ENDCHAR
STARTCHAR aogonek
ENCODING 261
SWIDTH 561 0
DWIDTH 36 0
BBX 27 46 5 -14
BITMAP
00080000
0FFFC000
1FFFF000
1FFFF800
1FFFFC00
0F07FE00
0000FE00
00003F00
00003F00
00001F00
00001F00
00001F00
00001F00
00001F00
007FFF00
03FFFF00
0FFFFF00
3FFFFF00
3FFFFF00
7F801F00
FE001F00
FC001F00
F8001F00
F8001F00
F8001F00
FC001F00
FE001F00
7FE07F00
3FFFFF00
1FFFFF00
0FFFFFC0
03FFFFC0
000E0780
00000F80
00000F80
00000F80
00000F80
00000F80
00000F80
00000FC0
00000FC0
000007E0
000007E0
000003E0
000003C0
00000180
ENDCHAR
STARTCHAR Cacute
ENCODING 262
SWIDTH 561 0
DWIDTH 36 0
BBX 26 60 5 -1
BITMAP
00000800
00003C00
0000FE00
0003FE00
000FFE00
003FFF00
00FFFC00
03FFE000
03FF0000
03F80000
01C00000
00000000
00000000
00000000
00008000
003FFE00
00FFFF80
01FFFFC0
03FFFFC0
07FC3F80
0FE00380
1FC00000
1F800000
3F000000
3E000000
7E000000
7E000000
7C000000
7C000000
7C000000
FC000000
FC000000
FC000000
FC000000
FC000000
FC000000
FC000000
FC000000
FC000000
FC000000
FC000000
FC000000
FC000000
FC000000
7C000000
7C000000
7C000000
7E000000
7E000000
3F000000
3F000000
1F800000
1FC00000
0FE00380
07FC3F80
03FFFFC0
01FFFFC0
00FFFF80
003FFE00
00018000
ENDCHAR
STARTCHAR cacute
ENCODING 263
SWIDTH 561 0
DWIDTH 36 0
BBX 26 50 5 -1
BITMAP
00000800
00003C00
0000FE00
0003FE00
000FFE00
003FFF00
00FFFC00
03FFE000
03FF0000
03F80000
01C00000
00000000
00000000
00000000
00000000
00000000
00000000
00010000
007FFE00
01FFFF80
03FFFFC0
07FFFFC0
0FFC3F80
1FC00380
3F800000
3F000000
7E000000
7E000000
7C000000
7C000000
FC000000
FC000000
FC000000
FC000000
FC000000
FC000000
FC000000
7C000000
7C000000
7E000000
7E000000
3F000000
3F800000
1FC00380
0FF83F80
0FFFFFC0
03FFFFC0
01FFFF80
007FFC00
00018000
ENDCHAR
STARTCHAR Ccircumflex
ENCODING 264
SWIDTH 561 0
DWIDTH 36 0
BBX 26 58 5 -1
BITMAP
001E0000
007F8000
00FFC000
03FFF000
07FFF800
1FF3FE00
3FC0FF00
3F807F00
3F003F00
1C000E00
00000000
00000000
00008000
003FFE00
00FFFF80
01FFFFC0
03FFFFC0
07FC3F80
0FE00380
1FC00000
1F800000
3F000000
3E000000
7E000000
7E000000
7C000000
7C000000
7C000000
FC000000
FC000000
FC000000
FC000000
FC000000
FC000000
FC000000
FC000000
FC000000
FC000000
FC000000
FC000000
FC000000
FC000000
7C000000
7C000000
7C000000
7E000000
7E000000
3F000000
3F000000
1F800000
1FC00000
0FE00380
07FC3F80
03FFFFC0
01FFFFC0
00FFFF80
003FFE00
00018000
ENDCHAR
STARTCHAR ccircumflex
ENCODING 265
SWIDTH 561 0
DWIDTH 36 0
BBX 26 48 5 -1
BITMAP
001E0000
007F8000
00FFC000
03FFF000
07FFF800
1FF3FE00
3FC0FF00
3F807F00
3F003F00
1C000E00
00000000
00000000
00000000
00000000
00000000
00010000
007FFE00
01FFFF80
03FFFFC0
07FFFFC0
0FFC3F80
1FC00380
3F800000
3F000000
7E000000
7E000000
7C000000
7C000000
FC000000
FC000000
FC000000
FC000000
FC000000
FC000000
FC000000
7C000000
7C000000
7E000000
7E000000
3F000000
3F800000
1FC00380
0FF83F80
0FFFFFC0
03FFFFC0
01FFFF80
007FFC00
00018000
ENDCHAR
STARTCHAR Ccaron
ENCODING 268
SWIDTH 561 0
DWIDTH 36 0
BBX 26 58 5 -1
BITMAP
1C000E00
1E001E00
3F807F00
3FC0FF00
1FF3FE00
0FFFFC00
03FFF000
01FFE000
007F8000
001E0000
00000000
00000000
00008000
003FFE00
00FFFF80
01FFFFC0
03FFFFC0
07FC3F80
0FE00380
1FC00000
1F800000
3F000000
3E000000
7E000000
7E000000
7C000000
7C000000
7C000000
FC000000
FC000000
FC000000
FC000000
FC000000
FC000000
FC000000
FC000000
FC000000
FC000000
FC000000
FC000000
FC000000
FC000000
7C000000
7C000000
7C000000
7E000000
7E000000
3F000000
3F000000
1F800000
1FC00000
0FE00380
07FC3F80
03FFFFC0
01FFFFC0
00FFFF80
003FFE00
00018000
ENDCHAR
STARTCHAR ccaron
ENCODING 269
SWIDTH 561 0
DWIDTH 36 0
BBX 26 48 5 -1
BITMAP
1C000E00
1E001E00
3F807F00
3FC0FF00
1FF3FE00
0FFFFC00
03FFF000
01FFE000
007F8000
001E0000
00000000
00000000
00000000
00000000
00000000
00010000
007FFE00
01FFFF80
03FFFFC0
07FFFFC0
0FFC3F80
1FC00380
3F800000
3F000000
7E000000
7E000000
7C000000
7C000000
FC000000
FC000000
FC000000
FC000000
FC000000
FC000000
FC000000
7C000000
7C000000
7E000000
7E000000
3F000000
3F800000
1FC00380
0FF83F80
0FFFFFC0
03FFFFC0
01FFFF80
007FFC00
00018000
ENDCHAR
STARTCHAR Dcaron
ENCODING 270
SWIDTH 561 0
DWIDTH 36 0
BBX 30 57 2 0
BITMAP
038001C0
03C003C0
07F00FE0
07F81FE0
03FE7FC0
01FFFF80
007FFE00
003FFC00
000FF000
0003C000
00000000
00000000
00000000
7FFE0000
FFFFE000
FFFFFC00
FFFFFF00
7FFFFF80
0FC0FFC0
0FC03FE0
0FC00FE0
0FC007F0
0FC003F0
0FC001F8
0FC001F8
0FC000F8
0FC000FC
0FC000FC
0FC0007C
0FC0007C
0FC0007C
0FC0007C
0FC0007C
0FC0007C
0FC0007C
0FC0007C
0FC0007C
0FC0007C
0FC0007C
0FC0007C
0FC0007C
0FC0007C
0FC000FC
0FC000FC
0FC000F8
0FC001F8
0FC001F8
0FC003F8
0FC007F0
0FC00FF0
0FC01FE0
0FC0FFC0
0FFFFF80
0FFFFF00
0FFFFC00
0FFFF000
07FF0000
ENDCHAR
STARTCHAR dcaron
ENCODING 271
SWIDTH 561 0
DWIDTH 36 0
BBX 36 52 0 -1
BITMAP
00000001E0
00000003F0
00000003F0
00000003F0
00000783F0
00000FC3F0
00000FC3F0
00000FC3F0
00000FC3F0
00000FC3F0
00000FC3F0
00000FC3F0
00000FC1E0
00000FC000
00000FC000
00000FC000
00000FC000
00000FC000
00000FC000
00010FC000
007FFFC000
01FFFFC000
03FFFFC000
07FFFFC000
0FFC3FC000
1FE00FC000
3F800FC000
3F000FC000
7E000FC000
7E000FC000
7C000FC000
7C000FC000
FC000FC000
FC000FC000
FC000FC000
FC000FC000
FC000FC000
FC000FC000
FC000FC000
7C000FC000
7C000FC000
7E000FC000
7E000FC000
3F000FC000
3F800FC000
1FC00FC000
0FF83FC000
0FFFFFC000
03FFFFC000
01FFFF8000
007FFE0000
0001800000
ENDCHAR
STARTCHAR Dcroat
ENCODING 272
SWIDTH 561 0
DWIDTH 36 0
BBX 30 57 2 0
BITMAP
01FFFF80
01FFFF80
01FFFF80
01FFFF80
01FFFF80
00000000
00000000
00000000
00000000
00000000
00000000
00000000
00000000
7FFE0000
FFFFE000
FFFFFC00
FFFFFF00
7FFFFF80
0FC0FFC0
0FC03FE0
0FC00FE0
0FC007F0
0FC003F0
0FC001F8
0FC001F8
0FC000F8
0FC000FC
0FC000FC
0FC0007C
0FC0007C
0FC0007C
0FC0007C
0FC0007C
0FC0007C
0FC0007C
0FC0007C
0FC0007C
0FC0007C
0FC0007C
0FC0007C
0FC0007C
0FC0007C
0FC000FC
0FC000FC
0FC000F8
0FC001F8
0FC001F8
0FC003F8
0FC007F0
0FC00FF0
0FC01FE0
0FC0FFC0
0FFFFF80
0FFFFF00
0FFFFC00
0FFFF000
07FF0000
ENDCHAR
STARTCHAR dcroat
ENCODING 273
SWIDTH 561 0
DWIDTH 36 0
BBX 30 48 5 -1
BITMAP
00000780
00000FC0
0007FFF0
000FFFF8
000FFFFC
000FFFFC
000FFFF8
00000FC0
00000FC0
00000FC0
00000FC0
00000FC0
00000FC0
00000FC0
00000FC0
00010FC0
007FFFC0
01FFFFC0
03FFFFC0
07FFFFC0
0FFC3FC0
1FE00FC0
3F800FC0
3F000FC0
7E000FC0
7E000FC0
7C000FC0
7C000FC0
FC000FC0
FC000FC0
FC000FC0
FC000FC0
FC000FC0
FC000FC0
FC000FC0
7C000FC0
7C000FC0
7E000FC0
7E000FC0
3F000FC0
3F800FC0
1FC00FC0
0FF83FC0
0FFFFFC0
03FFFFC0
01FFFF80
007FFC00
00018000
ENDCHAR
STARTCHAR Emacron
ENCODING 274
SWIDTH 561 0
DWIDTH 36 0
BBX 27 57 5 0
BITMAP
0FFFFC00
0FFFFC00
0FFFFC00
0FFFFC00
0FFFFC00
00000000
00000000
00000000
00000000
00000000
00000000
00000000
00000000
7FFFFFC0
FFFFFFC0
FFFFFFC0
FFFFFFC0
FFFFFF80
FC000000
FC000000
FC000000
FC000000
FC000000
FC000000
FC000000
FC000000
FC000000
FC000000
FC000000
FC000000
FC000000
FC000000
FFFFFF00
FFFFFF80
FFFFFF80
FFFFFF80
FFFFFF00
FC000000
FC000000
FC000000
FC000000
FC000000
FC000000
FC000000
FC000000
FC000000
FC000000
FC000000
FC000000
FC000000
FC000000
FC000000
FFFFFFE0
FFFFFFE0
FFFFFFE0
FFFFFFE0
7FFFFFE0
ENDCHAR
STARTCHAR emacron
ENCODING 275
SWIDTH 561 0
DWIDTH 36 0
BBX 26 48 5 -1
BITMAP
0FFFFC00
0FFFFC00
0FFFFC00
0FFFFC00
0FFFFC00
00000000
00000000
00000000
00000000
00000000
00000000
00000000
00000000
00000000
00000000
00040000
00FFC000
01FFF000
07FFF800
0FFFFC00
1FF1FE00
1FC07F00
3F003F00
3E001F80
7E000F80
7C000F80
7C000F80
7FFFFFC0
FFFFFFC0
FFFFFFC0
FFFFFFC0
FFFFFF80
FC000000
FC000000
FC000000
7C000000
7C000000
7E000000
7E000000
3F000000
3F800000
1FE00380
0FFC3F80
0FFFFFC0
03FFFFC0
01FFFF80
007FFC00
00018000
ENDCHAR
STARTCHAR Edotaccent
ENCODING 278
SWIDTH 561 0
DWIDTH 36 0
BBX 27 57 5 0
BITMAP
001E0000
003F0000
003F0000
003F0000
003F0000
001E0000
00000000
00000000
00000000
00000000
00000000
00000000
00000000
7FFFFFC0
FFFFFFC0
FFFFFFC0
FFFFFFC0
FFFFFF80
FC000000
FC000000
FC000000
FC000000
FC000000
FC000000
FC000000
FC000000
FC000000
FC000000
FC000000
FC000000
FC000000
FC000000
FFFFFF00
FFFFFF80
FFFFFF80
FFFFFF80
FFFFFF00
FC000000
FC000000
FC000000
FC000000
FC000000
FC000000
FC000000
FC000000
FC000000
FC000000
FC000000
FC000000
FC000000
FC000000
FC000000
FFFFFFE0
FFFFFFE0
FFFFFFE0
FFFFFFE0
7FFFFFE0
ENDCHAR
STARTCHAR edotaccent
ENCODING 279
SWIDTH 561 0
DWIDTH 36 0
BBX 26 48 5 -1
BITMAP
001E0000
003F0000
003F0000
003F0000
003F0000
001E0000
00000000
00000000
00000000
00000000
00000000
00000000
00000000
00000000
00000000
00040000
00FFC000
01FFF000
07FFF800
0FFFFC00
1FF1FE00
1FC07F00
3F003F00
3E001F80
7E000F80
7C000F80
7C000F80
7FFFFFC0
FFFFFFC0
FFFFFFC0
FFFFFFC0
FFFFFF80
FC000000
FC000000
FC000000
7C000000
7C000000
7E000000
7E000000
3F000000
3F800000
1FE00380
0FFC3F80
0FFFFFC0
03FFFFC0
01FFFF80
007FFC00
00018000
ENDCHAR
STARTCHAR Eogonek
ENCODING 280
SWIDTH 561 0
DWIDTH 36 0
BBX 27 58 5 -14
BITMAP
7FFFFFC0
FFFFFFC0
FFFFFFC0
FFFFFFC0
FFFFFF80
FC000000
FC000000
FC000000
FC000000
FC000000
FC000000
FC000000
FC000000
FC000000
FC000000
FC000000
FC000000
FC000000
FC000000
FFFFFF00
FFFFFF80
FFFFFF80
FFFFFF80
FFFFFF00
FC000000
FC000000
FC000000
FC000000
FC000000
FC000000
FC000000
FC000000
FC000000
FC000000
FC000000
FC000000
FC000000
FC000000
FC000000
FFFFFFE0
FFFFFFE0
FFFFFFE0
FFFFFFE0
7FFFFFE0
000007C0
00000F80
00000F80
00000F80
00000F80
00000F80
00000F80
00000FC0
00000FC0
000007E0
000007E0
000003E0
000003C0
00000180
ENDCHAR
STARTCHAR eogonek
ENCODING 281
SWIDTH 561 0
DWIDTH 36 0
BBX 27 46 5 -14
BITMAP
00040000
00FFC000
01FFF000
07FFF800
0FFFFC00
1FF1FE00
1FC07F00
3F003F00
3E001F80
7E000F80
7C000F80
7C000F80
7FFFFFC0
FFFFFFC0
FFFFFFC0
FFFFFFC0
FFFFFF80
FC000000
FC000000
FC000000
7C000000
7C000000
7E000000
7E000000
3F000000
3F800000
1FE00380
0FFC3F80
0FFFFFC0
03FFFFC0
01FFFFC0
007FFFC0
00018780
00000F80
00000F80
00000F80
00000F80
00000F80
00000F80
00000FC0
00000FC0
000007E0
000007E0
000003E0
000001C0
00000180
ENDCHAR
STARTCHAR Ecaron
ENCODING 282
SWIDTH 561 0
DWIDTH 36 0
BBX 27 57 5 0
BITMAP
1C000E00
1E001E00
3F807F00
3FC0FF00
1FF3FE00
0FFFFC00
03FFF000
01FFE000
007F8000
001E0000
00000000
00000000
00000000
7FFFFFC0
FFFFFFC0
FFFFFFC0
FFFFFFC0
FFFFFF80
FC000000
FC000000
FC000000
FC000000
FC000000
FC000000
FC000000
FC000000
FC000000
FC000000
FC000000
FC000000
FC000000
FC000000
FFFFFF00
FFFFFF80
FFFFFF80
FFFFFF80
FFFFFF00
FC000000
FC000000
FC000000
FC000000
FC000000
FC000000
FC000000
FC000000
FC000000
FC000000
FC000000
FC000000
FC000000
FC000000
FC000000
FFFFFFE0
FFFFFFE0
FFFFFFE0
FFFFFFE0
7FFFFFE0
ENDCHAR
STARTCHAR ecaron
ENCODING 283
SWIDTH 561 0
DWIDTH 36 0
BBX 26 48 5 -1
BITMAP
1C000E00
1E001E00
3F807F00
3FC0FF00
1FF3FE00
0FFFFC00
03FFF000
01FFE000
007F8000
001E0000
00000000
00000000
00000000
00000000
00000000
00040000
00FFC000
01FFF000
07FFF800
0FFFFC00
1FF1FE00
1FC07F00
3F003F00
3E001F80
7E000F80
7C000F80
7C000F80
7FFFFFC0
FFFFFFC0
FFFFFFC0
FFFFFFC0
FFFFFF80
FC000000
FC000000
FC000000
7C000000
7C000000
7E000000
7E000000
3F000000
3F800000
1FE00380
0FFC3F80
0FFFFFC0
03FFFFC0
01FFFF80
007FFC00
00018000
ENDCHAR
STARTCHAR Gcircumflex
ENCODING 284
SWIDTH 561 0
DWIDTH 36 0
BBX 26 58 5 -1
BITMAP
001E0000
007F8000
00FFC000
03FFF000
07FFF800
1FF3FE00
3FC0FF00
3F807F00
3F003F00
1C000E00
00000000
00000000
00008000
003FFE00
00FFFF80
01FFFFC0
03FFFFC0
07FC3F80
0FE00380
1FC00000
1F800000
3F000000
3E000000
7E000000
7E000000
7C000000
7C000000
7C000000
FC000000
FC000000
FC000000
FC000000
FC01FFC0
FC01FFC0
FC01FFC0
FC01FFC0
FC01FFC0
FC0007C0
FC0007C0
FC0007C0
FC0007C0
FC0007C0
7C0007C0
7C0007C0
7C0007C0
7E0007C0
7E0007C0
3F0007C0
3F0007C0
1F8007C0
1FC007C0
0FE007C0
07FC3FC0
03FFFFC0
01FFFFC0
00FFFF80
003FFC00
00018000
ENDCHAR
STARTCHAR gcircumflex
ENCODING 285
SWIDTH 561 0
DWIDTH 36 0
BBX 33 63 3 -16
BITMAP
0007800000
001FE00000
003FF00000
00FFFC0000
01FFFE0000
07FCFF8000
0FF03FC000
0FE01FC000
0FC00FC000
0700038000
0000000000
0000000000
0000000000
0000000000
0000000000
0002000000
003FFFFC00
00FFFFFC00
03FFFFFC00
07FFFFFC00
0FF87FC000
0FE01FC000
1F800FE000
1F8007E000
1F0003E000
3F0003E000
3F0003F000
3F0003F000
1F0003E000
1F0003E000
1F8007E000
1FC00FE000
0FF03FC000
07FFFF8000
03FFFF0000
01FFFE0000
07FFFC0000
0FDFE00000
1F80000000
1F00000000
1F00000000
3F00000000
1FF0000000
1FFFFF8000
1FFFFFE000
07FFFFF800
0FFFFFFC00
1F03FFFE00
3E0000FF00
7C00003F00
7C00001F80
7800001F80
F800000F80
F800001F80
FC00001F80
FC00003F00
7F00007F00
7FC003FE00
3FFFFFFE00
1FFFFFF800
0FFFFFF000
03FFFFC000
003FFE0000
ENDCHAR
STARTCHAR Gbreve
ENCODING 286
SWIDTH 561 0
DWIDTH 36 0
BBX 26 59 5 -1
BITMAP
3C000F00
7E001F00
3E001F00
3F003F00
3F007E00
1FC0FE00
0FFFFC00
07FFF800
03FFE000
007F8000
00000000
00000000
00000000
00008000
003FFE00
00FFFF80
01FFFFC0
03FFFFC0
07FC3F80
0FE00380
1FC00000
1F800000
3F000000
3E000000
7E000000
7E000000
7C000000
7C000000
7C000000
FC000000
FC000000
FC000000
FC000000
FC01FFC0
FC01FFC0
FC01FFC0
FC01FFC0
FC01FFC0
FC0007C0
FC0007C0
FC0007C0
FC0007C0
FC0007C0
7C0007C0
7C0007C0
7C0007C0
7E0007C0
7E0007C0
3F0007C0
3F0007C0
1F8007C0
1FC007C0
0FE007C0
07FC3FC0
03FFFFC0
01FFFFC0
00FFFF80
003FFC00
00018000
ENDCHAR
STARTCHAR gbreve
ENCODING 287
SWIDTH 561 0
DWIDTH 36 0
BBX 33 64 3 -16
BITMAP
0F0003C000
0F8003E000
0F8007C000
0FC00FC000
07E00F8000
07F03F8000
03FFFF0000
01FFFE0000
00FFFC0000
001FE00000
0000000000
0000000000
0000000000
0000000000
0000000000
0000000000
0002000000
003FFFFC00
00FFFFFC00
03FFFFFC00
07FFFFFC00
0FF87FC000
0FE01FC000
1F800FE000
1F8007E000
1F0003E000
3F0003E000
3F0003F000
3F0003F000
1F0003E000
1F0003E000
1F8007E000
1FC00FE000
0FF03FC000
07FFFF8000
03FFFF0000
01FFFE0000
07FFFC0000
0FDFE00000
1F80000000
1F00000000
1F00000000
3F00000000
1FF0000000
1FFFFF8000
1FFFFFE000
07FFFFF800
0FFFFFFC00
1F03FFFE00
3E0000FF00
7C00003F00
7C00001F80
7800001F80
F800000F80
F800001F80
FC00001F80
FC00003F00
7F00007F00
7FC003FE00
3FFFFFFE00
1FFFFFF800
0FFFFFF000
03FFFFC000
003FFE0000
ENDCHAR
STARTCHAR Hcircumflex
ENCODING 292
SWIDTH 561 0
DWIDTH 36 0
BBX 28 57 4 0
BITMAP
000F0000
003FC000
007FE000
01FFF800
03FFFC00
0FF9FF00
1FE07F80
1FC03F80
1F801F80
0E000700
00000000
00000000
00000000
780001E0
FC0003F0
FC0003F0
FC0003F0
FC0003F0
FC0003F0
FC0003F0
FC0003F0
FC0003F0
FC0003F0
FC0003F0
FC0003F0
FC0003F0
FC0003F0
FC0003F0
FC0003F0
FC0003F0
FC0003F0
FFFFFFF0
FFFFFFF0
FFFFFFF0
FFFFFFF0
FFFFFFF0
FC0003F0
FC0003F0
FC0003F0
FC0003F0
FC0003F0
FC0003F0
FC0003F0
FC0003F0
FC0003F0
FC0003F0
FC0003F0
FC0003F0
FC0003F0
FC0003F0
FC0003F0
FC0003F0
FC0003F0
FC0003F0
FC0003F0
FC0003F0
780001E0
ENDCHAR
STARTCHAR hcircumflex
ENCODING 293
SWIDTH 561 0
DWIDTH 36 0
BBX 31 52 5 0
BITMAP
00007800
0001FE00
0003FF00
000FFFC0
001FFFE0
787FCFF8
FCFF83FC
FCFE01FE
FCFC007C
FC700038
FC000000
FC000000
FC000000
FC000000
FC000000
FC000000
FC000000
FC000000
FC000000
FC000000
FC080000
FFFFE000
FFFFF800
FFFFFE00
FFFFFF00
FF81FF00
FC003F80
FC001F80
FC001F80
FC000F80
FC000FC0
FC000FC0
FC000FC0
FC000FC0
FC000FC0
FC000FC0
FC000FC0
FC000FC0
FC000FC0
FC000FC0
FC000FC0
FC000FC0
FC000FC0
FC000FC0
FC000FC0
FC000FC0
FC000FC0
FC000FC0
FC000FC0
FC000FC0
FC000FC0
78000780
ENDCHAR
STARTCHAR Itilde
ENCODING 296
SWIDTH 561 0
DWIDTH 36 0
BBX 26 57 5 0
BITMAP
03C00000
0FF00000
1FFC0700
3FFF0F80
7FFFFF80
7C3FFF00
380FFE00
0007FC00
0001F000
00000000
00000000
00000000
00000000
7FFFFF80
7FFFFF80
7FFFFF80
7FFFFF80
7FFFFF00
003F0000
003F0000
003F0000
003F0000
003F0000
003F0000
003F0000
003F0000
003F0000
003F0000
003F0000
003F0000
003F0000
003F0000
003F0000
003F0000
003F0000
003F0000
003F0000
003F0000
003F0000
003F0000
003F0000
003F0000
003F0000
003F0000
003F0000
003F0000
003F0000
003F0000
003F0000
003F0000
003F0000
003F0000
7FFFFF80
FFFFFFC0
FFFFFFC0
FFFFFFC0
7FFFFF80
ENDCHAR
STARTCHAR itilde
ENCODING 297
SWIDTH 561 0
DWIDTH 36 0
BBX 26 47 5 0
BITMAP
03C00000
0FF00000
1FFC0700
3FFF0F80
7FFFFF80
7C3FFF00
380FFE00
0007FC00
0001F000
00000000
00000000
00000000
00000000
00000000
00000000
00000000
1FFE0000
3FFF0000
3FFF0000
3FFF0000
1FFF0000
003F0000
003F0000
003F0000
003F0000
003F0000
003F0000
003F0000
003F0000
003F0000
003F0000
003F0000
003F0000
003F0000
003F0000
003F0000
003F0000
003F0000
003F0000
003F0000
003F0000
003F0000
7FFFFF80
FFFFFFC0
FFFFFFC0
FFFFFFC0
7FFFFF80
ENDCHAR
STARTCHAR Imacron
ENCODING 298
SWIDTH 561 0
DWIDTH 36 0
BBX 26 57 5 0
BITMAP
0FFFFC00
0FFFFC00
0FFFFC00
0FFFFC00
0FFFFC00
00000000
00000000
00000000
00000000
00000000
00000000
00000000
00000000
7FFFFF80
7FFFFF80
7FFFFF80
7FFFFF80
7FFFFF00
003F0000
003F0000
003F0000
003F0000
003F0000
003F0000
003F0000
003F0000
003F0000
003F0000
003F0000
003F0000
003F0000
003F0000
003F0000
003F0000
003F0000
003F0000
003F0000
003F0000
003F0000
003F0000
003F0000
003F0000
003F0000
003F0000
003F0000
003F0000
003F0000
003F0000
003F0000
003F0000
003F0000
003F0000
7FFFFF80
FFFFFFC0
FFFFFFC0
FFFFFFC0
7FFFFF80
ENDCHAR
STARTCHAR imacron
ENCODING 299
SWIDTH 561 0
DWIDTH 36 0
BBX 26 47 5 0
BITMAP
0FFFFC00
0FFFFC00
0FFFFC00
0FFFFC00
0FFFFC00
00000000
00000000
00000000
00000000
00000000
00000000
00000000
00000000
00000000
00000000
00000000
1FFE0000
3FFF0000
3FFF0000
3FFF0000
1FFF0000
003F0000
003F0000
003F0000
003F0000
003F0000
003F0000
003F0000
003F0000
003F0000
003F0000
003F0000
003F0000
003F0000
003F0000
003F0000
003F0000
003F0000
003F0000
003F0000
003F0000
003F0000
7FFFFF80
FFFFFFC0
FFFFFFC0
FFFFFFC0
7FFFFF80
ENDCHAR
STARTCHAR Iogonek
ENCODING 302
SWIDTH 561 0
DWIDTH 36 0
BBX 27 58 5 -14
BITMAP
7FFFFF80
7FFFFF80
7FFFFF80
7FFFFF80
7FFFFF00
003F0000
003F0000
003F0000
003F0000
003F0000
003F0000
003F0000
003F0000
003F0000
003F0000
003F0000
003F0000
003F0000
003F0000
003F0000
003F0000
003F0000
003F0000
003F0000
003F0000
003F0000
003F0000
003F0000
003F0000
003F0000
003F0000
003F0000
003F0000
003F0000
003F0000
003F0000
003F0000
003F0000
003F0000
7FFFFF80
FFFFFFC0
FFFFFFC0
FFFFFFC0
7FFFFFC0
00000780
00000F80
00000F80
00000F80
00000F80
00000F80
00000F80
00000FC0
00000FC0
000007E0
000007E0
000003E0
000001C0
00000180
ENDCHAR
STARTCHAR iogonek
ENCODING 303
SWIDTH 561 0
DWIDTH 36 0
BBX 27 59 5 -13
BITMAP
001E0000
003F0000
003F0000
003F0000
003F0000
001E0000
00000000
00000000
00000000
00000000
00000000
00000000
00000000
00000000
00000000
1FFE0000
3FFF0000
3FFF0000
3FFF0000
1FFF0000
003F0000
003F0000
003F0000
003F0000
003F0000
003F0000
003F0000
003F0000
003F0000
003F0000
003F0000
003F0000
003F0000
003F0000
003F0000
003F0000
003F0000
003F0000
003F0000
003F0000
003F0000
7FFFFF80
FFFFFFC0
FFFFFFC0
FFFFFFC0
7FFFFFC0
00000780
00000F80
00000F80
00000F80
00000F80
00000F80
00000F80
00000FC0
00000FC0
000007E0
000007E0
000003E0
000001C0
ENDCHAR
STARTCHAR Idot
ENCODING 304
SWIDTH 561 0
DWIDTH 36 0
BBX 26 57 5 0
BITMAP
001E0000
003F0000
003F0000
003F0000
003F0000
001E0000
00000000
00000000
00000000
00000000
00000000
00000000
00000000
7FFFFF80
7FFFFF80
7FFFFF80
7FFFFF80
7FFFFF00
003F0000
003F0000
003F0000
003F0000
003F0000
003F0000
003F0000
003F0000
003F0000
003F0000
003F0000
003F0000
003F0000
003F0000
003F0000
003F0000
003F0000
003F0000
003F0000
003F0000
003F0000
003F0000
003F0000
003F0000
003F0000
003F0000
003F0000
003F0000
003F0000
003F0000
003F0000
003F0000
003F0000
003F0000
7FFFFF80
FFFFFFC0
FFFFFFC0
FFFFFFC0
7FFFFF80
ENDCHAR
STARTCHAR dotlessi
ENCODING 305
SWIDTH 561 0
DWIDTH 36 0
BBX 26 31 5 0
BITMAP
1FFE0000
3FFF0000
3FFF0000
3FFF0000
1FFF0000
003F0000
003F0000
003F0000
003F0000
003F0000
003F0000
003F0000
003F0000
003F0000
003F0000
003F0000
003F0000
003F0000
003F0000
003F0000
003F0000
003F0000
003F0000
003F0000
003F0000
003F0000
7FFFFF80
FFFFFFC0
FFFFFFC0
FFFFFFC0
7FFFFF80
ENDCHAR
STARTCHAR IJ
ENCODING 306
SWIDTH 561 0
DWIDTH 36 0
BBX 28 44 3 0
BITMAP
7FF03FE0
7FF87FF0
7FF87FF0
7FF87FF0
3FF03FF0
0FC003F0
0FC003F0
0FC003F0
0FC003F0
0FC003F0
0FC003F0
0FC003F0
0FC003F0
0FC003F0
0FC003F0
0FC003F0
0FC003F0
0FC003F0
0FC003F0
0FC003F0
0FC003F0
0FC003F0
0FC003F0
0FC003F0
0FC003F0
0FC003F0
0FC003F0
0FC003F0
0FC003F0
0FC003F0
0FC003F0
0FC003F0
0FC003F0
0FC003F0
0FC003F0
0FC003F0
0FC003F0
0FC003F0
0FC007E0
7FF87FE0
FFF87FE0
FFF87FC0
FFF87F80
7FF87E00
ENDCHAR
STARTCHAR ij
ENCODING 307
SWIDTH 561 0
DWIDTH 36 0
BBX 26 63 5 -16
BITMAP
00F00780
01F80FC0
01F80FC0
01F80FC0
01F00FC0
01F00780
00000000
00000000
00000000
00000000
00000000
00000000
00000000
00000000
00000000
00000000
7FFFFF80
7FFFFFC0
7FFFFFC0
7FFFFFC0
7FFFFFC0
01F80FC0
01F80FC0
01F80FC0
01F80FC0
01F80FC0
01F80FC0
01F80FC0
01F80FC0
01F80FC0
01F80FC0
01F80FC0
01F80FC0
01F80FC0
01F80FC0
01F80FC0
01F80FC0
01F80FC0
01F80FC0
01F80FC0
01F80FC0
01F80FC0
01F80FC0
01F80FC0
01F80FC0
01F00FC0
01F00FC0
00000FC0
00000FC0
00000F80
00000F80
00000F80
00001F80
00001F80
00003F00
00007F00
0000FE00
0003FE00
7FFFFC00
FFFFF800
FFFFE000
FFFF8000
3FFC0000
ENDCHAR
STARTCHAR Jcircumflex
ENCODING 308
SWIDTH 561 0
DWIDTH 36 0
BBX 26 58 5 -1
BITMAP
001E0000
007F8000
00FFC000
03FFF000
07FFF800
1FF3FE00
3FC0FF00
3F807F00
3F003F00
1C000E00
00000000
00000000
00000000
07FFFF80
07FFFFC0
07FFFFC0
07FFFFC0
07FFFFC0
00000FC0
00000FC0
00000FC0
00000FC0
00000FC0
00000FC0
00000FC0
00000FC0
00000FC0
00000FC0
00000FC0
00000FC0
00000FC0
00000FC0
00000FC0
00000FC0
00000FC0
00000FC0
00000FC0
00000FC0
00000FC0
00000FC0
00000FC0
00000FC0
00000FC0
00000F80
00000F80
00000F80
00001F80
00001F80
00003F00
00007F00
0000FE00
7001FE00
7F0FFC00
FFFFF800
FFFFF000
7FFFC000
1FFF0000
00600000
ENDCHAR
STARTCHAR jcircumflex
ENCODING 309
SWIDTH 561 0
DWIDTH 36 0
BBX 26 57 5 -10
BITMAP
001E0000
007F8000
00FFC000
03FFF000
07FFF800
1FF3FE00
3FC0FF00
3F807F00
3F003F00
1C000E00
00000000
00000000
00000000
00000000
00000000
00000000
3FFFFF80
7FFFFFC0
7FFFFFC0
7FFFFFC0
3FFFFFC0
00000FC0
00000FC0
00000FC0
00000FC0
00000FC0
00000FC0
00000FC0
00000FC0
00000FC0
00000FC0
00000FC0
00000FC0
00000FC0
00000FC0
00000FC0
00000FC0
00000FC0
00000FC0
00000FC0
00000FC0
00000FC0
00000F80
00000F80
00000F80
00000F80
00001F80
00001F80
00003F00
00007F00
0000FE00
7803FE00
FFFFFC00
FFFFF800
FFFFE000
3FFFC000
07FE0000
ENDCHAR
STARTCHAR Lacute
ENCODING 313
SWIDTH 561 0
DWIDTH 36 0
BBX 30 59 5 0
BITMAP
00000800
00003C00
0000FE00
0003FE00
000FFE00
003FFF00
00FFFC00
03FFE000
03FF0000
03F80000
01C00000
00000000
00000000
00000000
00000000
78000000
FC000000
FC000000
FC000000
FC000000
FC000000
FC000000
FC000000
FC000000
FC000000
FC000000
FC000000
FC000000
FC000000
FC000000
FC000000
FC000000
FC000000
FC000000
FC000000
FC000000
FC000000
FC000000
FC000000
FC000000
FC000000
FC000000
FC000000
FC000000
FC000000
FC000000
FC000000
FC000000
FC000000
FC000000
FC000000
FC000000
FC000000
FC000000
FFFFFFF8
FFFFFFFC
FFFFFFFC
FFFFFFFC
7FFFFFF8
ENDCHAR
STARTCHAR lacute
ENCODING 314
SWIDTH 561 0
DWIDTH 36 0
BBX 26 58 5 -1
BITMAP
00000800
00003800
0000FC00
0007FC00
001FFE00
007FFE00
01FFF800
03FFC000
07FE0000
03F00000
03800000
00000000
00000000
7FFC0000
7FFC0000
FFFC0000
FFFC0000
7FFC0000
007C0000
007C0000
007C0000
007C0000
007C0000
007C0000
007C0000
007C0000
007C0000
007C0000
007C0000
007C0000
007C0000
007C0000
007C0000
007C0000
007C0000
007C0000
007C0000
007C0000
007C0000
007C0000
007C0000
007C0000
007C0000
007C0000
007C0000
007C0000
007C0000
007C0000
007C0000
007E0000
007E0000
007E0000
003F8380
003FFF80
001FFFC0
000FFFC0
0003FFC0
00001000
ENDCHAR
STARTCHAR Lcaron
ENCODING 317
SWIDTH 561 0
DWIDTH 36 0
BBX 30 57 5 0
BITMAP
1C000E00
1E001E00
3F807F00
3FC0FF00
1FF3FE00
0FFFFC00
03FFF000
01FFE000
007F8000
001E0000
00000000
00000000
00000000
78000000
FC000000
FC000000
FC000000
FC000000
FC000000
FC000000
FC000000
FC000000
FC000000
FC000000
FC000000
FC000000
FC000000
FC000000
FC000000
FC000000
FC000000
FC000000
FC000000
FC000000
FC000000
FC000000
FC000000
FC000000
FC000000
FC000000
FC000000
FC000000
FC000000
FC000000
FC000000
FC000000
FC000000
FC000000
FC000000
FC000000
FC000000
FC000000
FFFFFFF8
FFFFFFFC
FFFFFFFC
FFFFFFFC
7FFFFFF8
ENDCHAR
STARTCHAR lcaron
ENCODING 318
SWIDTH 561 0
DWIDTH 36 0
BBX 26 58 5 -1
BITMAP
10000800
3C001C00
3E003E00
7F00FF00
7FC1FE00
1FE3FC00
0FFFF800
03FFE000
01FFC000
007F0000
001C0000
00000000
00000000
7FFC0000
7FFC0000
FFFC0000
FFFC0000
7FFC0000
007C0000
007C0000
007C0000
007C0000
007C0000
007C0000
007C0000
007C0000
007C0000
007C0000
007C0000
007C0000
007C0000
007C0000
007C0000
007C0000
007C0000
007C0000
007C0000
007C0000
007C0000
007C0000
007C0000
007C0000
007C0000
007C0000
007C0000
007C0000
007C0000
007C0000
007C0000
007E0000
007E0000
007E0000
003F8380
003FFF80
001FFFC0
000FFFC0
0003FFC0
00001000
ENDCHAR
STARTCHAR Ldot
ENCODING 319
SWIDTH 561 0
DWIDTH 36 0
BBX 30 44 5 0
BITMAP
78000000
FC000000
FC000000
FC000000
FC000000
FC000000
FC000000
FC000000
FC000000
FC000000
FC000000
FC000000
FC000000
FC000000
FC000000
FC000000
FC000000
FC000000
FC000000
FC000000
FC000000
FC000000
FC007C00
FC007C00
FC007C00
FC007C00
FC007C00
FC007C00
FC000000
FC000000
FC000000
FC000000
FC000000
FC000000
FC000000
FC000000
FC000000
FC000000
FC000000
FFFFFFF8
FFFFFFFC
FFFFFFFC
FFFFFFFC
7FFFFFF8
ENDCHAR
STARTCHAR ldot
ENCODING 320
SWIDTH 561 0
DWIDTH 36 0
BBX 26 48 5 -1
BITMAP
7FFC0000
7FFC0000
FFFC0000
FFFC0000
7FFC0000
007C0000
007C0000
007C0000
007C0000
007C0000
007C0000
007C0000
007C0000
007C0000
007C0000
007C0000
007C0000
007C0000
007C0000
007C0000
007C0000
007C0000
007C0000
007C0000
007C0000
007C0000
007C0000
007C0000
007C07C0
007C07C0
007C07C0
007C07C0
007C07C0
007C07C0
007C0000
007C0000
007C0000
007C0000
007C0000
007E0000
007E0000
007E0000
003F8380
003FFF80
001FFFC0
000FFFC0
0003FFC0
00001000
ENDCHAR
STARTCHAR Lslash
ENCODING 321
SWIDTH 561 0
DWIDTH 36 0
BBX 35 44 0 0
BITMAP
03C0000000
07E0000000
07E0000000
07E0000000
07E0000000
07E0000000
07E0000000
07E0000000
07E0000000
07E0000000
07E0000000
07E0000000
07E0800000
07E1E00000
07E3E00000
07E7F00000
07FFF00000
07FFC00000
07FF800000
07FF000000
07FC000000
0FF8000000
1FE0000000
3FE0000000
7FE0000000
FFE0000000
7FE0000000
37E0000000
07E0000000
07E0000000
07E0000000
07E0000000
07E0000000
07E0000000
07E0000000
07E0000000
07E0000000
07E0000000
07E0000000
07FFFFFFC0
07FFFFFFE0
07FFFFFFE0
07FFFFFFE0
03FFFFFFC0
ENDCHAR
STARTCHAR lslash
ENCODING 322
SWIDTH 561 0
DWIDTH 36 0
BBX 26 48 5 -1
BITMAP
7FFC0000
7FFC0000
FFFC0000
FFFC0000
7FFC0000
007C0000
007C0000
007C0000
007C0000
007C0000
007C0000
007C0000
007C0000
007C0000
007C0000
007C2000
007C7000
007CF800
007FFC00
007FF800
007FF000
007FE000
007F8000
01FF0000
03FE0000
07FC0000
1FFC0000
3FFC0000
3FFC0000
1F7C0000
0C7C0000
007C0000
007C0000
007C0000
007C0000
007C0000
007C0000
007C0000
007C0000
007E0000
007E0000
007E0000
003F8380
003FFF80
001FFFC0
000FFFC0
0003FFC0
00001000
ENDCHAR
STARTCHAR Nacute
ENCODING 323
SWIDTH 561 0
DWIDTH 36 0
BBX 28 59 4 0
BITMAP
00000400
00001E00
00007F00
0001FF00
0007FF00
001FFF80
007FFE00
01FFF000
01FF8000
01FC0000
00E00000
00000000
00000000
00000000
00000000
780001E0
FC0003F0
FE0003F0
FE0003F0
FF0003F0
FF0003F0
FF8003F0
FF8003F0
FFC003F0
FFC003F0
FFE003F0
FFE003F0
FFF003F0
FDF003F0
FDF803F0
FCF803F0
FCFC03F0
FC7C03F0
FC7E03F0
FC3E03F0
FC3F03F0
FC1F03F0
FC1F83F0
FC0F83F0
FC0FC3F0
FC07C3F0
FC03E3F0
FC03E3F0
FC01F3F0
FC01F3F0
FC00FBF0
FC00FBF0
FC007FF0
FC007FF0
FC003FF0
FC003FF0
FC001FF0
FC001FF0
FC000FF0
FC000FF0
FC0007F0
FC0007F0
FC0003F0
780001E0
ENDCHAR
STARTCHAR nacute
ENCODING 324
SWIDTH 561 0
DWIDTH 36 0
BBX 26 49 5 0
BITMAP
00000800
00003C00
0000FE00
0003FE00
000FFE00
003FFF00
00FFFC00
03FFE000
03FF0000
03F80000
01C00000
00000000
00000000
00000000
00000000
00000000
00000000
00080000
7FFFE000
FFFFF800
FFFFFE00
FFFFFF00
FC01FF00
FC003F80
FC001F80
FC001F80
FC000F80
FC000FC0
FC000FC0
FC000FC0
FC000FC0
FC000FC0
FC000FC0
FC000FC0
FC000FC0
FC000FC0
FC000FC0
FC000FC0
FC000FC0
FC000FC0
FC000FC0
FC000FC0
FC000FC0
FC000FC0
FC000FC0
FC000FC0
FC000FC0
FC000FC0
78000780
ENDCHAR
STARTCHAR Ncaron
ENCODING 327
SWIDTH 561 0
DWIDTH 36 0
BBX 28 57 4 0
BITMAP
0E000700
0F000F00
1FC03F80
1FE07F80
0FF9FF00
07FFFE00
01FFF800
00FFF000
003FC000
000F0000
00000000
00000000
00000000
780001E0
FC0003F0
FE0003F0
FE0003F0
FF0003F0
FF0003F0
FF8003F0
FF8003F0
FFC003F0
FFC003F0
FFE003F0
FFE003F0
FFF003F0
FDF003F0
FDF803F0
FCF803F0
FCFC03F0
FC7C03F0
FC7E03F0
FC3E03F0
FC3F03F0
FC1F03F0
FC1F83F0
FC0F83F0
FC0FC3F0
FC07C3F0
FC03E3F0
FC03E3F0
FC01F3F0
FC01F3F0
FC00FBF0
FC00FBF0
FC007FF0
FC007FF0
FC003FF0
FC003FF0
FC001FF0
FC001FF0
FC000FF0
FC000FF0
FC0007F0
FC0007F0
FC0003F0
780001E0
ENDCHAR
STARTCHAR ncaron
ENCODING 328
SWIDTH 561 0
DWIDTH 36 0
BBX 26 47 5 0
BITMAP
1C000E00
1E001E00
3F807F00
3FC0FF00
1FF3FE00
0FFFFC00
03FFF000
01FFE000
007F8000
001E0000
00000000
00000000
00000000
00000000
00000000
00080000
7FFFE000
FFFFF800
FFFFFE00
FFFFFF00
FC01FF00
FC003F80
FC001F80
FC001F80
FC000F80
FC000FC0
FC000FC0
FC000FC0
FC000FC0
FC000FC0
FC000FC0
FC000FC0
FC000FC0
FC000FC0
FC000FC0
FC000FC0
FC000FC0
FC000FC0
FC000FC0
FC000FC0
FC000FC0
FC000FC0
FC000FC0
FC000FC0
FC000FC0
FC000FC0
78000780
ENDCHAR
STARTCHAR Omacron
ENCODING 332
SWIDTH 561 0
DWIDTH 36 0
BBX 26 58 5 -1
BITMAP
0FFFFC00
0FFFFC00
0FFFFC00
0FFFFC00
0FFFFC00
00000000
00000000
00000000
00000000
00000000
00000000
00000000
00080000
00FFC000
03FFF000
07FFF800
0FFFFC00
1FE3FE00
3F80FE00
3F003F00
3F003F00
7E001F80
7E001F80
7C000F80
7C000F80
FC000FC0
FC000FC0
FC000FC0
FC000FC0
FC000FC0
FC000FC0
FC000FC0
FC000FC0
FC000FC0
FC000FC0
FC000FC0
FC000FC0
FC000FC0
FC000FC0
FC000FC0
FC000FC0
FC000FC0
FC000FC0
FC000FC0
FC000F80
7C000F80
7C000F80
7E001F80
7E001F80
3F003F00
3F003F00
3F807E00
1FF3FE00
0FFFFC00
07FFF800
03FFF000
00FFC000
000C0000
ENDCHAR
STARTCHAR omacron
ENCODING 333
SWIDTH 561 0
DWIDTH 36 0
BBX 26 48 5 -1
BITMAP
0FFFFC00
0FFFFC00
0FFFFC00
0FFFFC00
0FFFFC00
00000000
00000000
00000000
00000000
00000000
00000000
00000000
00000000
00000000
00000000
00040000
00FFC000
03FFF000
07FFF800
0FFFFC00
1FE3FE00
1F807E00
3F003F00
3F003F00
7E001F80
7E001F80
7C000F80
7C000F80
FC000F80
FC000FC0
FC000FC0
FC000FC0
FC000FC0
FC000FC0
FC000F80
7C000F80
7C000F80
7E001F80
7E001F80
3F003F00
3F003F00
1F807E00
1FF3FE00
0FFFFC00
07FFF800
03FFF000
00FFC000
00040000
ENDCHAR
STARTCHAR Ohungarumlaut
ENCODING 336
SWIDTH 561 0
DWIDTH 36 0
BBX 28 58 5 -1
BITMAP
00600180
00F003C0
01F807E0
03FC0FF0
07F80FE0
0FF01FC0
1FE03F80
1FC07F00
1F807E00
1F003C00
0E001800
00000000
00080000
00FFC000
03FFF000
07FFF800
0FFFFC00
1FE3FE00
3F80FE00
3F003F00
3F003F00
7E001F80
7E001F80
7C000F80
7C000F80
FC000FC0
FC000FC0
FC000FC0
FC000FC0
FC000FC0
FC000FC0
FC000FC0
FC000FC0
FC000FC0
FC000FC0
FC000FC0
FC000FC0
FC000FC0
FC000FC0
FC000FC0
FC000FC0
FC000FC0
FC000FC0
FC000FC0
FC000F80
7C000F80
7C000F80
7E001F80
7E001F80
3F003F00
3F003F00
3F807E00
1FF3FE00
0FFFFC00
07FFF800
03FFF000
00FFC000
000C0000
ENDCHAR
STARTCHAR ohungarumlaut
ENCODING 337
SWIDTH 561 0
DWIDTH 36 0
BBX 28 48 5 -1
BITMAP
00600180
00F003C0
01F807E0
03FC0FF0
07F80FE0
0FF01FC0
1FE03F80
1FC07F00
1F807E00
1F003C00
0E001800
00000000
00000000
00000000
00000000
00040000
00FFC000
03FFF000
07FFF800
0FFFFC00
1FE3FE00
1F807E00
3F003F00
3F003F00
7E001F80
7E001F80
7C000F80
7C000F80
FC000F80
FC000FC0
FC000FC0
FC000FC0
FC000FC0
FC000FC0
FC000F80
7C000F80
7C000F80
7E001F80
7E001F80
3F003F00
3F003F00
1F807E00
1FF3FE00
0FFFFC00
07FFF800
03FFF000
00FFC000
00040000
ENDCHAR
STARTCHAR OE
ENCODING 338
SWIDTH 561 0
DWIDTH 36 0
BBX 27 44 5 0
BITMAP
007FFFC0
01FFFFE0
07FFFFE0
0FFFFFE0
1FFFFFC0
1FC7C000
3F07C000
3F07C000
7E07C000
7E07C000
7C07C000
7C07C000
FC07C000
FC07C000
FC07C000
FC07C000
FC07C000
FC07C000
FC07C000
FC07FFC0
FC07FFC0
FC07FFC0
FC07FFC0
FC07FFC0
FC07C000
FC07C000
FC07C000
FC07C000
FC07C000
FC07C000
FC07C000
FC07C000
7C07C000
7C07C000
7E07C000
7E07C000
3F07C000
3F07C000
1FC7C000
1FFFFFE0
0FFFFFE0
07FFFFE0
03FFFFE0
007FFFE0
ENDCHAR
STARTCHAR oe
ENCODING 339
SWIDTH 561 0
DWIDTH 36 0
BBX 27 33 5 -1
BITMAP
00802000
07E0FC00
0FF1FF00
1FFBFF00
3FFFFF80
3F7FDF80
3E3FCFC0
7C3F87C0
7C3F87C0
7C3F87C0
7C1F87E0
7C1F07E0
FC1F03E0
FC1FFFE0
FC1FFFE0
FC1FFFE0
FC1FFFE0
FC1FFFE0
FC1F0000
FC1F0000
FC1F0000
7C1F0000
7C1F8000
7C3F8000
7C3F8000
7E3F8000
3E3FC000
3F7FE780
3FFBFF80
1FFBFFC0
0FF1FFC0
07E0FF80
00801000
ENDCHAR
STARTCHAR Racute
ENCODING 340
SWIDTH 561 0
DWIDTH 36 0
BBX 30 59 5 0
BITMAP
00000800
00003C00
0000FE00
0003FE00
000FFE00
003FFF00
00FFFC00
03FFE000
03FF0000
03F80000
01C00000
00000000
00000000
00000000
00000000
7FFF8000
FFFFE000
FFFFF800
FFFFFC00
FFFFFE00
FC00FF00
FC003F80
FC001F80
FC000FC0
FC000FC0
FC0007C0
FC0007C0
FC0007C0
FC0007C0
FC0007C0
FC000FC0
FC000FC0
FC001F80
FC003F80
FC01FF00
FFFFFF00
FFFFFE00
FFFFF800
FFFFF000
FFFFF000
FC01F800
FC00F800
FC00FC00
FC007C00
FC007E00
FC003F00
FC003F00
FC001F80
FC001F80
FC000FC0
FC000FC0
FC0007E0
FC0007E0
FC0003F0
FC0003F0
FC0001F8
FC0001F8
FC0000FC
780000FC
ENDCHAR
STARTCHAR racute
ENCODING 341
SWIDTH 561 0
DWIDTH 36 0
BBX 26 49 5 0
BITMAP
00000800
00003C00
0000FE00
0003FE00
000FFE00
003FFF00
00FFFC00
03FFE000
03FF0000
03F80000
01C00000
00000000
00000000
00000000
00000000
00000000
00000000
00080000
7FFFF000
FFFFFC00
FFFFFE00
FFFFFF00
FC01FF80
FC003F80
FC001F80
FC000FC0
FC000FC0
FC000FC0
FC000780
FC000000
FC000000
FC000000
FC000000
FC000000
FC000000
FC000000
FC000000
FC000000
FC000000
FC000000
FC000000
FC000000
FC000000
FC000000
FC000000
FC000000
FC000000
FC000000
78000000
ENDCHAR
STARTCHAR Rcaron
ENCODING 344
SWIDTH 561 0
DWIDTH 36 0
BBX 30 57 5 0
BITMAP
1C000E00
1E001E00
3F807F00
3FC0FF00
1FF3FE00
0FFFFC00
03FFF000
01FFE000
007F8000
001E0000
00000000
00000000
00000000
7FFF8000
FFFFE000
FFFFF800
FFFFFC00
FFFFFE00
FC00FF00
FC003F80
FC001F80
FC000FC0
FC000FC0
FC0007C0
FC0007C0
FC0007C0
FC0007C0
FC0007C0
FC000FC0
FC000FC0
FC001F80
FC003F80
FC01FF00
FFFFFF00
FFFFFE00
FFFFF800
FFFFF000
FFFFF000
FC01F800
FC00F800
FC00FC00
FC007C00
FC007E00
FC003F00
FC003F00
FC001F80
FC001F80
FC000FC0
FC000FC0
FC0007E0
FC0007E0
FC0003F0
FC0003F0
FC0001F8
FC0001F8
FC0000FC
780000FC
ENDCHAR
STARTCHAR rcaron
ENCODING 345
SWIDTH 561 0
DWIDTH 36 0
BBX 26 47 5 0
BITMAP
1C000E00
1E001E00
3F807F00
3FC0FF00
1FF3FE00
0FFFFC00
03FFF000
01FFE000
007F8000
001E0000
00000000
00000000
00000000
00000000
00000000
00080000
7FFFF000
FFFFFC00
FFFFFE00
FFFFFF00
FC01FF80
FC003F80
FC001F80
FC000FC0
FC000FC0
FC000FC0
FC000780
FC000000
FC000000
FC000000
FC000000
FC000000
FC000000
FC000000
FC000000
FC000000
FC000000
FC000000
FC000000
FC000000
FC000000
FC000000
FC000000
FC000000
FC000000
FC000000
78000000
ENDCHAR
STARTCHAR Sacute
ENCODING 346
SWIDTH 561 0
DWIDTH 36 0
BBX 27 59 5 -1
BITMAP
00000800
00003C00
0000FE00
0003FE00
000FFE00
003FFF00
00FFFC00
03FFE000
03FF0000
03F80000
01C00000
00000000
00000000
00020000
007FFC00
03FFFF00
07FFFF00
1FFFFF00
3FF07F00
3F800600
7F000000
7E000000
FC000000
FC000000
FC000000
FC000000
FC000000
FC000000
7C000000
7E000000
7F000000
3FC00000
1FF00000
1FFF0000
0FFFE000
03FFF800
00FFFC00
003FFE00
0003FF00
00007F80
00001FC0
00000FC0
000007E0
000007E0
000003E0
000003E0
000003E0
000003E0
000007E0
000007C0
00000FC0
00001F80
30007F80
7F07FF00
7FFFFE00
FFFFFC00
7FFFF000
0FFF8000
00300000
ENDCHAR
STARTCHAR sacute
ENCODING 347
SWIDTH 561 0
DWIDTH 36 0
BBX 23 50 6 -1
BITMAP
000010
000078
0001FC
0007FC
001FFC
007FFE
01FFF8
07FFC0
07FE00
07F000
038000
000000
000000
000000
000000
000000
000000
000800
03FFF8
0FFFF8
1FFFF8
3FFFF8
7FE0F0
7F0000
7E0000
7C0000
7C0000
7C0000
7E0000
7F0000
3FF000
1FFF80
0FFFE0
03FFF0
00FFF8
0003FC
0000FE
00007E
00003E
00003E
00003E
00003E
00007E
0000FE
7C07FC
7FFFF8
7FFFF0
FFFFE0
7FFF80
006000
ENDCHAR
STARTCHAR Scircumflex
ENCODING 348
SWIDTH 561 0
DWIDTH 36 0
BBX 27 57 5 -1
BITMAP
001E0000
007F8000
00FFC000
03FFF000
07FFF800
1FF3FE00
3FC0FF00
3F807F00
3F003F00
1C000E00
00000000
00020000
007FFC00
03FFFF00
07FFFF00
1FFFFF00
3FF07F00
3F800600
7F000000
7E000000
FC000000
FC000000
FC000000
FC000000
FC000000
FC000000
7C000000
7E000000
7F000000
3FC00000
1FF00000
1FFF0000
0FFFE000
03FFF800
00FFFC00
003FFE00
0003FF00
00007F80
00001FC0
00000FC0
000007E0
000007E0
000003E0
000003E0
000003E0
000003E0
000007E0
000007C0
00000FC0
00001F80
30007F80
7F07FF00
7FFFFE00
FFFFFC00
7FFFF000
0FFF8000
00300000
ENDCHAR
STARTCHAR scircumflex
ENCODING 349
SWIDTH 561 0
DWIDTH 36 0
BBX 23 48 6 -1
BITMAP
003C00
00FF00
01FF80
07FFE0
0FFFF0
3FE7FC
7F81FE
7F00FE
7E007E
38001C
000000
000000
000000
000000
000000
000800
03FFF8
0FFFF8
1FFFF8
3FFFF8
7FE0F0
7F0000
7E0000
7C0000
7C0000
7C0000
7E0000
7F0000
3FF000
1FFF80
0FFFE0
03FFF0
00FFF8
0003FC
0000FE
00007E
00003E
00003E
00003E
00003E
00007E
0000FE
7C07FC
7FFFF8
7FFFF0
FFFFE0
7FFF80
006000
ENDCHAR
STARTCHAR Scedilla
ENCODING 350
SWIDTH 561 0
DWIDTH 36 0
BBX 27 61 5 -16
BITMAP
00020000
007FFC00
03FFFF00
07FFFF00
1FFFFF00
3FF07F00
3FC00600
7F000000
7E000000
FC000000
FC000000
FC000000
FC000000
FC000000
FC000000
7C000000
7E000000
7F000000
3F800000
1FF00000
1FFF0000
0FFFE000
03FFF800
00FFFC00
003FFE00
0003FF00
00007F80
00001FC0
00000FC0
000007E0
000007E0
000003E0
000003E0
000003E0
000003E0
000007E0
000007E0
00000FC0
00001FC0
30007F80
7F07FF00
7FFFFE00
FFFFFC00
7FFFF000
0FFFC000
003E0000
003E0000
003C0000
007C0000
007FF800
003FFE00
001FFF00
000FFF00
00003F00
00003F00
00003F00
0000FE00
01FFFE00
01FFFC00
01FFF000
00FF8000
ENDCHAR
STARTCHAR scedilla
ENCODING 351
SWIDTH 561 0
DWIDTH 36 0
BBX 23 48 6 -16
BITMAP
000800
03FFF8
0FFFF8
1FFFF8
3FFFF8
7FE0F0
7F0000
7E0000
7C0000
7C0000
7C0000
7E0000
7F0000
3FE000
1FFF00
0FFFE0
03FFF0
00FFF8
0003FC
0000FE
00007E
00003E
00003E
00003E
00003E
00007E
0000FE
7C07FC
7FFFFC
7FFFF8
FFFFF0
7FFFC0
007E00
007C00
007800
00F800
00FFF0
007FFC
003FFE
001FFE
00007E
00007E
00007E
0001FC
03FFFC
03FFF8
03FFE0
01FF00
ENDCHAR
STARTCHAR Scaron
ENCODING 352
SWIDTH 561 0
DWIDTH 36 0
BBX 27 57 5 -1
BITMAP
1C000E00
1E001E00
3F807F00
3FC0FF00
1FF3FE00
0FFFFC00
03FFF000
01FFE000
007F8000
001E0000
00000000
00020000
007FFC00
03FFFF00
07FFFF00
1FFFFF00
3FF07F00
3F800600
7F000000
7E000000
FC000000
FC000000
FC000000
FC000000
FC000000
FC000000
7C000000
7E000000
7F000000
3FC00000
1FF00000
1FFF0000
0FFFE000
03FFF800
00FFFC00
003FFE00
0003FF00
00007F80
00001FC0
00000FC0
000007E0
000007E0
000003E0
000003E0
000003E0
000003E0
000007E0
000007C0
00000FC0
00001F80
30007F80
7F07FF00
7FFFFE00
FFFFFC00
7FFFF000
0FFF8000
00300000
ENDCHAR
STARTCHAR scaron
ENCODING 353
SWIDTH 561 0
DWIDTH 36 0
BBX 23 48 6 -1
BITMAP
38001C
3C003C
7F00FE
7F81FE
3FE7FC
1FFFF8
07FFE0
03FFC0
00FF00
003C00
000000
000000
000000
000000
000000
000800
03FFF8
0FFFF8
1FFFF8
3FFFF8
7FE0F0
7F0000
7E0000
7C0000
7C0000
7C0000
7E0000
7F0000
3FF000
1FFF80
0FFFE0
03FFF0
00FFF8
0003FC
0000FE
00007E
00003E
00003E
00003E
00003E
00007E
0000FE
7C07FC
7FFFF8
7FFFF0
FFFFE0
7FFF80
006000
ENDCHAR
STARTCHAR uni0162
ENCODING 354
SWIDTH 561 0
DWIDTH 36 0
BBX 34 60 1 -16
BITMAP
7FFFFFFF80
FFFFFFFFC0
FFFFFFFFC0
FFFFFFFFC0
7FFFFFFF80
0003F00000
0003F00000
0003F00000
0003F00000
0003F00000
0003F00000
0003F00000
0003F00000
0003F00000
0003F00000
0003F00000
0003F00000
0003F00000
0003F00000
0003F00000
0003F00000
0003F00000
0003F00000
0003F00000
0003F00000
0003F00000
0003F00000
0003F00000
0003F00000
0003F00000
0003F00000
0003F00000
0003F00000
0003F00000
0003F00000
0003F00000
0003F00000
0003F00000
0003F00000
0003F00000
0003F00000
0003F00000
0003F00000
0003E00000
0001E00000
0003E00000
0003C00000
0007C00000
0007FF8000
0003FFE000
0001FFF000
0000FFF000
000003F000
000003F000
000003F000
00000FE000
001FFFE000
001FFFC000
001FFF0000
000FF80000
ENDCHAR
STARTCHAR uni0163
ENCODING 355
SWIDTH 561 0
DWIDTH 36 0
BBX 26 57 5 -16
BITMAP
01F00000
01F00000
01F00000
01F00000
01F00000
01F00000
01F00000
01F00000
01F00000
01F00000
7FFFFE00
FFFFFF00
FFFFFF00
FFFFFF00
7FFFFE00
01F00000
01F00000
01F00000
01F00000
01F00000
01F00000
01F00000
01F00000
01F00000
01F00000
01F00000
01F00000
01F00000
01F00000
01F00000
01F00000
01F00000
01F00000
01F80000
01F80000
00FC0000
00FF0F80
007FFF80
003FFFC0
001FFFC0
001FFF00
001E6000
003E0000
003C0000
007C0000
007FF800
003FFE00
001FFF00
000FFF00
00003F00
00003F00
00003F00
0000FE00
01FFFE00
01FFFC00
01FFF000
00FF8000
ENDCHAR
STARTCHAR Tcaron
ENCODING 356
SWIDTH 561 0
DWIDTH 36 0
BBX 34 57 1 0
BITMAP
01C000E000
01E001E000
03F807F000
03FC0FF000
01FF3FE000
00FFFFC000
003FFF0000
001FFE0000
0007F80000
0001E00000
0000000000
0000000000
0000000000
7FFFFFFF80
FFFFFFFFC0
FFFFFFFFC0
FFFFFFFFC0
7FFFFFFF80
0003F00000
0003F00000
0003F00000
0003F00000
0003F00000
0003F00000
0003F00000
0003F00000
0003F00000
0003F00000
0003F00000
0003F00000
0003F00000
0003F00000
0003F00000
0003F00000
0003F00000
0003F00000
0003F00000
0003F00000
0003F00000
0003F00000
0003F00000
0003F00000
0003F00000
0003F00000
0003F00000
0003F00000
0003F00000
0003F00000
0003F00000
0003F00000
0003F00000
0003F00000
0003F00000
0003F00000
0003F00000
0003F00000
0001E00000
ENDCHAR
STARTCHAR tcaron
ENCODING 357
SWIDTH 561 0
DWIDTH 36 0
BBX 26 54 5 -1
BITMAP
00007F00
00007F80
0000FF80
0000FF80
0000FF80
0000FF80
00007F80
00000F80
00000F80
00000F80
00000F00
00C01F00
01F01F00
01F01F00
01F03F00
01F0FE00
01F1FE00
01F1FC00
01F1F800
01F0F000
01F00000
01F00000
7FFFFE00
FFFFFF00
FFFFFF00
FFFFFF00
7FFFFE00
01F00000
01F00000
01F00000
01F00000
01F00000
01F00000
01F00000
01F00000
01F00000
01F00000
01F00000
01F00000
01F00000
01F00000
01F00000
01F00000
01F00000
01F00000
01F80000
01F80000
00FC0000
00FF0F80
007FFF80
003FFFC0
001FFFC0
0007FF00
00006000
ENDCHAR
STARTCHAR Tbar
ENCODING 358
SWIDTH 561 0
DWIDTH 36 0
BBX 34 57 1 0
BITMAP
00FFFFC000
00FFFFC000
00FFFFC000
00FFFFC000
00FFFFC000
0000000000
0000000000
0000000000
0000000000
0000000000
0000000000
0000000000
0000000000
7FFFFFFF80
FFFFFFFFC0
FFFFFFFFC0
FFFFFFFFC0
7FFFFFFF80
0003F00000
0003F00000
0003F00000
0003F00000
0003F00000
0003F00000
0003F00000
0003F00000
0003F00000
0003F00000
0003F00000
0003F00000
0003F00000
0003F00000
0003F00000
0003F00000
0003F00000
0003F00000
0003F00000
0003F00000
0003F00000
0003F00000
0003F00000
0003F00000
0003F00000
0003F00000
0003F00000
0003F00000
0003F00000
0003F00000
0003F00000
0003F00000
0003F00000
0003F00000
0003F00000
0003F00000
0003F00000
0003F00000
0001E00000
ENDCHAR
STARTCHAR tbar
ENCODING 359
SWIDTH 561 0
DWIDTH 36 0
BBX 26 43 5 -1
BITMAP
00C00000
01F00000
01F00000
01F00000
01F00000
01F00000
01F00000
01F00000
01F00000
01F00000
01F00000
7FFFFE00
FFFFFF00
FFFFFF00
FFFFFF00
7FFFFE00
01F00000
01F00000
01F00000
01F00000
01F00000
01F00000
01F00000
7FFFFE00
FFFFFF00
FFFFFF00
FFFFFF00
7FFFFE00
01F00000
01F00000
01F00000
01F00000
01F00000
01F00000
01F80000
00F80000
00FC0000
00FF0F80
007FFF80
003FFFC0
001FFFC0
0007FF00
00006000
ENDCHAR
STARTCHAR Utilde
ENCODING 360
SWIDTH 561 0
DWIDTH 36 0
BBX 26 58 5 -1
BITMAP
03C00000
0FF00000
1FFC0700
3FFF0F80
7FFFFF80
7C3FFF00
380FFE00
0007FC00
0001F000
00000000
00000000
00000000
00000000
78000780
FC000FC0
FC000FC0
FC000FC0
FC000FC0
FC000FC0
FC000FC0
FC000FC0
FC000FC0
FC000FC0
FC000FC0
FC000FC0
FC000FC0
FC000FC0
FC000FC0
FC000FC0
FC000FC0
FC000FC0
FC000FC0
FC000FC0
FC000FC0
FC000FC0
FC000FC0
FC000FC0
FC000FC0
FC000FC0
FC000FC0
FC000FC0
FC000FC0
FC000FC0
FC000FC0
FC000FC0
FC000FC0
FC000F80
7C000F80
7C000F80
7E001F80
7E001F80
3F003F00
3FE1FF00
1FFFFE00
0FFFFC00
07FFF800
01FFE000
000C0000
ENDCHAR
STARTCHAR utilde
ENCODING 361
SWIDTH 561 0
DWIDTH 36 0
BBX 26 48 5 -1
BITMAP
03C00000
0FF00000
1FFC0700
3FFF0F80
7FFFFF80
7C3FFF00
380FFE00
0007FC00
0001F000
00000000
00000000
00000000
00000000
00000000
00000000
00000000
78000780
FC000FC0
FC000FC0
FC000FC0
FC000FC0
FC000FC0
FC000FC0
FC000FC0
FC000FC0
FC000FC0
FC000FC0
FC000FC0
FC000FC0
FC000FC0
FC000FC0
FC000FC0
FC000FC0
FC000FC0
FC000FC0
FC000FC0
FC000FC0
FC000FC0
7C000FC0
7C000FC0
7E000FC0
7F000FC0
3FE00FC0
3FFFFFC0
1FFFFFC0
07FFFFC0
01FFFF80
00070000
ENDCHAR
STARTCHAR Umacron
ENCODING 362
SWIDTH 561 0
DWIDTH 36 0
BBX 26 58 5 -1
BITMAP
0FFFFC00
0FFFFC00
0FFFFC00
0FFFFC00
0FFFFC00
00000000
00000000
00000000
00000000
00000000
00000000
00000000
00000000
78000780
FC000FC0
FC000FC0
FC000FC0
FC000FC0
FC000FC0
FC000FC0
FC000FC0
FC000FC0
FC000FC0
FC000FC0
FC000FC0
FC000FC0
FC000FC0
FC000FC0
FC000FC0
FC000FC0
FC000FC0
FC000FC0
FC000FC0
FC000FC0
FC000FC0
FC000FC0
FC000FC0
FC000FC0
FC000FC0
FC000FC0
FC000FC0
FC000FC0
FC000FC0
FC000FC0
FC000FC0
FC000FC0
FC000F80
7C000F80
7C000F80
7E001F80
7E001F80
3F003F00
3FE1FF00
1FFFFE00
0FFFFC00
07FFF800
01FFE000
000C0000
ENDCHAR
STARTCHAR umacron
ENCODING 363
SWIDTH 561 0
DWIDTH 36 0
BBX 26 48 5 -1
BITMAP
0FFFFC00
0FFFFC00
0FFFFC00
0FFFFC00
0FFFFC00
00000000
00000000
00000000
00000000
00000000
00000000
00000000
00000000
00000000
00000000
00000000
78000780
FC000FC0
FC000FC0
FC000FC0
FC000FC0
FC000FC0
FC000FC0
FC000FC0
FC000FC0
FC000FC0
FC000FC0
FC000FC0
FC000FC0
FC000FC0
FC000FC0
FC000FC0
FC000FC0
FC000FC0
FC000FC0
FC000FC0
FC000FC0
FC000FC0
7C000FC0
7C000FC0
7E000FC0
7F000FC0
3FE00FC0
3FFFFFC0
1FFFFFC0
07FFFFC0
01FFFF80
00070000
ENDCHAR
STARTCHAR Ubreve
ENCODING 364
SWIDTH 561 0
DWIDTH 36 0
BBX 26 59 5 -1
BITMAP
3C000F00
7E001F00
3E001F00
3F003F00
3F007E00
1FC0FE00
0FFFFC00
07FFF800
03FFE000
007F8000
00000000
00000000
00000000
00000000
78000780
FC000FC0
FC000FC0
FC000FC0
FC000FC0
FC000FC0
FC000FC0
FC000FC0
FC000FC0
FC000FC0
FC000FC0
FC000FC0
FC000FC0
FC000FC0
FC000FC0
FC000FC0
FC000FC0
FC000FC0
FC000FC0
FC000FC0
FC000FC0
FC000FC0
FC000FC0
FC000FC0
FC000FC0
FC000FC0
FC000FC0
FC000FC0
FC000FC0
FC000FC0
FC000FC0
FC000FC0
FC000FC0
FC000F80
7C000F80
7C000F80
7E001F80
7E001F80
3F003F00
3FE1FF00
1FFFFE00
0FFFFC00
07FFF800
01FFE000
000C0000
ENDCHAR
STARTCHAR ubreve
ENCODING 365
SWIDTH 561 0
DWIDTH 36 0
BBX 26 49 5 -1
BITMAP
3C000F00
7E001F00
3E001F00
3F003F00
3F007E00
1FC0FE00
0FFFFC00
07FFF800
03FFE000
007F8000
00000000
00000000
00000000
00000000
00000000
00000000
00000000
78000780
FC000FC0
FC000FC0
FC000FC0
FC000FC0
FC000FC0
FC000FC0
FC000FC0
FC000FC0
FC000FC0
FC000FC0
FC000FC0
FC000FC0
FC000FC0
FC000FC0
FC000FC0
FC000FC0
FC000FC0
FC000FC0
FC000FC0
FC000FC0
FC000FC0
7C000FC0
7C000FC0
7E000FC0
7F000FC0
3FE00FC0
3FFFFFC0
1FFFFFC0
07FFFFC0
01FFFF80
00070000
ENDCHAR
STARTCHAR Uring
ENCODING 366
SWIDTH 561 0
DWIDTH 36 0
BBX 26 59 5 -1
BITMAP
003F0000
00FFC000
01FFE000
01FFE000
03F3F000
03E1F000
03E1F000
03F3F000
01FFE000
01FFE000
00FFC000
003F0000
00000000
00000000
78000780
FC000FC0
FC000FC0
FC000FC0
FC000FC0
FC000FC0
FC000FC0
FC000FC0
FC000FC0
FC000FC0
FC000FC0
FC000FC0
FC000FC0
FC000FC0
FC000FC0
FC000FC0
FC000FC0
FC000FC0
FC000FC0
FC000FC0
FC000FC0
FC000FC0
FC000FC0
FC000FC0
FC000FC0
FC000FC0
FC000FC0
FC000FC0
FC000FC0
FC000FC0
FC000FC0
FC000FC0
FC000FC0
FC000F80
7C000F80
7C000F80
7E001F80
7E001F80
3F003F00
3FE1FF00
1FFFFE00
0FFFFC00
07FFF800
01FFE000
000C0000
ENDCHAR
STARTCHAR uring
ENCODING 367
SWIDTH 561 0
DWIDTH 36 0
BBX 26 49 5 -1
BITMAP
003F0000
00FFC000
01FFE000
01FFE000
03F3F000
03E1F000
03E1F000
03F3F000
01FFE000
01FFE000
00FFC000
003F0000
00000000
00000000
00000000
00000000
00000000
78000780
FC000FC0
FC000FC0
FC000FC0
FC000FC0
FC000FC0
FC000FC0
FC000FC0
FC000FC0
FC000FC0
FC000FC0
FC000FC0
FC000FC0
FC000FC0
FC000FC0
FC000FC0
FC000FC0
FC000FC0
FC000FC0
FC000FC0
FC000FC0
FC000FC0
7C000FC0
7C000FC0
7E000FC0
7F000FC0
3FE00FC0
3FFFFFC0
1FFFFFC0
07FFFFC0
01FFFF80
00070000
ENDCHAR
STARTCHAR Uhungarumlaut
ENCODING 368
SWIDTH 561 0
DWIDTH 36 0
BBX 28 58 5 -1
BITMAP
00600180
00F003C0
01F807E0
03FC0FF0
07F80FE0
0FF01FC0
1FE03F80
1FC07F00
1F807E00
1F003C00
0E001800
00000000
00000000
78000780
FC000FC0
FC000FC0
FC000FC0
FC000FC0
FC000FC0
FC000FC0
FC000FC0
FC000FC0
FC000FC0
FC000FC0
FC000FC0
FC000FC0
FC000FC0
FC000FC0
FC000FC0
FC000FC0
FC000FC0
FC000FC0
FC000FC0
FC000FC0
FC000FC0
FC000FC0
FC000FC0
FC000FC0
FC000FC0
FC000FC0
FC000FC0
FC000FC0
FC000FC0
FC000FC0
FC000FC0
FC000FC0
FC000F80
7C000F80
7C000F80
7E001F80
7E001F80
3F003F00
3FE1FF00
1FFFFE00
0FFFFC00
07FFF800
01FFE000
000C0000
ENDCHAR
STARTCHAR uhungarumlaut
ENCODING 369
SWIDTH 561 0
DWIDTH 36 0
BBX 28 48 5 -1
BITMAP
00600180
00F003C0
01F807E0
03FC0FF0
07F80FE0
0FF01FC0
1FE03F80
1FC07F00
1F807E00
1F003C00
0E001800
00000000
00000000
00000000
00000000
00000000
78000780
FC000FC0
FC000FC0
FC000FC0
FC000FC0
FC000FC0
FC000FC0
FC000FC0
FC000FC0
FC000FC0
FC000FC0
FC000FC0
FC000FC0
FC000FC0
FC000FC0
FC000FC0
FC000FC0
FC000FC0
FC000FC0
FC000FC0
FC000FC0
FC000FC0
7C000FC0
7C000FC0
7E000FC0
7F000FC0
3FE00FC0
3FFFFFC0
1FFFFFC0
07FFFFC0
01FFFF80
00070000
ENDCHAR
STARTCHAR Uogonek
ENCODING 370
SWIDTH 561 0
DWIDTH 36 0
BBX 26 58 5 -14
BITMAP
78000780
FC000FC0
FC000FC0
FC000FC0
FC000FC0
FC000FC0
FC000FC0
FC000FC0
FC000FC0
FC000FC0
FC000FC0
FC000FC0
FC000FC0
FC000FC0
FC000FC0
FC000FC0
FC000FC0
FC000FC0
FC000FC0
FC000FC0
FC000FC0
FC000FC0
FC000FC0
FC000FC0
FC000FC0
FC000FC0
FC000FC0
FC000FC0
FC000FC0
FC000FC0
FC000FC0
FC000FC0
FC000FC0
FC000F80
7C000F80
7C000F80
7C001F80
7E001F80
3F003F00
3FC0FF00
1FFFFE00
0FFFFC00
07FFF800
01FFE000
003F0000
003E0000
003E0000
003E0000
003E0000
003E0000
003E0000
003E0000
003F0000
003F8000
001F8000
000F8000
000F0000
00060000
ENDCHAR
STARTCHAR uogonek
ENCODING 371
SWIDTH 561 0
DWIDTH 36 0
BBX 27 45 5 -14
BITMAP
78000780
FC000FC0
FC000FC0
FC000FC0
FC000FC0
FC000FC0
FC000FC0
FC000FC0
FC000FC0
FC000FC0
FC000FC0
FC000FC0
FC000FC0
FC000FC0
FC000FC0
FC000FC0
FC000FC0
FC000FC0
FC000FC0
FC000FC0
FC000FC0
FC000FC0
7C000FC0
7C000FC0
7E000FC0
7F000FC0
3FE00FC0
3FFFFFC0
1FFFFFC0
07FFFFC0
01FFFFC0
00060780
00000F80
00000F80
00000F80
00000F80
00000F80
00000F80
00000FC0
00000FC0
000007E0
000007E0
000003E0
000001C0
00000180
ENDCHAR
STARTCHAR Wcircumflex
ENCODING 372
SWIDTH 561 0
DWIDTH 36 0
BBX 32 57 2 0
BITMAP
0003C000
000FF000
001FF800
007FFE00
00FFFF00
03FE7FC0
07F81FE0
07F00FE0
07E007E0
038001C0
00000000
00000000
00000000
F800001F
F800001F
F800001F
F800001F
F800001F
F800001F
F800001F
F800001F
F800003F
FC00003F
FC00003F
FC00003F
FC00003F
FC00003F
FC00003F
FC00003F
FC00003F
FC00003F
FC00003F
FC03E03F
7C07E03F
7C0FF03E
7C0FF03E
7C1FF83E
7C1FF83E
7C3FF83E
7C3E7C3E
7C3E7C3E
7C7C3E3E
7C7C3E3E
7CF81F3E
7CF81F3E
7DF00FBE
7DF00FBE
7FE007FE
7FE007FE
7FC003FE
7FC003FE
7F8001FE
7F8001FE
7F0000FE
7F0000FE
7E00007E
3C00003C
ENDCHAR
STARTCHAR wcircumflex
ENCODING 373
SWIDTH 561 0
DWIDTH 36 0
BBX 32 47 2 0
BITMAP
0003C000
000FF000
001FF800
007FFE00
00FFFF00
03FE7FC0
07F81FE0
07F00FE0
07E007E0
038001C0
00000000
00000000
00000000
00000000
00000000
00000000
F800001F
F800001F
F800001F
F800001F
F800001F
F800001F
FC03C03F
FC07E03F
FC07E03F
FC0FF03F
FC0FF03F
FC1FF83F
FC1FF83F
FC3E7C3F
7C3E7C3E
7C7C3E3E
7C7C3E3E
7CF81F3E
7CF81F3E
7DF00FBE
7DF00FBE
7FE007FE
7FE007FE
7FC003FE
7FC003FE
7F8001FE
7F8001FE
7F0000FE
7F0000FE
7E00007E
3C00003C
ENDCHAR
STARTCHAR Ycircumflex
ENCODING 374
SWIDTH 561 0
DWIDTH 36 0
BBX 34 57 1 0
BITMAP
0001E00000
0007F80000
000FFC0000
003FFF0000
007FFF8000
01FF3FE000
03FC0FF000
03F807F000
03F003F000
01C000E000
0000000000
0000000000
0000000000
F800000780
FC00000FC0
7E00001F80
7E00001F80
3F00003F00
3F00003F00
1F80007E00
1F80007E00
0FC000FC00
0FC000FC00
07E001F800
07E001F800
03F003F000
03F003F000
01F807E000
01F807E000
00FC0FC000
00FC0FC000
007E1F8000
007E1F8000
003FFF0000
003FFF0000
001FFE0000
0007F80000
0003F00000
0003F00000
0003F00000
0003F00000
0003F00000
0003F00000
0003F00000
0003F00000
0003F00000
0003F00000
0003F00000
0003F00000
0003F00000
0003F00000
0003F00000
0003F00000
0003F00000
0003F00000
0003F00000
0001E00000
ENDCHAR
STARTCHAR ycircumflex
ENCODING 375
SWIDTH 561 0
DWIDTH 36 0
BBX 30 63 2 -16
BITMAP
0003C000
000FF000
001FF800
007FFE00
00FFFF00
03FE7FC0
07F81FE0
07F00FE0
07E007E0
038001C0
00000000
00000000
00000000
00000000
00000000
00000000
3E00007C
3F0000FC
3F0000FC
1F0000F8
1F0000F8
1F8001F8
1F8001F8
0F8001F0
0F8001F0
0FC003F0
0FC003F0
07C003E0
07C003E0
07E007E0
07E007E0
03E007C0
03E007C0
03F00FC0
03F00FC0
01F00F80
01F00F80
01F81F80
01F81F80
00F81F00
00F83F00
00FC3F00
00FE3F00
007FFE00
007FFE00
003FFE00
000FFE00
0000FC00
00007C00
0000FC00
0000F800
0000F800
0001F800
0001F000
0003F000
0003F000
0007E000
F01FC000
FFFFC000
FFFF8000
FFFF0000
FFFC0000
0FF00000
ENDCHAR
STARTCHAR Ydieresis
ENCODING 376
SWIDTH 561 0
DWIDTH 36 0
BBX 34 57 1 0
BITMAP
00F807C000
00F807C000
00F807C000
00F807C000
00F807C000
00F807C000
0000000000
0000000000
0000000000
0000000000
0000000000
0000000000
0000000000
F800000780
FC00000FC0
7E00001F80
7E00001F80
3F00003F00
3F00003F00
1F80007E00
1F80007E00
0FC000FC00
0FC000FC00
07E001F800
07E001F800
03F003F000
03F003F000
01F807E000
01F807E000
00FC0FC000
00FC0FC000
007E1F8000
007E1F8000
003FFF0000
003FFF0000
001FFE0000
0007F80000
0003F00000
0003F00000
0003F00000
0003F00000
0003F00000
0003F00000
0003F00000
0003F00000
0003F00000
0003F00000
0003F00000
0003F00000
0003F00000
0003F00000
0003F00000
0003F00000
0003F00000
0003F00000
0003F00000
0001E00000
ENDCHAR
STARTCHAR Zacute
ENCODING 377
SWIDTH 561 0
DWIDTH 36 0
BBX 28 59 4 0
BITMAP
00000400
00001E00
00007F00
0001FF00
0007FF00
001FFF80
007FFE00
01FFF000
01FF8000
01FC0000
00E00000
00000000
00000000
00000000
00000000
3FFFFFF0
3FFFFFF0
3FFFFFF0
3FFFFFF0
3FFFFFF0
000003F0
000003F0
000003E0
000003E0
000003E0
000007C0
00000FC0
00000F80
00001F80
00003F00
00007E00
0000FC00
0001F800
0003F000
0007E000
000FC000
001F8000
003F0000
007E0000
00FC0000
01F80000
03F00000
07E00000
0FC00000
1F800000
3F000000
3E000000
7E000000
7C000000
7C000000
7C000000
FC000000
F8000000
F8000000
FFFFFFE0
FFFFFFF0
FFFFFFF0
FFFFFFF0
FFFFFFF0
ENDCHAR
STARTCHAR zacute
ENCODING 378
SWIDTH 561 0
DWIDTH 36 0
BBX 26 49 5 0
BITMAP
00000800
00003C00
0000FE00
0003FE00
000FFE00
003FFF00
00FFFC00
03FFE000
03FF0000
03F80000
01C00000
00000000
00000000
00000000
00000000
00000000
00000000
00000000
3FFFFF80
3FFFFFC0
3FFFFFC0
3FFFFFC0
3FFFFFC0
00000F80
00001F80
00003F80
00007F00
0000FE00
0003FC00
0007F800
000FF000
001FE000
003F8000
007F0000
00FE0000
01FC0000
03F80000
07F00000
0FE00000
1FC00000
3F800000
7F000000
7E000000
FC000000
FFFFFF80
FFFFFFC0
FFFFFFC0
FFFFFFC0
7FFFFF80
ENDCHAR
STARTCHAR Zdotaccent
ENCODING 379
SWIDTH 561 0
DWIDTH 36 0
BBX 28 57 4 0
BITMAP
000F0000
001F8000
001F8000
001F8000
001F8000
000F0000
00000000
00000000
00000000
00000000
00000000
00000000
00000000
3FFFFFF0
3FFFFFF0
3FFFFFF0
3FFFFFF0
3FFFFFF0
000003F0
000003F0
000003E0
000003E0
000003E0
000007C0
00000FC0
00000F80
00001F80
00003F00
00007E00
0000FC00
0001F800
0003F000
0007E000
000FC000
001F8000
003F0000
007E0000
00FC0000
01F80000
03F00000
07E00000
0FC00000
1F800000
3F000000
3E000000
7E000000
7C000000
7C000000
7C000000
FC000000
F8000000
F8000000
FFFFFFE0
FFFFFFF0
FFFFFFF0
FFFFFFF0
FFFFFFF0
ENDCHAR
STARTCHAR zdotaccent
ENCODING 380
SWIDTH 561 0
DWIDTH 36 0
BBX 26 47 5 0
BITMAP
001E0000
003F0000
003F0000
003F0000
003F0000
001E0000
00000000
00000000
00000000
00000000
00000000
00000000
00000000
00000000
00000000
00000000
3FFFFF80
3FFFFFC0
3FFFFFC0
3FFFFFC0
3FFFFFC0
00000F80
00001F80
00003F80
00007F00
0000FE00
0003FC00
0007F800
000FF000
001FE000
003F8000
007F0000
00FE0000
01FC0000
03F80000
07F00000
0FE00000
1FC00000
3F800000
7F000000
7E000000
FC000000
FFFFFF80
FFFFFFC0
FFFFFFC0
FFFFFFC0
7FFFFF80
ENDCHAR
STARTCHAR Zcaron
ENCODING 381
SWIDTH 561 0
DWIDTH 36 0
BBX 28 57 4 0
BITMAP
0E000700
0F000F00
1FC03F80
1FE07F80
0FF9FF00
07FFFE00
01FFF800
00FFF000
003FC000
000F0000
00000000
00000000
00000000
3FFFFFF0
3FFFFFF0
3FFFFFF0
3FFFFFF0
3FFFFFF0
000003F0
000003F0
000003E0
000003E0
000003E0
000007C0
00000FC0
00000F80
00001F80
00003F00
00007E00
0000FC00
0001F800
0003F000
0007E000
000FC000
001F8000
003F0000
007E0000
00FC0000
01F80000
03F00000
07E00000
0FC00000
1F800000
3F000000
3E000000
7E000000
7C000000
7C000000
7C000000
FC000000
F8000000
F8000000
FFFFFFE0
FFFFFFF0
FFFFFFF0
FFFFFFF0
FFFFFFF0
ENDCHAR
STARTCHAR zcaron
ENCODING 382
SWIDTH 561 0
DWIDTH 36 0
BBX 26 47 5 0
BITMAP
1C000E00
1E001E00
3F807F00
3FC0FF00
1FF3FE00
0FFFFC00
03FFF000
01FFE000
007F8000
001E0000
00000000
00000000
00000000
00000000
00000000
00000000
3FFFFF80
3FFFFFC0
3FFFFFC0
3FFFFFC0
3FFFFFC0
00000F80
00001F80
00003F80
00007F00
0000FE00
0003FC00
0007F800
000FF000
001FE000
003F8000
007F0000
00FE0000
01FC0000
03F80000
07F00000
0FE00000
1FC00000
3F800000
7F000000
7E000000
FC000000
FFFFFF80
FFFFFFC0
FFFFFFC0
FFFFFFC0
7FFFFF80
ENDCHAR
STARTCHAR florin
ENCODING 402
SWIDTH 561 0
DWIDTH 36 0
BBX 30 54 4 -7
BITMAP
0000FFE0
0003FFFC
000FFFFC
001FFFF8
001FFFF8
003F8000
003F0000
007E0000
007E0000
007C0000
007C0000
007C0000
00FC0000
00FC0000
00F80000
00F80000
7FFFFF80
FFFFFF80
FFFFFF80
FFFFFF00
FFFFFF00
01F00000
01F00000
01F00000
03F00000
03F00000
03E00000
03E00000
03E00000
07E00000
07E00000
07C00000
07C00000
07C00000
07C00000
0FC00000
0FC00000
0F800000
0F800000
0F800000
0F800000
1F800000
1F800000
1F000000
1F000000
1F000000
3F000000
3F000000
3E000000
3E000000
3E000000
3E000000
7E000000
3C000000
ENDCHAR
STARTCHAR uni019B
ENCODING 411
SWIDTH 561 0
DWIDTH 36 0
BBX 30 46 3 0
BITMAP
00000200
00000700
00001F80
1F003F80
1FC07F80
1FE1FF00
1FF3FC00
1FFFF800
01FFE000
00FFC000
00FF0000
01FF0000
07FF0000
0FFF8000
3FFF8000
7F8FC000
7F0FC000
7E1FC000
381FE000
001FE000
003FF000
003FF000
007FF800
007CF800
007CF800
00F8FC00
00F87C00
01F87E00
01F03E00
03F03E00
03E03F00
03E01F00
07E01F80
07C00F80
0FC00FC0
0F800FC0
1F8007C0
1F8007E0
1F0003E0
3F0003F0
3E0001F0
7E0001F8
7E0001F8
7C0000F8
FC0000FC
F800007C
ENDCHAR
STARTCHAR Ohorn
ENCODING 416
SWIDTH 561 0
DWIDTH 36 0
BBX 29 50 5 -1
BITMAP
000000E0
000000F8
000001F8
000001F8
000807F0
00FFFFE0
03FFFFC0
07FFFF00
0FFFFC00
1FE3FE00
3F80FE00
3F003F00
3F003F00
7E001F80
7E001F80
7C000F80
7C000F80
FC000F80
FC000FC0
FC000FC0
FC000FC0
FC000FC0
FC000FC0
FC000FC0
FC000FC0
FC000FC0
FC000FC0
FC000FC0
FC000FC0
FC000FC0
FC000FC0
FC000FC0
FC000FC0
FC000FC0
FC000FC0
FC000FC0
FC000F80
7C000F80
7C000F80
7E001F80
7E001F80
3F003F00
3F003F00
3F807F00
1FF3FE00
0FFFFC00
07FFF800
03FFF000
00FFC000
000C0000
ENDCHAR
STARTCHAR ohorn
ENCODING 417
SWIDTH 561 0
DWIDTH 36 0
BBX 29 38 5 -1
BITMAP
00000040
000000F0
000000F8
000001F8
000001F8
000407F0
00FFFFE0
03FFFFC0
07FFFF00
0FFFFC00
1FE3FE00
1F807E00
3F003F00
3F003F00
7E001F80
7E001F80
7C000F80
7C000F80
FC000F80
FC000FC0
FC000FC0
FC000FC0
FC000FC0
FC000FC0
FC000F80
7C000F80
7C000F80
7E001F80
7E001F80
3F003F00
3F003F00
1F807E00
1FF3FE00
0FFFFC00
07FFF800
03FFF000
00FFC000
00040000
ENDCHAR
STARTCHAR Uhorn
ENCODING 431
SWIDTH 561 0
DWIDTH 36 0
BBX 34 50 5 -1
BITMAP
0000000600
0000000F80
0000000FC0
0000001F80
0000003F80
780007FF00
FC000FFE00
FC000FFC00
FC000FE000
FC000FC000
FC000FC000
FC000FC000
FC000FC000
FC000FC000
FC000FC000
FC000FC000
FC000FC000
FC000FC000
FC000FC000
FC000FC000
FC000FC000
FC000FC000
FC000FC000
FC000FC000
FC000FC000
FC000FC000
FC000FC000
FC000FC000
FC000FC000
FC000FC000
FC000FC000
FC000FC000
FC000FC000
FC000FC000
FC000FC000
FC000FC000
FC000FC000
FC000FC000
FC000F8000
7C000F8000
7C000F8000
7E001F8000
7E001F8000
3F003F0000
3FE1FF0000
1FFFFE0000
0FFFFC0000
07FFF80000
01FFE00000
000C000000
ENDCHAR
STARTCHAR uhorn
ENCODING 432
SWIDTH 561 0
DWIDTH 36 0
BBX 34 38 5 -1
BITMAP
0000000400
0000000700
0000000FC0
0000000FC0
0000001F80
0000003F00
780007FF00
FC000FFC00
FC000FF800
FC000FC000
FC000FC000
FC000FC000
FC000FC000
FC000FC000
FC000FC000
FC000FC000
FC000FC000
FC000FC000
FC000FC000
FC000FC000
FC000FC000
FC000FC000
FC000FC000
FC000FC000
FC000FC000
FC000FC000
FC000FC000
FC000FC000
7C000FC000
7C000FC000
7E000FC000
7F000FC000
3FE00FC000
3FFFFFC000
1FFFFFC000
07FFFFC000
01FFFF8000
0007000000
ENDCHAR
STARTCHAR uni0237
ENCODING 567
SWIDTH 561 0
DWIDTH 36 0
BBX 26 41 5 -10
BITMAP
3FFFFF80
7FFFFFC0
7FFFFFC0
7FFFFFC0
3FFFFFC0
00000FC0
00000FC0
00000FC0
00000FC0
00000FC0
00000FC0
00000FC0
00000FC0
00000FC0
00000FC0
00000FC0
00000FC0
00000FC0
00000FC0
00000FC0
00000FC0
00000FC0
00000FC0
00000FC0
00000FC0
00000FC0
00000F80
00000F80
00000F80
00000F80
00001F80
00001F80
00003F00
00007F00
0000FE00
7803FE00
FFFFFC00
FFFFF800
FFFFE000
3FFFC000
07FE0000
ENDCHAR
STARTCHAR uni02B3
ENCODING 691
SWIDTH 561 0
DWIDTH 36 0
BBX 26 26 5 22
BITMAP
00080000
7FFFF000
FFFFFC00
FFFFFE00
FFFFFF00
FC01FF80
FC003F80
FC001F80
FC000FC0
FC000FC0
FC000FC0
FC000780
FC000000
FC000000
FC000000
FC000000
FC000000
FC000000
FC000000
FC000000
FC000000
FC000000
FC000000
FC000000
FC000000
78000000
ENDCHAR
STARTCHAR circumflex
ENCODING 710
SWIDTH 561 0
DWIDTH 36 0
BBX 22 10 7 34
BITMAP
007800
01FE00
03FF00
0FFFC0
1FFFE0
7FCFF8
FF03FC
FE01FC
FC00FC
700038
ENDCHAR
STARTCHAR caron
ENCODING 711
SWIDTH 561 0
DWIDTH 36 0
BBX 22 10 7 34
BITMAP
700038
780078
FE01FC
FF03FC
7FCFF8
3FFFF0
0FFFC0
07FF80
01FE00
007800
ENDCHAR
STARTCHAR breve
ENCODING 728
SWIDTH 561 0
DWIDTH 36 0
BBX 23 10 6 35
BITMAP
78001E
FC003E
7C003E
7E007E
7E00FC
3F81FC
1FFFF8
0FFFF0
07FFC0
00FF00
ENDCHAR
STARTCHAR dotaccent
ENCODING 729
SWIDTH 561 0
DWIDTH 36 0
BBX 5 6 15 38
BITMAP
F8
F8
F8
F8
F8
F8
ENDCHAR
STARTCHAR ring
ENCODING 730
SWIDTH 561 0
DWIDTH 36 0
BBX 14 12 11 33
BITMAP
0FC0
3FF0
7FF8
7FF8
FCFC
F87C
F87C
FCFC
7FF8
7FF8
3FF0
0FC0
ENDCHAR
STARTCHAR ogonek
ENCODING 731
SWIDTH 561 0
DWIDTH 36 0
BBX 8 16 14 -14
BITMAP
0C
1C
3C
7C
7C
7C
FC
FC
FC
7C
7E
7E
3F
3F
1E
0C
ENDCHAR
STARTCHAR tilde
ENCODING 732
SWIDTH 561 0
DWIDTH 36 0
BBX 24 9 6 35
BITMAP
078000
1FE000
3FF80E
7FFE1F
FFFFFF
F87FFE
701FFC
000FF8
0003E0
ENDCHAR
STARTCHAR hungarumlaut
ENCODING 733
SWIDTH 561 0
DWIDTH 36 0
BBX 25 11 8 33
BITMAP
03000C00
07801E00
0FC01F00
1FE03F80
3FC07F80
3F80FF00
7F01FC00
FE03F800
FC03F000
7801E000
3000C000
ENDCHAR
STARTCHAR uni02E1
ENCODING 737
SWIDTH 561 0
DWIDTH 36 0
BBX 26 33 5 21
BITMAP
7FFC0000
7FFC0000
FFFC0000
FFFC0000
7FFC0000
007C0000
007C0000
007C0000
007C0000
007C0000
007C0000
007C0000
007C0000
007C0000
007C0000
007C0000
007C0000
007C0000
007C0000
007C0000
007C0000
007C0000
007C0000
007C0000
007C0000
007E0000
007E0000
003F0000
003FFF80
001FFFC0
001FFFC0
0007FFC0
0001FF00
ENDCHAR
STARTCHAR dotbelowcomb
ENCODING 803
SWIDTH 561 0
DWIDTH 36 0
BBX 8 7 14 -13
BITMAP
7E
FF
FF
FF
FF
FF
7E
ENDCHAR
STARTCHAR uni0374
ENCODING 884
SWIDTH 561 0
DWIDTH 36 0
BBX 11 21 13 26
BITMAP
0E00
0FC0
0FE0
0FC0
1FC0
1FC0
1F80
1F80
1F80
3F00
3F00
3F00
3E00
7E00
7E00
7E00
7C00
7C00
FC00
F800
7800
ENDCHAR
STARTCHAR uni0375
ENCODING 885
SWIDTH 561 0
DWIDTH 36 0
BBX 11 21 13 -11
BITMAP
0E00
0FC0
0FE0
0FC0
1FC0
1FC0
1F80
1F80
1F80
3F00
3F00
3F00
3E00
7E00
7E00
7E00
7C00
7C00
FC00
F800
7800
ENDCHAR
STARTCHAR uni037E
ENCODING 894
SWIDTH 561 0
DWIDTH 36 0
BBX 17 47 6 -16
BITMAP
00FF00
01FF80
01FF80
01FF80
01FF80
01FF80
01FF80
01FF80
00FF00
000000
000000
000000
000000
000000
000000
000000
000000
000000
000000
000000
000000
000000
00FF00
01FF80
01FF80
01FF80
01FF80
01FF80
01FF80
01FF80
00FF80
001F80
001F80
001F80
001F80
001F00
001F00
003F00
003F00
007F00
00FE00
03FE00
FFFC00
FFF800
FFF000
FFC000
FE0000
ENDCHAR
STARTCHAR tonos
ENCODING 900
SWIDTH 561 0
DWIDTH 36 0
BBX 6 15 -4 36
BITMAP
FC
FC
FC
FC
FC
FC
F8
F8
F8
F8
F8
F0
F0
F0
E0
ENDCHAR
STARTCHAR dieresistonos
ENCODING 901
SWIDTH 561 0
DWIDTH 36 0
BBX 24 15 6 36
BITMAP
003F00
003F00
003F00
003F00
003E00
003E00
003E00
F83E1F
F87E1F
F87C1F
F87C1F
F87C1F
F87C1F
007C00
003800
ENDCHAR
STARTCHAR Alphatonos
ENCODING 902
SWIDTH 561 0
DWIDTH 36 0
BBX 38 49 -3 0
BITMAP
7E00000000
7E00000000
7E00000000
7E00000000
7E00080000
7C007F8000
7C01FFE000
7C03FFE000
7C03FFF000
7C07F3F000
7807E1F800
7807C0F800
F807C0F800
F80FC0F800
700FC0FC00
000F807C00
000F807C00
001F807C00
001F807E00
001F003E00
001F003E00
003F003E00
003F003F00
003E001F00
003E001F00
007E001F00
007E001F80
007C000F80
007C000F80
00FC000F80
00FFFFFFC0
00FFFFFFC0
00FFFFFFC0
01FFFFFFC0
01FFFFFFE0
01F00003E0
01F00003E0
03F00003E0
03F00003F0
03E00001F0
03E00001F0
07E00001F0
07E00001F8
07C00000F8
07C00000F8
0FC00000F8
0FC00000FC
0F8000007C
0F8000007C
ENDCHAR
STARTCHAR anoteleia
ENCODING 903
SWIDTH 561 0
DWIDTH 36 0
BBX 6 6 15 13
BITMAP
78
FC
FC
FC
FC
78
ENDCHAR
STARTCHAR Epsilontonos
ENCODING 904
SWIDTH 561 0
DWIDTH 36 0
BBX 38 49 -6 0
BITMAP
7E00000000
7E00000000
7E00000000
7E00000000
7C00000000
7C0FFFFFF8
7C1FFFFFF8
7C1FFFFFF8
7C1FFFFFF8
F81FFFFFF0
F81F800000
F81F800000
F81F800000
F81F800000
701F800000
001F800000
001F800000
001F800000
001F800000
001F800000
001F800000
001F800000
001F800000
001F800000
001FFFFFE0
001FFFFFF0
001FFFFFF0
001FFFFFF0
001FFFFFE0
001F800000
001F800000
001F800000
001F800000
001F800000
001F800000
001F800000
001F800000
001F800000
001F800000
001F800000
001F800000
001F800000
001F800000
001F800000
001FFFFFFC
001FFFFFFC
001FFFFFFC
001FFFFFFC
000FFFFFFC
ENDCHAR
STARTCHAR Etatonos
ENCODING 905
SWIDTH 561 0
DWIDTH 36 0
BBX 38 49 -6 0
BITMAP
7E00000000
7E00000000
7E00000000
7E00000000
7C00000000
7C1E000078
7C3F0000FC
7C3F0000FC
7C3F0000FC
F83F0000FC
F83F0000FC
F83F0000FC
F83F0000FC
F83F0000FC
703F0000FC
003F0000FC
003F0000FC
003F0000FC
003F0000FC
003F0000FC
003F0000FC
003F0000FC
003F0000FC
003FFFFFFC
003FFFFFFC
003FFFFFFC
003FFFFFFC
003FFFFFFC
003F0000FC
003F0000FC
003F0000FC
003F0000FC
003F0000FC
003F0000FC
003F0000FC
003F0000FC
003F0000FC
003F0000FC
003F0000FC
003F0000FC
003F0000FC
003F0000FC
003F0000FC
003F0000FC
003F0000FC
003F0000FC
003F0000FC
003F0000FC
001E000078
ENDCHAR
STARTCHAR Iotatonos
ENCODING 906
SWIDTH 561 0
DWIDTH 36 0
BBX 37 49 -6 0
BITMAP
7E00000000
7E00000000
7E00000000
7E00000000
7C00000000
7C0FFFFFF0
7C0FFFFFF0
7C0FFFFFF0
7C0FFFFFF0
F80FFFFFE0
F80007E000
F80007E000
F80007E000
F80007E000
700007E000
000007E000
000007E000
000007E000
000007E000
000007E000
000007E000
000007E000
000007E000
000007E000
000007E000
000007E000
000007E000
000007E000
000007E000
000007E000
000007E000
000007E000
000007E000
000007E000
000007E000
000007E000
000007E000
000007E000
000007E000
000007E000
000007E000
000007E000
000007E000
000007E000
000FFFFFF0
001FFFFFF8
001FFFFFF8
001FFFFFF8
000FFFFFF0
ENDCHAR
STARTCHAR Omicrontonos
ENCODING 908
SWIDTH 561 0
DWIDTH 36 0
BBX 39 50 -6 -1
BITMAP
7E00000000
7E00000000
7E00000000
7E00000000
7C00008000
7C001FF800
7C007FFE00
7C00FFFF80
7C03FFFFC0
F803FC3FE0
F807F00FE0
F80FE007F0
F80FC003F0
F81F8001F8
701F0000F8
003F0000FC
003E0000FC
003E00007C
003E00007C
007E00007E
007E00007E
007C00007E
007C00003E
007C00003E
007C00003E
007C00003E
007C00003E
007C00003E
007C00003E
007C00003E
007C00003E
007C00003E
007C00003E
007C00007E
007E00007E
007E00007C
003E00007C
003E00007C
003F0000FC
001F0000F8
001F8001F8
001F8001F8
000FC003F0
000FE007F0
0007F81FE0
0003FFFFC0
0001FFFF80
0000FFFF00
00003FFC00
00000FF000
ENDCHAR
STARTCHAR Upsilontonos
ENCODING 910
SWIDTH 561 0
DWIDTH 36 0
BBX 44 49 -9 0
BITMAP
7E0000000000
7E0000000000
7E0000000000
7E0000000000
7C0000000000
7C3E000001E0
FC3F000003F0
FC1F800007E0
FC1F800007E0
F80FC0000FC0
F80FC0000FC0
F807E0001F80
F807E0001F80
F803F0003F00
7003F0003F00
0001F8007E00
0001F8007E00
0000FC00FC00
0000FC00FC00
00007E01F800
00007E01F800
00003F03F000
00003F03F000
00001F87E000
00001F87E000
00000FFFC000
00000FFFC000
000007FF8000
000001FE0000
000000FC0000
000000FC0000
000000FC0000
000000FC0000
000000FC0000
000000FC0000
000000FC0000
000000FC0000
000000FC0000
000000FC0000
000000FC0000
000000FC0000
000000FC0000
000000FC0000
000000FC0000
000000FC0000
000000FC0000
000000FC0000
000000FC0000
000000780000
ENDCHAR
STARTCHAR Omegatonos
ENCODING 911
SWIDTH 561 0
DWIDTH 36 0
BBX 39 50 -6 -1
BITMAP
7E00000000
7E00000000
7E00000000
7E00000000
7C00008000
7C001FFC00
7C007FFF00
7C01FFFF80
7C03FFFFC0
F807FC3FE0
F807F00FF0
F80FC003F0
F81FC003F8
F81F8001F8
701F0000F8
003F0000FC
003E00007C
003E00007C
007E00007E
007E00007E
007C00007E
007C00003E
007C00003E
007C00003E
007C00003E
007C00003E
007C00003E
007C00003E
007C00003E
007C00003E
007C00003E
007C00007E
007E00007E
007E00007C
003E00007C
003E00007C
003F0000FC
003F0000F8
001F8001F8
001F8001F8
000FC003F0
000FE007E0
0007F00FE0
0003F81FC0
0001F81F80
003FF81FFC
007FF81FFE
007FF81FFE
007FF81FFE
007FF81FFC
ENDCHAR
STARTCHAR iotadieresistonos
ENCODING 912
SWIDTH 561 0
DWIDTH 36 0
BBX 26 55 2 -1
BITMAP
003F0000
003F0000
003F0000
003E0000
003E0000
007E0000
007E0000
F87E1F00
F87C1F00
F87C1F00
F87C1F00
F87C1F00
F87C1F00
00780000
00780000
00000000
00000000
00000000
00000000
00000000
00000000
00000000
00000000
007C0000
007C0000
007C0000
007C0000
007C0000
007C0000
007C0000
007C0000
007C0000
007C0000
007C0000
007C0000
007C0000
007C0000
007C0000
007C0000
007C0000
007C0000
007C0000
007C0000
007C0000
007C0000
007C0000
007C0000
007E0000
007E0000
003F0000
003FFF80
003FFF80
001FFFC0
0007FFC0
0001FF00
ENDCHAR
STARTCHAR Alpha
ENCODING 913
SWIDTH 561 0
DWIDTH 36 0
BBX 34 45 1 0
BITMAP
0000800000
0007F80000
001FFE0000
003FFE0000
003FFF0000
007F3F0000
007E1F8000
007C0F8000
007C0F8000
00FC0F8000
00FC0FC000
00F807C000
00F807C000
01F807C000
01F807E000
01F003E000
01F003E000
03F003E000
03F003F000
03E001F000
03E001F000
07E001F000
07E001F800
07C000F800
07C000F800
0FC000F800
0FFFFFFC00
0FFFFFFC00
0FFFFFFC00
1FFFFFFC00
1FFFFFFE00
1F00003E00
1F00003E00
3F00003E00
3F00003F00
3E00001F00
3E00001F00
7E00001F00
7E00001F80
7C00000F80
7C00000F80
FC00000F80
FC00000FC0
F8000007C0
F8000007C0
ENDCHAR
STARTCHAR Beta
ENCODING 914
SWIDTH 561 0
DWIDTH 36 0
BBX 30 44 2 0
BITMAP
7FFFC000
FFFFF800
FFFFFE00
FFFFFF00
7FFFFF80
0FC03FC0
0FC00FC0
0FC007E0
0FC003E0
0FC003E0
0FC001F0
0FC001F0
0FC001E0
0FC001E0
0FC003E0
0FC003E0
0FC007C0
0FC00FC0
0FC07F80
0FFFFF00
0FFFFE00
0FFFFE00
0FFFFF80
0FFFFFC0
0FC01FE0
0FC007F0
0FC001F8
0FC000F8
0FC000FC
0FC0007C
0FC0007C
0FC0007C
0FC0007C
0FC0007C
0FC0007C
0FC000F8
0FC001F8
0FC003F0
0FC01FF0
0FFFFFE0
0FFFFFC0
0FFFFF00
0FFFFC00
07FFF000
ENDCHAR
STARTCHAR Gamma
ENCODING 915
SWIDTH 561 0
DWIDTH 36 0
BBX 28 45 4 -1
BITMAP
7FFFFFE0
FFFFFFF0
FFFFFFF0
FFFFFFF0
FFFFFFE0
FC000000
FC000000
FC000000
FC000000
FC000000
FC000000
FC000000
FC000000
FC000000
FC000000
FC000000
FC000000
FC000000
FC000000
FC000000
FC000000
FC000000
FC000000
FC000000
FC000000
FC000000
FC000000
FC000000
FC000000
FC000000
FC000000
FC000000
FC000000
FC000000
FC000000
FC000000
FC000000
FC000000
FC000000
FC000000
FC000000
FC000000
FC000000
FC000000
78000000
ENDCHAR
STARTCHAR uni0394
ENCODING 916
SWIDTH 561 0
DWIDTH 36 0
BBX 34 46 1 -1
BITMAP
0000800000
0007F80000
001FFE0000
003FFE0000
003FFF0000
003F3F0000
007E1F8000
007C0F8000
007C0F8000
00FC0F8000
00FC0FC000
00F807C000
00F807C000
00F807C000
01F807E000
01F807E000
01F003E000
01F003E000
03F003F000
03F003F000
03E001F000
03E001F000
07E001F800
07E001F800
07C000F800
07C000F800
0FC000FC00
0FC000FC00
0F80007C00
0F80007C00
1F80007E00
1F80007E00
1F00003E00
1F00003E00
3F00003F00
3F00003F00
3E00001F00
3E00001F00
7E00001F00
7E00001F80
7C00000F80
7FFFFFFF80
FFFFFFFF80
FFFFFFFFC0
FFFFFFFFC0
FFFFFFFFC0
ENDCHAR
STARTCHAR Epsilon
ENCODING 917
SWIDTH 561 0
DWIDTH 36 0
BBX 27 44 5 0
BITMAP
7FFFFFC0
FFFFFFC0
FFFFFFC0
FFFFFFC0
FFFFFF80
FC000000
FC000000
FC000000
FC000000
FC000000
FC000000
FC000000
FC000000
FC000000
FC000000
FC000000
FC000000
FC000000
FC000000
FFFFFF00
FFFFFF80
FFFFFF80
FFFFFF80
FFFFFF00
FC000000
FC000000
FC000000
FC000000
FC000000
FC000000
FC000000
FC000000
FC000000
FC000000
FC000000
FC000000
FC000000
FC000000
FC000000
FFFFFFE0
FFFFFFE0
FFFFFFE0
FFFFFFE0
7FFFFFE0
ENDCHAR
STARTCHAR Zeta
ENCODING 918
SWIDTH 561 0
DWIDTH 36 0
BBX 28 44 4 0
BITMAP
3FFFFFF0
3FFFFFF0
3FFFFFF0
3FFFFFF0
3FFFFFF0
000003F0
000003F0
000003E0
000003E0
000003E0
000007C0
00000FC0
00000F80
00001F80
00003F00
00007E00
0000FC00
0001F800
0003F000
0007E000
000FC000
001F8000
003F0000
007E0000
00FC0000
01F80000
03F00000
07E00000
0FC00000
1F800000
3F000000
3E000000
7E000000
7C000000
7C000000
7C000000
FC000000
F8000000
F8000000
FFFFFFE0
FFFFFFF0
FFFFFFF0
FFFFFFF0
FFFFFFF0
ENDCHAR
STARTCHAR Eta
ENCODING 919
SWIDTH 561 0
DWIDTH 36 0
BBX 28 44 4 0
BITMAP
780001E0
FC0003F0
FC0003F0
FC0003F0
FC0003F0
FC0003F0
FC0003F0
FC0003F0
FC0003F0
FC0003F0
FC0003F0
FC0003F0
FC0003F0
FC0003F0
FC0003F0
FC0003F0
FC0003F0
FC0003F0
FFFFFFF0
FFFFFFF0
FFFFFFF0
FFFFFFF0
FFFFFFF0
FC0003F0
FC0003F0
FC0003F0
FC0003F0
FC0003F0
FC0003F0
FC0003F0
FC0003F0
FC0003F0
FC0003F0
FC0003F0
FC0003F0
FC0003F0
FC0003F0
FC0003F0
FC0003F0
FC0003F0
FC0003F0
FC0003F0
FC0003F0
780001E0
ENDCHAR
STARTCHAR Theta
ENCODING 920
SWIDTH 561 0
DWIDTH 36 0
BBX 30 46 3 -1
BITMAP
00010000
003FF000
00FFFC00
01FFFF00
07FFFF80
07F87FC0
0FE01FC0
1FC00FE0
1F8007E0
3F0003F0
3E0001F0
7E0001F8
7C0001F8
7C0000F8
7C0000F8
FC0000FC
FC0000FC
F80000FC
F800007C
F800007C
F800007C
F9FFFE7C
F9FFFE7C
F9FFFE7C
F9FFFE7C
F9FFFC7C
F800007C
F800007C
F800007C
F80000FC
FC0000FC
FC0000F8
7C0000F8
7C0000F8
7E0001F8
3E0001F0
3F0003F0
3F0003F0
1F8007E0
1FC00FE0
0FF03FC0
07FFFF80
03FFFF00
01FFFE00
007FF800
001FE000
ENDCHAR
STARTCHAR Iota
ENCODING 921
SWIDTH 561 0
DWIDTH 36 0
BBX 26 44 5 0
BITMAP
7FFFFF80
7FFFFF80
7FFFFF80
7FFFFF80
7FFFFF00
003F0000
003F0000
003F0000
003F0000
003F0000
003F0000
003F0000
003F0000
003F0000
003F0000
003F0000
003F0000
003F0000
003F0000
003F0000
003F0000
003F0000
003F0000
003F0000
003F0000
003F0000
003F0000
003F0000
003F0000
003F0000
003F0000
003F0000
003F0000
003F0000
003F0000
003F0000
003F0000
003F0000
003F0000
7FFFFF80
FFFFFFC0
FFFFFFC0
FFFFFFC0
7FFFFF80
ENDCHAR
STARTCHAR Kappa
ENCODING 922
SWIDTH 561 0
DWIDTH 36 0
BBX 27 44 5 0
BITMAP
78000FC0
FC001FC0
FC001FC0
FC003F80
FC007F00
FC007E00
FC00FE00
FC01FC00
FC03F800
FC03F000
FC07F000
FC0FE000
FC0FC000
FC1F8000
FC3F8000
FC7F0000
FC7E0000
FCFC0000
FDFC0000
FFF80000
FFF00000
FFE00000
FFF00000
FDF80000
FDFC0000
FCFC0000
FC7E0000
FC3F0000
FC3F8000
FC1F8000
FC0FC000
FC0FE000
FC07F000
FC03F000
FC01F800
FC01FC00
FC00FE00
FC007E00
FC003F00
FC003F80
FC001FC0
FC000FC0
FC000FE0
780007E0
ENDCHAR
STARTCHAR Lambda
ENCODING 923
SWIDTH 561 0
DWIDTH 36 0
BBX 34 46 1 -1
BITMAP
0000800000
0007F80000
001FFE0000
003FFE0000
003FFF0000
003F3F0000
007E1F8000
007C0F8000
007C0F8000
00FC0F8000
00FC0FC000
00F807C000
00F807C000
00F807C000
01F807E000
01F807E000
01F003E000
01F003E000
03F003F000
03F003F000
03E001F000
03E001F000
07E001F800
07E001F800
07C000F800
07C000F800
0FC000FC00
0FC000FC00
0F80007C00
0F80007C00
1F80007E00
1F80007E00
1F00003E00
1F00003E00
3F00003F00
3F00003F00
3E00001F00
3E00001F00
7E00001F00
7E00001F80
7C00000F80
7C00000F80
FC00000F80
FC00000FC0
F8000007C0
F8000007C0
ENDCHAR
STARTCHAR Mu
ENCODING 924
SWIDTH 561 0
DWIDTH 36 0
BBX 32 44 2 0
BITMAP
3C00003C
7E00007E
7F0000FE
7F0000FE
7F8001FE
7F8001FE
7FC003FE
7FC003FE
7FE007FE
7FE007FE
7FF00FFE
7DF00FBE
7DF81FBE
7CF81F3E
7CFC3F3E
7C7C3E3E
7C7E7E3E
7C3E7C3E
7C3FFC3E
7C1FF83E
7C1FF83E
7C0FF03E
7C0FF03E
FC07E03E
FC07E03F
FC00003F
FC00003F
FC00003F
FC00003F
FC00003F
FC00003F
FC00003F
FC00003F
FC00003F
FC00003F
FC00001F
F800001F
F800001F
F800001F
F800001F
F800001F
F800001F
F800001F
F800001F
ENDCHAR
STARTCHAR Nu
ENCODING 925
SWIDTH 561 0
DWIDTH 36 0
BBX 28 44 4 0
BITMAP
780001E0
FC0003F0
FE0003F0
FE0003F0
FF0003F0
FF0003F0
FF8003F0
FF8003F0
FFC003F0
FFC003F0
FFE003F0
FFE003F0
FFF003F0
FDF003F0
FDF803F0
FCF803F0
FCFC03F0
FC7C03F0
FC7E03F0
FC3E03F0
FC3F03F0
FC1F03F0
FC1F83F0
FC0F83F0
FC0FC3F0
FC07C3F0
FC03E3F0
FC03E3F0
FC01F3F0
FC01F3F0
FC00FBF0
FC00FBF0
FC007FF0
FC007FF0
FC003FF0
FC003FF0
FC001FF0
FC001FF0
FC000FF0
FC000FF0
FC0007F0
FC0007F0
FC0003F0
780001E0
ENDCHAR
STARTCHAR Xi
ENCODING 926
SWIDTH 561 0
DWIDTH 36 0
BBX 28 45 4 -1
BITMAP
7FFFFFE0
7FFFFFE0
7FFFFFE0
7FFFFFE0
3FFFFFC0
00000000
00000000
00000000
00000000
00000000
00000000
00000000
00000000
00000000
00000000
00000000
00000000
00000000
00000000
00000000
1FFFFF80
3FFFFFC0
3FFFFFC0
3FFFFFC0
1FFFFF80
00000000
00000000
00000000
00000000
00000000
00000000
00000000
00000000
00000000
00000000
00000000
00000000
00000000
00000000
00000000
FFFFFFF0
FFFFFFF0
FFFFFFF0
FFFFFFF0
FFFFFFF0
ENDCHAR
STARTCHAR Omicron
ENCODING 927
SWIDTH 561 0
DWIDTH 36 0
BBX 30 46 3 -1
BITMAP
00010000
003FF000
00FFFC00
01FFFF00
07FFFF80
07F87FC0
0FE01FC0
1FC00FE0
1F8007E0
3F0003F0
3E0001F0
7E0001F8
7C0001F8
7C0000F8
7C0000F8
FC0000FC
FC0000FC
F80000FC
F800007C
F800007C
F800007C
F800007C
F800007C
F800007C
F800007C
F800007C
F800007C
F800007C
F800007C
F80000FC
FC0000FC
FC0000F8
7C0000F8
7C0000F8
7E0001F8
3E0001F0
3F0003F0
3F0003F0
1F8007E0
1FC00FE0
0FF03FC0
07FFFF80
03FFFF00
01FFFE00
007FF800
001FE000
ENDCHAR
STARTCHAR Pi
ENCODING 928
SWIDTH 561 0
DWIDTH 36 0
BBX 26 45 5 -1
BITMAP
7FFFFF80
FFFFFFC0
FFFFFFC0
FFFFFFC0
FFFFFFC0
FC000FC0
FC000FC0
FC000FC0
FC000FC0
FC000FC0
FC000FC0
FC000FC0
FC000FC0
FC000FC0
FC000FC0
FC000FC0
FC000FC0
FC000FC0
FC000FC0
FC000FC0
FC000FC0
FC000FC0
FC000FC0
FC000FC0
FC000FC0
FC000FC0
FC000FC0
FC000FC0
FC000FC0
FC000FC0
FC000FC0
FC000FC0
FC000FC0
FC000FC0
FC000FC0
FC000FC0
FC000FC0
FC000FC0
FC000FC0
FC000FC0
FC000FC0
FC000FC0
FC000FC0
FC000FC0
78000780
ENDCHAR
STARTCHAR Rho
ENCODING 929
SWIDTH 561 0
DWIDTH 36 0
BBX 27 44 5 0
BITMAP
7FFF0000
FFFFE000
FFFFF800
FFFFFC00
FFFFFE00
FC01FF00
FC003F80
FC001FC0
FC000FC0
FC0007E0
FC0007E0
FC0003E0
FC0003E0
FC0003E0
FC0003E0
FC0003E0
FC0003E0
FC0007E0
FC0007E0
FC000FC0
FC001FC0
FC007F80
FC01FF00
FFFFFE00
FFFFFC00
FFFFF000
FFFFC000
FFFC0000
FC000000
FC000000
FC000000
FC000000
FC000000
FC000000
FC000000
FC000000
FC000000
FC000000
FC000000
FC000000
FC000000
FC000000
FC000000
78000000
ENDCHAR
STARTCHAR Sigma
ENCODING 931
SWIDTH 561 0
DWIDTH 36 0
BBX 30 45 3 -1
BITMAP
7FFFFFF8
7FFFFFF8
7FFFFFF8
7FFFFFF8
3FFFFFF0
3F800000
1F800000
0FC00000
0FE00000
07E00000
03F00000
03F80000
01F80000
00FC0000
00FE0000
007E0000
003F0000
003F8000
001F8000
000FC000
000FE000
0007E000
0007E000
000FE000
000FC000
001F8000
003F8000
003F0000
007E0000
00FE0000
00FC0000
01F80000
03F80000
03F00000
07E00000
0FE00000
0FC00000
1F800000
3F800000
3F000000
7FFFFFF8
7FFFFFFC
FFFFFFFC
FFFFFFFC
7FFFFFF8
ENDCHAR
STARTCHAR Tau
ENCODING 932
SWIDTH 561 0
DWIDTH 36 0
BBX 34 44 1 0
BITMAP
7FFFFFFF80
FFFFFFFFC0
FFFFFFFFC0
FFFFFFFFC0
7FFFFFFF80
0003F00000
0003F00000
0003F00000
0003F00000
0003F00000
0003F00000
0003F00000
0003F00000
0003F00000
0003F00000
0003F00000
0003F00000
0003F00000
0003F00000
0003F00000
0003F00000
0003F00000
0003F00000
0003F00000
0003F00000
0003F00000
0003F00000
0003F00000
0003F00000
0003F00000
0003F00000
0003F00000
0003F00000
0003F00000
0003F00000
0003F00000
0003F00000
0003F00000
0003F00000
0003F00000
0003F00000
0003F00000
0003F00000
0001E00000
ENDCHAR
STARTCHAR Upsilon
ENCODING 933
SWIDTH 561 0
DWIDTH 36 0
BBX 34 44 1 0
BITMAP
F800000780
FC00000FC0
7E00001F80
7E00001F80
3F00003F00
3F00003F00
1F80007E00
1F80007E00
0FC000FC00
0FC000FC00
07E001F800
07E001F800
03F003F000
03F003F000
01F807E000
01F807E000
00FC0FC000
00FC0FC000
007E1F8000
007E1F8000
003FFF0000
003FFF0000
001FFE0000
0007F80000
0003F00000
0003F00000
0003F00000
0003F00000
0003F00000
0003F00000
0003F00000
0003F00000
0003F00000
0003F00000
0003F00000
0003F00000
0003F00000
0003F00000
0003F00000
0003F00000
0003F00000
0003F00000
0003F00000
0001E00000
ENDCHAR
STARTCHAR Phi
ENCODING 934
SWIDTH 561 0
DWIDTH 36 0
BBX 32 48 2 -2
BITMAP
0003C000
0007E000
0007E000
0007E000
0007E000
000FF000
003FFE00
00FFFF00
01FFFFC0
03FFFFE0
07F7EFE0
0FC7E3F0
1F87E1F8
1F07E0F8
3F07E0FC
3E07E07C
7E07E07E
7C07E03E
7C07E03E
7C07E03E
FC07E03E
FC07E03F
FC07E03F
FC07E03F
FC07E03F
FC07E03F
FC07E03F
FC07E03F
FC07E03E
7C07E03E
7C07E03E
7C07E03E
3E07E07E
3E07E07C
3F07E0FC
1F87E1F8
0FC7E3F8
0FE7E7F0
07FFFFE0
03FFFFC0
01FFFF80
007FFF00
001FF800
0007E000
0007E000
0007E000
0007E000
0003C000
ENDCHAR
STARTCHAR Chi
ENCODING 935
SWIDTH 561 0
DWIDTH 36 0
BBX 32 44 2 0
BITMAP
7800001E
7C00003E
7E00007E
3E00007C
3F0000FC
1F0000F8
1F0001F8
0F8001F0
0F8001F0
07C003F0
07C003E0
07E007E0
03E007C0
03F00FC0
01F00F80
01F81F80
00F81F00
00FC3F00
007C3E00
007E7E00
003FFC00
001FF800
001FF800
003FFC00
007E7E00
007C3E00
00FC3F00
00F81F00
01F81F80
01F00F80
03F00FC0
03E007C0
07E007E0
07C003E0
0FC003F0
0F8001F0
1F8001F8
1F0000F8
3F0000FC
3E00007C
7E00007E
7C00003E
FC00003F
F800001E
ENDCHAR
STARTCHAR Psi
ENCODING 936
SWIDTH 561 0
DWIDTH 36 0
BBX 34 45 1 -1
BITMAP
0001E00000
FC03F00FC0
FC03F00FC0
7E03F01F80
7E03F01F80
3E03F01F00
3E03F01F00
3F03F03F00
3F03F03F00
3F03F03F00
3F03F03F00
3F03F03F00
3F03F03F00
3F03F03F00
3F03F03F00
3F03F03F00
3F03F03F00
3F03F03F00
3F03F03F00
3F03F03F00
3F03F03F00
3F03F03E00
3F03F03E00
1F03F03E00
1F03F03E00
1F83F07E00
1FC3F0FE00
0FE3F1FC00
0FFFFFFC00
07FFFFF800
03FFFFF000
01FFFFE000
007FFF8000
0003F00000
0003F00000
0003F00000
0003F00000
0003F00000
0003F00000
0003F00000
0003F00000
0003F00000
0003F00000
0003F00000
0001E00000
ENDCHAR
STARTCHAR uni03A9
ENCODING 937
SWIDTH 561 0
DWIDTH 36 0
BBX 30 46 3 -1
BITMAP
00010000
003FF800
00FFFE00
03FFFF00
07FFFF80
0FF87FC0
0FE01FE0
1F8007E0
3F8007F0
3F0003F0
3E0001F0
7E0001F8
7C0000F8
7C0000F8
FC0000FC
FC0000FC
F80000FC
F800007C
F800007C
F800007C
F800007C
F800007C
F800007C
F800007C
F800007C
F800007C
F800007C
F80000FC
FC0000FC
FC0000F8
7C0000F8
7C0000F8
7E0001F8
7E0001F0
3F0003F0
3F0003F0
1F8007E0
1FC00FC0
0FE01FC0
07F03F80
03F03F00
7FF03FF8
FFF03FFC
FFF03FFC
FFF03FFC
FFF03FF8
ENDCHAR
STARTCHAR Iotadieresis
ENCODING 938
SWIDTH 561 0
DWIDTH 36 0
BBX 26 57 5 0
BITMAP
0F807C00
0F807C00
0F807C00
0F807C00
0F807C00
0F807C00
00000000
00000000
00000000
00000000
00000000
00000000
00000000
7FFFFF80
7FFFFF80
7FFFFF80
7FFFFF80
7FFFFF00
003F0000
003F0000
003F0000
003F0000
003F0000
003F0000
003F0000
003F0000
003F0000
003F0000
003F0000
003F0000
003F0000
003F0000
003F0000
003F0000
003F0000
003F0000
003F0000
003F0000
003F0000
003F0000
003F0000
003F0000
003F0000
003F0000
003F0000
003F0000
003F0000
003F0000
003F0000
003F0000
003F0000
003F0000
7FFFFF80
FFFFFFC0
FFFFFFC0
FFFFFFC0
7FFFFF80
ENDCHAR
STARTCHAR Upsilondieresis
ENCODING 939
SWIDTH 561 0
DWIDTH 36 0
BBX 34 57 1 0
BITMAP
00F807C000
00F807C000
00F807C000
00F807C000
00F807C000
00F807C000
0000000000
0000000000
0000000000
0000000000
0000000000
0000000000
0000000000
F800000780
FC00000FC0
7E00001F80
7E00001F80
3F00003F00
3F00003F00
1F80007E00
1F80007E00
0FC000FC00
0FC000FC00
07E001F800
07E001F800
03F003F000
03F003F000
01F807E000
01F807E000
00FC0FC000
00FC0FC000
007E1F8000
007E1F8000
003FFF0000
003FFF0000
001FFE0000
0007F80000
0003F00000
0003F00000
0003F00000
0003F00000
0003F00000
0003F00000
0003F00000
0003F00000
0003F00000
0003F00000
0003F00000
0003F00000
0003F00000
0003F00000
0003F00000
0003F00000
0003F00000
0003F00000
0003F00000
0001E00000
ENDCHAR
STARTCHAR alphatonos
ENCODING 940
SWIDTH 561 0
DWIDTH 36 0
BBX 33 55 3 -1
BITMAP
0007E00000
0007E00000
0007E00000
0007E00000
0007E00000
0007C00000
0007C00000
0007C00000
0007C00000
0007C00000
0007800000
0007800000
000F800000
000F800000
0007000000
0000000000
0000000000
0000000000
0000000000
0000000000
0000000000
0000000000
0008000000
00FF803C00
03FFE07C00
0FFFF07C00
1FFFF87C00
1FE3FC7800
3F807E7800
3F003F7800
7E001F7800
7C000FF800
FC000FF000
FC0007F000
F80007F000
F80003F000
F80003F000
F80001F000
F80001F000
F80001F000
F80001F000
F80003F000
F80003F000
FC0007F000
FC0007F000
FC000FF000
7E001FF000
7E003FF000
3F007FF800
3FC0FE7C00
1FFFFC7F00
0FFFF87F80
07FFF03F80
03FFC01F80
007F000F00
ENDCHAR
STARTCHAR epsilontonos
ENCODING 941
SWIDTH 561 0
DWIDTH 36 0
BBX 26 55 5 -1
BITMAP
001F8000
001F8000
001F8000
001F8000
001F8000
001F0000
001F0000
001F0000
001F0000
001F0000
001E0000
001E0000
003E0000
003E0000
001C0000
00000000
00000000
00000000
00000000
00000000
00000000
00000000
00008000
00FFFF00
03FFFF00
0FFFFF00
1FFFFF00
3FF80600
3F800000
3F000000
3E000000
3E000000
3E000000
3F000000
3F800000
1FE00000
0FFF8000
03FFC000
00FFC000
03FFC000
0FFFC000
3FF00000
7F800000
7E000000
7C000000
FC000000
FC000000
FC000000
7E000000
7F800000
3FFFFFC0
3FFFFFC0
0FFFFFC0
03FFFFC0
003FFF00
ENDCHAR
STARTCHAR etatonos
ENCODING 942
SWIDTH 561 0
DWIDTH 36 0
BBX 26 70 5 -16
BITMAP
001F8000
001F8000
001F8000
001F8000
001F8000
001F0000
001F0000
001F0000
001F0000
001F0000
001E0000
001E0000
003E0000
003E0000
001C0000
00000000
00000000
00000000
00000000
00000000
00000000
00000000
00080000
7FFFE000
FFFFF800
FFFFFE00
FFFFFE00
FC01FF00
FC003F80
FC001F80
FC001F80
FC000F80
FC000F80
FC000FC0
FC000FC0
FC000FC0
FC000FC0
FC000FC0
FC000FC0
FC000FC0
FC000FC0
FC000FC0
FC000FC0
FC000FC0
FC000FC0
FC000FC0
FC000FC0
FC000FC0
FC000FC0
FC000FC0
FC000FC0
FC000FC0
FC000FC0
FC000FC0
78000FC0
00000FC0
00000FC0
00000FC0
00000FC0
00000FC0
00000FC0
00000FC0
00000FC0
00000FC0
00000FC0
00000FC0
00000FC0
00000FC0
00000FC0
00000780
ENDCHAR
STARTCHAR iotatonos
ENCODING 943
SWIDTH 561 0
DWIDTH 36 0
BBX 17 55 11 -1
BITMAP
7E0000
7E0000
7E0000
7E0000
7C0000
7C0000
7C0000
7C0000
7C0000
F80000
F80000
F80000
F80000
F80000
700000
000000
000000
000000
000000
000000
000000
000000
000000
F80000
F80000
F80000
F80000
F80000
F80000
F80000
F80000
F80000
F80000
F80000
F80000
F80000
F80000
F80000
F80000
F80000
F80000
F80000
F80000
F80000
F80000
F80000
F80000
FC0000
FC0000
7E0000
7FFF00
7FFF00
3FFF80
0FFF80
03FE00
ENDCHAR
STARTCHAR upsilondieresistonos
ENCODING 944
SWIDTH 561 0
DWIDTH 36 0
BBX 29 55 3 -1
BITMAP
0007E000
0007E000
0007E000
0007E000
0007C000
0007C000
0007C000
1F07C3E0
1F0FC3E0
1F0F83E0
1F0F83E0
1F0F83E0
1F0F83E0
000F8000
00070000
00000000
00000000
00000000
00000000
00000000
00000000
00000000
00000000
F80007C0
FC0007E0
7C0007E0
7E0003E0
3E0003E0
3E0003F0
3E0003F0
3F0003F0
3F0001F0
3F0001F0
3F0001F0
3F0001F0
3F0001F0
3F0001F8
3F0001F8
3F0001F8
3F0001F8
3F0001F8
3F0001F0
3F0001F0
3F0001F0
3F0001F0
3F0003F0
1F0003F0
1F8007E0
1F800FE0
0FE03FC0
0FFFFF80
07FFFF00
03FFFE00
01FFF800
003FE000
ENDCHAR
STARTCHAR alpha
ENCODING 945
SWIDTH 561 0
DWIDTH 36 0
BBX 33 33 3 -1
BITMAP
0008000000
00FF803C00
03FFE07C00
0FFFF07C00
1FFFF87C00
1FE3FC7800
3F807E7800
3F003F7800
7E001F7800
7C000FF800
FC000FF000
FC0007F000
F80007F000
F80003F000
F80003F000
F80001F000
F80001F000
F80001F000
F80001F000
F80003F000
F80003F000
FC0007F000
FC0007F000
FC000FF000
7E001FF000
7E003FF000
3F007FF800
3FC0FE7C00
1FFFFC7F00
0FFFF87F80
07FFF03F80
03FFC01F80
007F000F00
ENDCHAR
STARTCHAR beta
ENCODING 946
SWIDTH 561 0
DWIDTH 36 0
BBX 26 58 6 -13
BITMAP
00080000
01FFC000
07FFF000
0FFFF800
1FFFFC00
3FE3FC00
3F80FE00
7F007E00
7E003E00
7C003E00
7C001F00
FC001F00
FC001F00
FC001E00
FC001E00
FC003E00
FC003E00
FC007C00
FC00FC00
FC03F800
FC7FF000
FC7FE000
FC7FE000
FC7FF800
FC7FFC00
FC01FE00
FC007F00
FC003F80
FC001F80
FC000F80
FC000FC0
FC0007C0
FC0007C0
FC0007C0
FC0007C0
FC000FC0
FC000FC0
FC000F80
FC001F80
FC003F80
FC00FF00
FFFFFF00
FFFFFE00
FFFFFC00
FFFFF000
FFFF8000
FC000000
FC000000
FC000000
FC000000
FC000000
FC000000
FC000000
FC000000
FC000000
FC000000
FC000000
78000000
ENDCHAR
STARTCHAR gamma
ENCODING 947
SWIDTH 561 0
DWIDTH 36 0
BBX 30 48 3 -17
BITMAP
FE0000FC
FF0001FC
7F8001F8
1FC003F0
0FE007F0
07E00FE0
07F01FC0
03F81F80
01FC3F00
00FC7E00
007EFE00
007FFC00
003FF800
001FF000
000FE000
000FE000
001FF000
003FF000
007FF800
007EFC00
00FCFC00
01F87E00
01F83F00
03F03F00
03F01F80
07E01F80
07C00F80
0FC00FC0
0F8007C0
0F8007C0
1F8007E0
1F0003E0
1F0003E0
1F0003E0
1F0003E0
1F0003E0
1F0003E0
1F0003E0
1F0003E0
1F8007E0
1FC00FE0
0FE01FC0
0FF03FC0
07FFFF80
03FFFF00
01FFFE00
007FF800
000FC000
ENDCHAR
STARTCHAR delta
ENCODING 948
SWIDTH 561 0
DWIDTH 36 0
BBX 28 48 4 -1
BITMAP
000FF800
007FFF80
01FFFFC0
03FFFFC0
07FFFF80
07E00780
0FC00000
0F800000
0FC00000
0FE00000
07F00000
07FC0000
03FE0000
01FF0000
00FFC000
003FE000
001FF000
0007F800
00FFFC00
03FFFE00
07FFFF00
0FFFFF00
1FE07F80
3F801FC0
3F000FC0
7E000FE0
7E0007E0
7C0003E0
FC0003F0
FC0003F0
F80003F0
F80003F0
F80001F0
F80001F0
F80003F0
FC0003F0
FC0003F0
7C0003E0
7E0007E0
7E0007E0
3F000FC0
3F801FC0
1FC07F80
0FFFFF00
0FFFFE00
03FFFC00
01FFF000
003FC000
ENDCHAR
STARTCHAR epsilon
ENCODING 949
SWIDTH 561 0
DWIDTH 36 0
BBX 26 33 5 -1
BITMAP
00008000
00FFFF00
03FFFF00
0FFFFF00
1FFFFF00
3FF80600
3F800000
3F000000
3E000000
3E000000
3E000000
3F000000
3F800000
1FE00000
0FFF8000
03FFC000
00FFC000
03FFC000
0FFFC000
3FF00000
7F800000
7E000000
7C000000
FC000000
FC000000
FC000000
7E000000
7F800000
3FFFFFC0
3FFFFFC0
0FFFFFC0
03FFFFC0
003FFF00
ENDCHAR
STARTCHAR zeta
ENCODING 950
SWIDTH 561 0
DWIDTH 36 0
BBX 23 55 7 -11
BITMAP
7FFFFE
7FFFFE
7FFFFE
7FFFFE
3FFFFC
0003F8
000FE0
001FC0
003F80
00FF00
01FC00
03F800
07F000
07F000
0FE000
1FC000
1F8000
3F8000
3F0000
7E0000
7E0000
FC0000
FC0000
FC0000
F80000
F80000
F80000
F80000
F80000
F80000
F80000
FC0000
FC0000
7E0000
7F0000
3F8000
3FE000
1FF800
0FFF00
03FFC0
01FFE0
003FF8
000FFC
0001FC
0000FE
00007E
00003E
00003E
00003E
00003E
00003E
00007E
00007C
00007C
00003C
ENDCHAR
STARTCHAR eta
ENCODING 951
SWIDTH 561 0
DWIDTH 36 0
BBX 26 48 5 -16
BITMAP
00080000
7FFFE000
FFFFF800
FFFFFE00
FFFFFE00
FC01FF00
FC003F80
FC001F80
FC001F80
FC000F80
FC000F80
FC000FC0
FC000FC0
FC000FC0
FC000FC0
FC000FC0
FC000FC0
FC000FC0
FC000FC0
FC000FC0
FC000FC0
FC000FC0
FC000FC0
FC000FC0
FC000FC0
FC000FC0
FC000FC0
FC000FC0
FC000FC0
FC000FC0
FC000FC0
FC000FC0
78000FC0
00000FC0
00000FC0
00000FC0
00000FC0
00000FC0
00000FC0
00000FC0
00000FC0
00000FC0
00000FC0
00000FC0
00000FC0
00000FC0
00000FC0
00000780
ENDCHAR
STARTCHAR theta
ENCODING 952
SWIDTH 561 0
DWIDTH 36 0
BBX 26 46 5 -1
BITMAP
00080000
00FFC000
01FFE000
03FFF000
07FFF800
0FF3FC00
1FC0FE00
1F807E00
3F003F00
3F003F00
3E001F00
3E001F00
7E001F80
7E001F80
7C000F80
7C000F80
7C000F80
7C000F80
FC000F80
FC000FC0
FC000FC0
FFFFFFC0
FFFFFFC0
FFFFFFC0
FFFFFFC0
FFFFFFC0
FC000FC0
FC000F80
FC000F80
7C000F80
7C000F80
7C000F80
7C000F80
7E001F80
7E001F80
3E001F00
3E003F00
3F003F00
1F007E00
1F807E00
0FC1FC00
0FFFFC00
07FFF800
03FFF000
01FFE000
007F0000
ENDCHAR
STARTCHAR iota
ENCODING 953
SWIDTH 561 0
DWIDTH 36 0
BBX 17 32 11 -1
BITMAP
F80000
F80000
F80000
F80000
F80000
F80000
F80000
F80000
F80000
F80000
F80000
F80000
F80000
F80000
F80000
F80000
F80000
F80000
F80000
F80000
F80000
F80000
F80000
F80000
FC0000
FC0000
7E0000
7FFF00
7FFF00
3FFF80
0FFF80
03FE00
ENDCHAR
STARTCHAR kappa
ENCODING 954
SWIDTH 561 0
DWIDTH 36 0
BBX 27 32 5 -1
BITMAP
78001FC0
FC003FC0
FC007F80
FC00FF00
FC01FE00
FC01FC00
FC03F800
FC07F000
FC0FE000
FC1FC000
FC3F8000
FC7F0000
FCFE0000
FDFC0000
FFFC0000
FFFE0000
FFFF0000
FFBF0000
FF1F8000
FE0FC000
FC07E000
FC07E000
FC03F000
FC01F800
FC00FC00
FC00FE00
FC007E00
FC003F00
FC001F80
FC000FC0
FC000FC0
780007E0
ENDCHAR
STARTCHAR lambda
ENCODING 955
SWIDTH 561 0
DWIDTH 36 0
BBX 29 43 4 -1
BITMAP
3C000000
3F000000
7FC00000
7FE00000
3FF00000
07F00000
01F80000
00FC0000
00FC0000
007E0000
003F0000
003F0000
001F8000
001F8000
000F8000
001FC000
001FC000
003FE000
003FE000
003FF000
007DF000
007DF000
00FCF800
00F8F800
01F8FC00
01F07C00
01F07E00
03F03E00
03E03E00
07E03F00
07C01F00
07C01F80
0FC00F80
0F800F80
1F800FC0
1F0007C0
3F0007E0
3F0003E0
3E0003F0
7E0003F0
7C0001F0
FC0001F8
780000F8
ENDCHAR
STARTCHAR uni03BC
ENCODING 956
SWIDTH 561 0
DWIDTH 36 0
BBX 26 47 5 -16
BITMAP
78000780
FC000FC0
FC000FC0
FC000FC0
FC000FC0
FC000FC0
FC000FC0
FC000FC0
FC000FC0
FC000FC0
FC000FC0
FC000FC0
FC000FC0
FC000FC0
FC000FC0
FC000FC0
FC000FC0
FC000FC0
FC000FC0
FC000FC0
FC000FC0
FC000FC0
FC000FC0
FC000FC0
FE000FC0
FF000FC0
FF800FC0
FFFFFFC0
FFFFFFC0
FFFFFFC0
FDFFFF80
FC7FFE00
FC000000
FC000000
FC000000
FC000000
FC000000
FC000000
FC000000
FC000000
FC000000
FC000000
FC000000
FC000000
FC000000
FC000000
78000000
ENDCHAR
STARTCHAR nu
ENCODING 957
SWIDTH 561 0
DWIDTH 36 0
BBX 27 32 4 -1
BITMAP
F8001F80
FC001F80
FC000FC0
7C000FC0
7C0007C0
7E0007E0
7E0003E0
3E0003E0
3E0003E0
3E0003E0
3F0003E0
1F0003E0
1F0003E0
1F0003E0
1F8007E0
0F8007C0
0F8007C0
0F800FC0
0FC00F80
07C01F80
07C03F00
07C03F00
07E07E00
03E0FC00
03E1FC00
03E3F800
03F7F000
03FFE000
01FFC000
01FF8000
01FF0000
00FE0000
ENDCHAR
STARTCHAR xi
ENCODING 958
SWIDTH 561 0
DWIDTH 36 0
BBX 22 55 8 -11
BITMAP
FFFFFC
FFFFFC
FFFFFC
FFFFFC
7FFFFC
01FE00
07F000
0FC000
1F0000
3E0000
7E0000
7C0000
7C0000
FC0000
7C0000
7C0000
3E0000
3F0000
1FE000
07FFE0
01FFF0
01FFF0
07FFF0
1FFFE0
3FC000
3F0000
7E0000
FC0000
FC0000
F80000
F80000
F80000
FC0000
FC0000
7E0000
7F0000
3FC000
1FF000
0FFC00
07FF00
01FFC0
00FFE0
001FF0
0007F8
0001FC
0000FC
00007C
00007C
00007C
00007C
00007C
0000FC
0000F8
0000F8
000078
ENDCHAR
STARTCHAR omicron
ENCODING 959
SWIDTH 561 0
DWIDTH 36 0
BBX 30 33 3 -1
BITMAP
00010000
003FF800
00FFFC00
03FFFF00
07FFFF80
0FF87FC0
1FE01FE0
1F8007E0
3F0003F0
3F0003F0
7E0001F8
7E0001F8
7C0000F8
7C0000F8
7C0000F8
FC0000F8
FC0000FC
FC0000F8
FC0000F8
7C0000F8
7C0000F8
7C0001F8
7E0001F8
3E0001F0
3F0003F0
3F8007E0
1FC00FE0
0FF03FC0
07FFFF80
03FFFF80
01FFFE00
007FFC00
001FE000
ENDCHAR
STARTCHAR pi
ENCODING 960
SWIDTH 561 0
DWIDTH 36 0
BBX 32 32 2 -1
BITMAP
7FFFFFFF
7FFFFFFF
FFFFFFFF
FFFFFFFF
7FFFFFFF
01F00F80
01F00F80
01F00F80
01F00F80
01F00F80
01F00F80
01F00F80
01F00F80
01F00F80
01F00F80
01F00F80
01F00F80
01F00F80
01F00F80
01F00F80
01F00F80
01F00F80
01F00F80
01F00F80
01F00F80
01F00FC0
01F00FC0
01F007FC
01F007FC
01F003FC
01F001FC
01F0007C
ENDCHAR
STARTCHAR rho
ENCODING 961
SWIDTH 561 0
DWIDTH 36 0
BBX 30 48 3 -16
BITMAP
00010000
003FF800
00FFFC00
01FFFF00
03FFFF80
07F87FC0
0FE01FE0
1F8007E0
1F0003F0
3F0003F0
3E0001F8
7E0001F8
7C0000F8
7C0000F8
7C0000F8
7C0000F8
7C0000FC
FC0000F8
FC0000F8
FC0000F8
FC0000F8
FC0001F8
FE0001F8
FE0001F0
FF0003F0
FF8007F0
FFC00FE0
FFF03FC0
FFFFFFC0
FFFFFF80
FCFFFE00
FC7FFC00
FC0FE000
FC000000
FC000000
FC000000
FC000000
FC000000
FC000000
FC000000
FC000000
FC000000
FC000000
FC000000
FC000000
FC000000
FC000000
78000000
ENDCHAR
STARTCHAR uni03C2
ENCODING 962
SWIDTH 561 0
DWIDTH 36 0
BBX 26 44 5 -12
BITMAP
00010000
007FFE00
01FFFF80
03FFFFC0
0FFFFFC0
1FF83F80
1FC00380
3F800000
3F000000
7E000000
7C000000
7C000000
FC000000
FC000000
FC000000
FC000000
FC000000
FC000000
7C000000
7C000000
7E000000
7F000000
3F800000
3FC00000
1FF00000
0FFC0000
07FF8000
03FFE000
00FFF800
003FFC00
0007FE00
0001FF00
00007F00
00001F80
00001F80
00000F80
00000F80
00000F80
00000F80
00001F80
00001F80
00001F00
00001F00
00000600
ENDCHAR
STARTCHAR sigma
ENCODING 963
SWIDTH 561 0
DWIDTH 36 0
BBX 32 32 3 -1
BITMAP
001FFFFF
00FFFFFF
03FFFFFF
07FFFFFF
0FFFFFFF
1FE03FC0
1F800FE0
3F0007E0
3F0003F0
7E0003F0
7E0001F0
7C0001F0
7C0001F8
7C0001F8
FC0000F8
FC0000F8
FC0000F8
FC0001F8
7C0001F8
7C0001F8
7C0001F0
7E0001F0
3E0003F0
3F0007E0
3F8007E0
1FC00FC0
0FE03FC0
0FFFFF80
07FFFF00
01FFFE00
00FFF800
001FE000
ENDCHAR
STARTCHAR tau
ENCODING 964
SWIDTH 561 0
DWIDTH 36 0
BBX 28 32 4 -1
BITMAP
7FFFFFE0
FFFFFFF0
FFFFFFF0
FFFFFFF0
7FFFFFE0
001F8000
001F8000
001F8000
001F8000
001F8000
001F8000
001F8000
001F8000
001F8000
001F8000
001F8000
001F8000
001F8000
001F8000
001F8000
001F8000
001F8000
001F8000
001F8000
001F8000
000F8000
000FC000
000FFFE0
0007FFF0
0003FFF0
0001FFF0
00007FC0
ENDCHAR
STARTCHAR upsilon
ENCODING 965
SWIDTH 561 0
DWIDTH 36 0
BBX 29 32 3 -1
BITMAP
F80007C0
FC0007E0
7C0007E0
7E0003E0
3E0003E0
3E0003F0
3E0003F0
3F0003F0
3F0001F0
3F0001F0
3F0001F0
3F0001F0
3F0001F0
3F0001F8
3F0001F8
3F0001F8
3F0001F8
3F0001F8
3F0001F0
3F0001F0
3F0001F0
3F0001F0
3F0003F0
1F0003F0
1F8007E0
1F800FE0
0FE03FC0
0FFFFF80
07FFFF00
03FFFE00
01FFF800
003FE000
ENDCHAR
STARTCHAR phi
ENCODING 966
SWIDTH 561 0
DWIDTH 36 0
BBX 32 57 2 -16
BITMAP
00018000
0007E000
0007E000
0007E000
0007E000
0007E000
0007E000
0007E000
0007E000
0007E000
007FFE00
00FFFF80
03FFFFC0
07FFFFE0
0FFBDFF0
1FE3C3F8
1F83C1F8
3F03C0FC
3E03C0FC
7E03C07E
7C03C07E
7C03C03E
FC03C03F
FC03C03F
FC03C03F
FC03C03F
FC03C03F
FC03C03F
FC03C03F
7C03C03E
7C03C03E
7E03C07E
7E03C07E
3F03C0FC
3F83C1FC
1FC3C3F8
0FF3CFF0
07FFFFE0
03FFFFC0
01FFFF80
007FFE00
001FF800
0007E000
0007E000
0007E000
0007E000
0007E000
0007E000
0007E000
0007E000
0007E000
0007E000
0007E000
0007E000
0007E000
0007E000
0003C000
ENDCHAR
STARTCHAR chi
ENCODING 967
SWIDTH 561 0
DWIDTH 36 0
BBX 29 47 4 -16
BITMAP
F80001F0
FC0001F8
FF0003F0
FF8003F0
FF8007E0
1FC007C0
07C00FC0
07E00F80
03E01F80
03F01F00
01F03F00
01F83E00
00F87E00
00FC7C00
00FCFC00
007CF800
007DF800
007FF000
003FF000
003FE000
003FE000
001FC000
001FC000
001F8000
003FC000
003FC000
007FC000
007FC000
00FFE000
00FFE000
01FBE000
01F3F000
03F3F000
03E1F000
07E1F800
07C1F800
0FC0F800
0F80FC00
1F807C00
1F007E00
3F003F00
3E003F80
7E001FF0
7C000FF8
FC0007F8
F80003F8
380000F0
ENDCHAR
STARTCHAR psi
ENCODING 968
SWIDTH 561 0
DWIDTH 36 0
BBX 34 49 1 -16
BITMAP
0001E00000
0003F00000
FC03F00F80
FC03F00FC0
7E03F01F80
7E03F01F80
3E03F01F00
3E03F01F00
3F03F03F00
3F03F03F00
3F03F03F00
3F03F03F00
3F03F03F00
3F03F03F00
3F03F03F00
3F03F03F00
3F03F03F00
3F03F03F00
3F03F03F00
3F03F03F00
3F03F03F00
3F03F03F00
3F03F03E00
3F03F03E00
1F03F03E00
1F83F07E00
1F83F07E00
1FC3F0FE00
0FF3F3FC00
0FFFFFF800
07FFFFF800
03FFFFF000
00FFFFC000
003FFF0000
0003F00000
0003F00000
0003F00000
0003F00000
0003F00000
0003F00000
0003F00000
0003F00000
0003F00000
0003F00000
0003F00000
0003F00000
0003F00000
0003F00000
0001E00000
ENDCHAR
STARTCHAR omega
ENCODING 969
SWIDTH 561 0
DWIDTH 36 0
BBX 34 32 1 -1
BITMAP
1F00003E00
1F80007E00
3F00003F00
3F00003F00
3E00001F00
3E00001F00
7E00001F80
7C00001F80
7C01E00F80
7C03F00F80
FC03F00F80
F803F00FC0
F803F007C0
F803F007C0
F803F007C0
F803F007C0
F803F007C0
F803F007C0
F803F007C0
F803F007C0
F803F007C0
F803F007C0
F803F007C0
FC03F00FC0
7C03F00F80
7E07F81F80
7F07F83F80
3FFFFFFF00
3FFFFFFF00
1FFF3FFE00
0FFE1FFC00
03F807F000
ENDCHAR
STARTCHAR iotadieresis
ENCODING 970
SWIDTH 561 0
DWIDTH 36 0
BBX 23 48 5 -1
BITMAP
F807C0
F807C0
F807C0
F807C0
F807C0
F807C0
000000
000000
000000
000000
000000
000000
000000
000000
000000
000000
03E000
03E000
03E000
03E000
03E000
03E000
03E000
03E000
03E000
03E000
03E000
03E000
03E000
03E000
03E000
03E000
03E000
03E000
03E000
03E000
03E000
03E000
03E000
03E000
03F000
03F000
01F800
01FFFC
01FFFC
00FFFE
003FFE
000FF8
ENDCHAR
STARTCHAR upsilondieresis
ENCODING 971
SWIDTH 561 0
DWIDTH 36 0
BBX 29 48 3 -1
BITMAP
03E01F00
03E01F00
03E01F00
03E01F00
03E01F00
03E01F00
00000000
00000000
00000000
00000000
00000000
00000000
00000000
00000000
00000000
00000000
F80007C0
FC0007E0
7C0007E0
7E0003E0
3E0003E0
3E0003F0
3E0003F0
3F0003F0
3F0001F0
3F0001F0
3F0001F0
3F0001F0
3F0001F0
3F0001F8
3F0001F8
3F0001F8
3F0001F8
3F0001F8
3F0001F0
3F0001F0
3F0001F0
3F0001F0
3F0003F0
1F0003F0
1F8007E0
1F800FE0
0FE03FC0
0FFFFF80
07FFFF00
03FFFE00
01FFF800
003FE000
ENDCHAR
STARTCHAR omicrontonos
ENCODING 972
SWIDTH 561 0
DWIDTH 36 0
BBX 30 55 3 -1
BITMAP
0007E000
0007E000
0007E000
0007E000
0007E000
0007C000
0007C000
0007C000
0007C000
0007C000
00078000
00078000
000F8000
000F8000
00070000
00000000
00000000
00000000
00000000
00000000
00000000
00000000
00010000
003FF800
00FFFC00
03FFFF00
07FFFF80
0FF87FC0
1FE01FE0
1F8007E0
3F0003F0
3F0003F0
7E0001F8
7E0001F8
7C0000F8
7C0000F8
7C0000F8
FC0000F8
FC0000FC
FC0000F8
FC0000F8
7C0000F8
7C0000F8
7C0001F8
7E0001F8
3E0001F0
3F0003F0
3F8007E0
1FC00FE0
0FF03FC0
07FFFF80
03FFFF80
01FFFE00
007FFC00
001FE000
ENDCHAR
STARTCHAR upsilontonos
ENCODING 973
SWIDTH 561 0
DWIDTH 36 0
BBX 29 55 3 -1
BITMAP
0007E000
0007E000
0007E000
0007E000
0007E000
0007C000
0007C000
0007C000
0007C000
0007C000
00078000
00078000
000F8000
000F8000
00070000
00000000
00000000
00000000
00000000
00000000
00000000
00000000
00000000
F80007C0
FC0007E0
7C0007E0
7E0003E0
3E0003E0
3E0003F0
3E0003F0
3F0003F0
3F0001F0
3F0001F0
3F0001F0
3F0001F0
3F0001F0
3F0001F8
3F0001F8
3F0001F8
3F0001F8
3F0001F8
3F0001F0
3F0001F0
3F0001F0
3F0001F0
3F0003F0
1F0003F0
1F8007E0
1F800FE0
0FE03FC0
0FFFFF80
07FFFF00
03FFFE00
01FFF800
003FE000
ENDCHAR
STARTCHAR omegatonos
ENCODING 974
SWIDTH 561 0
DWIDTH 36 0
BBX 34 55 1 -1
BITMAP
0001F80000
0001F80000
0001F80000
0001F80000
0001F80000
0001F00000
0001F00000
0001F00000
0001F00000
0001F00000
0001E00000
0001E00000
0003E00000
0003E00000
0001C00000
0000000000
0000000000
0000000000
0000000000
0000000000
0000000000
0000000000
0000000000
1F00003E00
1F80007E00
3F00003F00
3F00003F00
3E00001F00
3E00001F00
7E00001F80
7C00001F80
7C01E00F80
7C03F00F80
FC03F00F80
F803F00FC0
F803F007C0
F803F007C0
F803F007C0
F803F007C0
F803F007C0
F803F007C0
F803F007C0
F803F007C0
F803F007C0
F803F007C0
F803F007C0
FC03F00FC0
7C03F00F80
7E07F81F80
7F07F83F80
3FFFFFFF00
3FFFFFFF00
1FFF3FFE00
0FFE1FFC00
03F807F000
ENDCHAR
STARTCHAR uni0401
ENCODING 1025
SWIDTH 561 0
DWIDTH 36 0
BBX 27 57 5 0
BITMAP
0F807C00
0F807C00
0F807C00
0F807C00
0F807C00
0F807C00
00000000
00000000
00000000
00000000
00000000
00000000
00000000
7FFFFFC0
FFFFFFC0
FFFFFFC0
FFFFFFC0
FFFFFF80
FC000000
FC000000
FC000000
FC000000
FC000000
FC000000
FC000000
FC000000
FC000000
FC000000
FC000000
FC000000
FC000000
FC000000
FFFFFF00
FFFFFF80
FFFFFF80
FFFFFF80
FFFFFF00
FC000000
FC000000
FC000000
FC000000
FC000000
FC000000
FC000000
FC000000
FC000000
FC000000
FC000000
FC000000
FC000000
FC000000
FC000000
FFFFFFE0
FFFFFFE0
FFFFFFE0
FFFFFFE0
7FFFFFE0
ENDCHAR
STARTCHAR uni0403
ENCODING 1027
SWIDTH 561 0
DWIDTH 36 0
BBX 30 59 5 0
BITMAP
00000800
00003C00
0000FE00
0003FE00
000FFE00
003FFF00
00FFFC00
03FFE000
03FF0000
03F80000
01C00000
00000000
00000000
00000000
00000000
7FFFFFF8
FFFFFFFC
FFFFFFFC
FFFFFFFC
FFFFFFF8
FC000000
FC000000
FC000000
FC000000
FC000000
FC000000
FC000000
FC000000
FC000000
FC000000
FC000000
FC000000
FC000000
FC000000
FC000000
FC000000
FC000000
FC000000
FC000000
FC000000
FC000000
FC000000
FC000000
FC000000
FC000000
FC000000
FC000000
FC000000
FC000000
FC000000
FC000000
FC000000
FC000000
FC000000
FC000000
FC000000
FC000000
FC000000
78000000
ENDCHAR
STARTCHAR uni0405
ENCODING 1029
SWIDTH 561 0
DWIDTH 36 0
BBX 27 46 5 -1
BITMAP
00020000
007FFC00
03FFFF00
07FFFF00
1FFFFF00
3FF07F00
3F800600
7F000000
7E000000
FC000000
FC000000
FC000000
FC000000
FC000000
FC000000
7C000000
7E000000
7F000000
3FC00000
1FF00000
1FFF0000
0FFFE000
03FFF800
00FFFC00
003FFE00
0003FF00
00007F80
00001FC0
00000FC0
000007E0
000007E0
000003E0
000003E0
000003E0
000003E0
000007E0
000007C0
00000FC0
00001F80
30007F80
7F07FF00
7FFFFE00
FFFFFC00
7FFFF000
0FFF8000
00300000
ENDCHAR
STARTCHAR uni0406
ENCODING 1030
SWIDTH 561 0
DWIDTH 36 0
BBX 26 44 5 0
BITMAP
7FFFFF80
7FFFFF80
7FFFFF80
7FFFFF80
7FFFFF00
003F0000
003F0000
003F0000
003F0000
003F0000
003F0000
003F0000
003F0000
003F0000
003F0000
003F0000
003F0000
003F0000
003F0000
003F0000
003F0000
003F0000
003F0000
003F0000
003F0000
003F0000
003F0000
003F0000
003F0000
003F0000
003F0000
003F0000
003F0000
003F0000
003F0000
003F0000
003F0000
003F0000
003F0000
7FFFFF80
FFFFFFC0
FFFFFFC0
FFFFFFC0
7FFFFF80
ENDCHAR
STARTCHAR uni0407
ENCODING 1031
SWIDTH 561 0
DWIDTH 36 0
BBX 26 57 5 0
BITMAP
0F807C00
0F807C00
0F807C00
0F807C00
0F807C00
0F807C00
00000000
00000000
00000000
00000000
00000000
00000000
00000000
7FFFFF80
7FFFFF80
7FFFFF80
7FFFFF80
7FFFFF00
003F0000
003F0000
003F0000
003F0000
003F0000
003F0000
003F0000
003F0000
003F0000
003F0000
003F0000
003F0000
003F0000
003F0000
003F0000
003F0000
003F0000
003F0000
003F0000
003F0000
003F0000
003F0000
003F0000
003F0000
003F0000
003F0000
003F0000
003F0000
003F0000
003F0000
003F0000
003F0000
003F0000
003F0000
7FFFFF80
FFFFFFC0
FFFFFFC0
FFFFFFC0
7FFFFF80
ENDCHAR
STARTCHAR uni0408
ENCODING 1032
SWIDTH 561 0
DWIDTH 36 0
BBX 26 45 5 -1
BITMAP
07FFFF80
07FFFFC0
07FFFFC0
07FFFFC0
07FFFFC0
00000FC0
00000FC0
00000FC0
00000FC0
00000FC0
00000FC0
00000FC0
00000FC0
00000FC0
00000FC0
00000FC0
00000FC0
00000FC0
00000FC0
00000FC0
00000FC0
00000FC0
00000FC0
00000FC0
00000FC0
00000FC0
00000FC0
00000FC0
00000FC0
00000FC0
00000F80
00000F80
00000F80
00001F80
00001F80
00003F00
00007F00
0000FE00
7001FE00
7F0FFC00
FFFFF800
FFFFF000
7FFFC000
1FFF0000
00600000
ENDCHAR
STARTCHAR uni040C
ENCODING 1036
SWIDTH 561 0
DWIDTH 36 0
BBX 27 59 5 0
BITMAP
00000800
00003C00
0000FE00
0003FE00
000FFE00
003FFF00
00FFFC00
03FFE000
03FF0000
03F80000
01C00000
00000000
00000000
00000000
00000000
78000FC0
FC001FC0
FC001FC0
FC003F80
FC007F00
FC007E00
FC00FE00
FC01FC00
FC03F800
FC03F000
FC07F000
FC0FE000
FC0FC000
FC1F8000
FC3F8000
FC7F0000
FC7E0000
FCFC0000
FDFC0000
FFF80000
FFF00000
FFE00000
FFF00000
FDF80000
FDFC0000
FCFC0000
FC7E0000
FC3F0000
FC3F8000
FC1F8000
FC0FC000
FC0FE000
FC07F000
FC03F000
FC01F800
FC01FC00
FC00FE00
FC007E00
FC003F00
FC003F80
FC001FC0
FC000FC0
FC000FE0
780007E0
ENDCHAR
STARTCHAR uni0410
ENCODING 1040
SWIDTH 561 0
DWIDTH 36 0
BBX 34 45 1 0
BITMAP
0000800000
0007F80000
001FFE0000
003FFE0000
003FFF0000
007F3F0000
007E1F8000
007C0F8000
007C0F8000
00FC0F8000
00FC0FC000
00F807C000
00F807C000
01F807C000
01F807E000
01F003E000
01F003E000
03F003E000
03F003F000
03E001F000
03E001F000
07E001F000
07E001F800
07C000F800
07C000F800
0FC000F800
0FFFFFFC00
0FFFFFFC00
0FFFFFFC00
1FFFFFFC00
1FFFFFFE00
1F00003E00
1F00003E00
3F00003E00
3F00003F00
3E00001F00
3E00001F00
7E00001F00
7E00001F80
7C00000F80
7C00000F80
FC00000F80
FC00000FC0
F8000007C0
F8000007C0
ENDCHAR
STARTCHAR uni0411
ENCODING 1041
SWIDTH 561 0
DWIDTH 36 0
BBX 27 44 5 0
BITMAP
7FFFFE00
FFFFFE00
FFFFFE00
FFFFFE00
FFFFFE00
FC000000
FC000000
FC000000
FC000000
FC000000
FC000000
FC000000
FC000000
FC000000
FC000000
FC000000
FC000000
FC000000
FFFF0000
FFFFE000
FFFFF800
FFFFFE00
FFFFFF00
FC00FF80
FC003FC0
FC001FC0
FC000FE0
FC0007E0
FC0003E0
FC0003E0
FC0003E0
FC0003E0
FC0003E0
FC0003E0
FC0007E0
FC000FC0
FC000FC0
FC003FC0
FC00FF80
FFFFFF00
FFFFFE00
FFFFF800
FFFFE000
7FFF0000
ENDCHAR
STARTCHAR uni0412
ENCODING 1042
SWIDTH 561 0
DWIDTH 36 0
BBX 30 44 2 0
BITMAP
7FFFC000
FFFFF800
FFFFFE00
FFFFFF00
7FFFFF80
0FC03FC0
0FC00FC0
0FC007E0
0FC003E0
0FC003E0
0FC001F0
0FC001F0
0FC001E0
0FC001E0
0FC003E0
0FC003E0
0FC007C0
0FC00FC0
0FC07F80
0FFFFF00
0FFFFE00
0FFFFE00
0FFFFF80
0FFFFFC0
0FC01FE0
0FC007F0
0FC001F8
0FC000F8
0FC000FC
0FC0007C
0FC0007C
0FC0007C
0FC0007C
0FC0007C
0FC0007C
0FC000F8
0FC001F8
0FC003F0
0FC01FF0
0FFFFFE0
0FFFFFC0
0FFFFF00
0FFFFC00
07FFF000
ENDCHAR
STARTCHAR uni0413
ENCODING 1043
SWIDTH 561 0
DWIDTH 36 0
BBX 30 44 5 0
BITMAP
7FFFFFF8
FFFFFFFC
FFFFFFFC
FFFFFFFC
FFFFFFF8
FC000000
FC000000
FC000000
FC000000
FC000000
FC000000
FC000000
FC000000
FC000000
FC000000
FC000000
FC000000
FC000000
FC000000
FC000000
FC000000
FC000000
FC000000
FC000000
FC000000
FC000000
FC000000
FC000000
FC000000
FC000000
FC000000
FC000000
FC000000
FC000000
FC000000
FC000000
FC000000
FC000000
FC000000
FC000000
FC000000
FC000000
FC000000
78000000
ENDCHAR
STARTCHAR uni0414
ENCODING 1044
SWIDTH 561 0
DWIDTH 36 0
BBX 30 53 3 -9
BITMAP
03FFFF80
03FFFFC0
03FFFFC0
03FFFFC0
03FFFFC0
03E00FC0
03E00FC0
03E00FC0
03E00FC0
03E00FC0
03E00FC0
03E00FC0
03E00FC0
03E00FC0
03E00FC0
03E00FC0
03E00FC0
03E00FC0
03E00FC0
03E00FC0
03E00FC0
03E00FC0
03E00FC0
07E00FC0
07E00FC0
07E00FC0
07E00FC0
07C00FC0
07C00FC0
07C00FC0
07C00FC0
07C00FC0
07C00FC0
0F800FC0
0F800FC0
0F800FC0
0F000FC0
1F000FC0
1E000FC0
7FFFFFF8
FFFFFFFC
FFFFFFFC
FFFFFFFC
FFFFFFFC
F80000FC
F80000FC
F80000FC
F80000FC
F80000FC
F80000FC
F80000FC
F80000FC
F800007C
ENDCHAR
STARTCHAR uni0415
ENCODING 1045
SWIDTH 561 0
DWIDTH 36 0
BBX 27 44 5 0
BITMAP
7FFFFFC0
FFFFFFC0
FFFFFFC0
FFFFFFC0
FFFFFF80
FC000000
FC000000
FC000000
FC000000
FC000000
FC000000
FC000000
FC000000
FC000000
FC000000
FC000000
FC000000
FC000000
FC000000
FFFFFF00
FFFFFF80
FFFFFF80
FFFFFF80
FFFFFF00
FC000000
FC000000
FC000000
FC000000
FC000000
FC000000
FC000000
FC000000
FC000000
FC000000
FC000000
FC000000
FC000000
FC000000
FC000000
FFFFFFE0
FFFFFFE0
FFFFFFE0
FFFFFFE0
7FFFFFE0
ENDCHAR
STARTCHAR uni0416
ENCODING 1046
SWIDTH 561 0
DWIDTH 36 0
BBX 32 44 2 0
BITMAP
F803C01F
F807E01F
FC07E03F
7C07E03E
7C07E07E
3E07E07C
3E07E07C
3F07E0FC
1F07E0F8
1F87E1F8
0F87E1F0
0F87E3F0
0FC7E3E0
07C7E3E0
07E7E7E0
03E7E7C0
03F7EFC0
01F7EF80
01FFFF80
01FFFF80
00FFFF00
007FFE00
00FFFF00
01FFFF80
01FFFF80
01F7EF80
03F7EFC0
03E7E7C0
07E7E7C0
07E7E7E0
07C7E3E0
0FC7E3F0
0F87E1F0
0F87E1F0
1F87E1F8
1F07E0F8
3F07E0F8
3E07E07C
3E07E07C
7E07E07E
7C07E03E
7C07E03E
F807E01F
F803C01F
ENDCHAR
STARTCHAR uni0417
ENCODING 1047
SWIDTH 561 0
DWIDTH 36 0
BBX 25 46 6 -1
BITMAP
00400000
3FFF0000
7FFFE000
7FFFF000
3FFFF800
3E0FFC00
0000FE00
00007E00
00003F00
00003F00
00003F00
00001F00
00001F00
00001F00
00003F00
00003E00
00007E00
00007E00
0001FC00
0007F800
07FFF000
07FFC000
07FF8000
07FFE000
07FFF000
0003F800
0000FC00
00007E00
00003E00
00003F00
00001F00
00001F00
00001F80
00001F80
00001F80
00001F80
00001F00
00003F00
00007F00
0000FE00
7C0FFC00
7FFFFC00
7FFFF000
FFFFE000
7FFF0000
00C00000
ENDCHAR
STARTCHAR uni0418
ENCODING 1048
SWIDTH 561 0
DWIDTH 36 0
BBX 28 44 4 0
BITMAP
780003E0
FC0007F0
FC0007F0
FC000FF0
FC000FF0
FC001FF0
FC001FF0
FC003FF0
FC003FF0
FC007FF0
FC007FF0
FC00FFF0
FC00FFF0
FC01FBF0
FC01FBF0
FC01F3F0
FC03F3F0
FC03E3F0
FC07C3F0
FC07C3F0
FC0F83F0
FC0F83F0
FC1F03F0
FC1F03F0
FC3E03F0
FC3E03F0
FC7C03F0
FC7C03F0
FCF803F0
FCF803F0
FDF003F0
FDF003F0
FFE003F0
FFE003F0
FFC003F0
FFC003F0
FF8003F0
FF8003F0
FF0003F0
FF0003F0
FE0003F0
FE0003F0
FC0003F0
780001E0
ENDCHAR
STARTCHAR uni0419
ENCODING 1049
SWIDTH 561 0
DWIDTH 36 0
BBX 28 58 4 0
BITMAP
1E000780
3F000F80
1F000F80
1F801F80
1F803F00
0FE07F00
07FFFE00
03FFFC00
01FFF000
003FC000
00000000
00000000
00000000
00000000
780003E0
FC0007F0
FC0007F0
FC000FF0
FC000FF0
FC001FF0
FC001FF0
FC003FF0
FC003FF0
FC007FF0
FC007FF0
FC00FFF0
FC00FFF0
FC01FBF0
FC01FBF0
FC01F3F0
FC03F3F0
FC03E3F0
FC07C3F0
FC07C3F0
FC0F83F0
FC0F83F0
FC1F03F0
FC1F03F0
FC3E03F0
FC3E03F0
FC7C03F0
FC7C03F0
FCF803F0
FCF803F0
FDF003F0
FDF003F0
FFE003F0
FFE003F0
FFC003F0
FFC003F0
FF8003F0
FF8003F0
FF0003F0
FF0003F0
FE0003F0
FE0003F0
FC0003F0
780001E0
ENDCHAR
STARTCHAR uni041A
ENCODING 1050
SWIDTH 561 0
DWIDTH 36 0
BBX 27 44 5 0
BITMAP
78000FC0
FC001FC0
FC001FC0
FC003F80
FC007F00
FC007E00
FC00FE00
FC01FC00
FC03F800
FC03F000
FC07F000
FC0FE000
FC0FC000
FC1F8000
FC3F8000
FC7F0000
FC7E0000
FCFC0000
FDFC0000
FFF80000
FFF00000
FFE00000
FFF00000
FDF80000
FDFC0000
FCFC0000
FC7E0000
FC3F0000
FC3F8000
FC1F8000
FC0FC000
FC0FE000
FC07F000
FC03F000
FC01F800
FC01FC00
FC00FE00
FC007E00
FC003F00
FC003F80
FC001FC0
FC000FC0
FC000FE0
780007E0
ENDCHAR
ENDFONT
